%FSLAX45Y45*%
G04 Gerber Fmt 4.5, Leading zero omitted, Abs format (unit mm)*
G04 Created by KiCad (PCBNEW (6.0.0-0)) date 2023-01-27 15:23:30*
%MOMM*%
%LPD*%
G01*
G04 APERTURE LIST*
%TA.AperFunction,Profile*%
%ADD10C,0.100000*%
%TD*%
%ADD11C,0.200000*%
G04 APERTURE END LIST*
D10*
X15494000Y-7491000D02*
X11176000Y-7491000D01*
X11176000Y-7491000D02*
X11176000Y-10285000D01*
X11176000Y-10285000D02*
X15494000Y-10285000D01*
X15494000Y-10285000D02*
X15494000Y-7491000D01*
D11*
X11428619Y-10600476D02*
X11428619Y-10400476D01*
X11476238Y-10400476D01*
X11504809Y-10410000D01*
X11523857Y-10429048D01*
X11533381Y-10448095D01*
X11542905Y-10486190D01*
X11542905Y-10514762D01*
X11533381Y-10552857D01*
X11523857Y-10571905D01*
X11504809Y-10590952D01*
X11476238Y-10600476D01*
X11428619Y-10600476D01*
X11628619Y-10600476D02*
X11628619Y-10467143D01*
X11628619Y-10505238D02*
X11638143Y-10486190D01*
X11647667Y-10476667D01*
X11666714Y-10467143D01*
X11685762Y-10467143D01*
X11752428Y-10600476D02*
X11752428Y-10467143D01*
X11752428Y-10400476D02*
X11742905Y-10410000D01*
X11752428Y-10419524D01*
X11761952Y-10410000D01*
X11752428Y-10400476D01*
X11752428Y-10419524D01*
X11876238Y-10600476D02*
X11857190Y-10590952D01*
X11847667Y-10571905D01*
X11847667Y-10400476D01*
X11981000Y-10600476D02*
X11961952Y-10590952D01*
X11952428Y-10571905D01*
X11952428Y-10400476D01*
X12209571Y-10600476D02*
X12209571Y-10400476D01*
X12276238Y-10543333D01*
X12342905Y-10400476D01*
X12342905Y-10600476D01*
X12523857Y-10600476D02*
X12523857Y-10495714D01*
X12514333Y-10476667D01*
X12495286Y-10467143D01*
X12457190Y-10467143D01*
X12438143Y-10476667D01*
X12523857Y-10590952D02*
X12504809Y-10600476D01*
X12457190Y-10600476D01*
X12438143Y-10590952D01*
X12428619Y-10571905D01*
X12428619Y-10552857D01*
X12438143Y-10533810D01*
X12457190Y-10524286D01*
X12504809Y-10524286D01*
X12523857Y-10514762D01*
X12619095Y-10467143D02*
X12619095Y-10667143D01*
X12619095Y-10476667D02*
X12638143Y-10467143D01*
X12676238Y-10467143D01*
X12695286Y-10476667D01*
X12704809Y-10486190D01*
X12714333Y-10505238D01*
X12714333Y-10562381D01*
X12704809Y-10581429D01*
X12695286Y-10590952D01*
X12676238Y-10600476D01*
X12638143Y-10600476D01*
X12619095Y-10590952D01*
X12800048Y-10581429D02*
X12809571Y-10590952D01*
X12800048Y-10600476D01*
X12790524Y-10590952D01*
X12800048Y-10581429D01*
X12800048Y-10600476D01*
X12800048Y-10476667D02*
X12809571Y-10486190D01*
X12800048Y-10495714D01*
X12790524Y-10486190D01*
X12800048Y-10476667D01*
X12800048Y-10495714D01*
M02*
