%TF.GenerationSoftware,KiCad,Pcbnew,(6.0.0-0)*%
%TF.CreationDate,2023-01-27T15:23:14+00:00*%
%TF.ProjectId,Userport RTC,55736572-706f-4727-9420-5254432e6b69,rev?*%
%TF.SameCoordinates,Original*%
%TF.FileFunction,Copper,L1,Top*%
%TF.FilePolarity,Positive*%
%FSLAX46Y46*%
G04 Gerber Fmt 4.6, Leading zero omitted, Abs format (unit mm)*
G04 Created by KiCad (PCBNEW (6.0.0-0)) date 2023-01-27 15:23:14*
%MOMM*%
%LPD*%
G01*
G04 APERTURE LIST*
G04 Aperture macros list*
%AMRoundRect*
0 Rectangle with rounded corners*
0 $1 Rounding radius*
0 $2 $3 $4 $5 $6 $7 $8 $9 X,Y pos of 4 corners*
0 Add a 4 corners polygon primitive as box body*
4,1,4,$2,$3,$4,$5,$6,$7,$8,$9,$2,$3,0*
0 Add four circle primitives for the rounded corners*
1,1,$1+$1,$2,$3*
1,1,$1+$1,$4,$5*
1,1,$1+$1,$6,$7*
1,1,$1+$1,$8,$9*
0 Add four rect primitives between the rounded corners*
20,1,$1+$1,$2,$3,$4,$5,0*
20,1,$1+$1,$4,$5,$6,$7,0*
20,1,$1+$1,$6,$7,$8,$9,0*
20,1,$1+$1,$8,$9,$2,$3,0*%
G04 Aperture macros list end*
%TA.AperFunction,SMDPad,CuDef*%
%ADD10RoundRect,0.150000X-0.825000X-0.150000X0.825000X-0.150000X0.825000X0.150000X-0.825000X0.150000X0*%
%TD*%
%TA.AperFunction,ComponentPad*%
%ADD11R,1.200000X1.200000*%
%TD*%
%TA.AperFunction,ComponentPad*%
%ADD12C,1.200000*%
%TD*%
%TA.AperFunction,SMDPad,CuDef*%
%ADD13RoundRect,0.250000X0.625000X-0.400000X0.625000X0.400000X-0.625000X0.400000X-0.625000X-0.400000X0*%
%TD*%
%TA.AperFunction,SMDPad,CuDef*%
%ADD14RoundRect,0.150000X0.512500X0.150000X-0.512500X0.150000X-0.512500X-0.150000X0.512500X-0.150000X0*%
%TD*%
%TA.AperFunction,SMDPad,CuDef*%
%ADD15RoundRect,0.250000X0.412500X0.650000X-0.412500X0.650000X-0.412500X-0.650000X0.412500X-0.650000X0*%
%TD*%
%TA.AperFunction,SMDPad,CuDef*%
%ADD16RoundRect,0.100000X-0.637500X-0.100000X0.637500X-0.100000X0.637500X0.100000X-0.637500X0.100000X0*%
%TD*%
%TA.AperFunction,ComponentPad*%
%ADD17C,1.000000*%
%TD*%
%TA.AperFunction,SMDPad,CuDef*%
%ADD18RoundRect,0.250000X-0.400000X-0.625000X0.400000X-0.625000X0.400000X0.625000X-0.400000X0.625000X0*%
%TD*%
%TA.AperFunction,ComponentPad*%
%ADD19R,1.700000X1.700000*%
%TD*%
%TA.AperFunction,ComponentPad*%
%ADD20O,1.700000X1.700000*%
%TD*%
%TA.AperFunction,ComponentPad*%
%ADD21C,1.700000*%
%TD*%
%TA.AperFunction,ViaPad*%
%ADD22C,1.000000*%
%TD*%
%TA.AperFunction,ViaPad*%
%ADD23C,0.800000*%
%TD*%
%TA.AperFunction,Conductor*%
%ADD24C,0.250000*%
%TD*%
%TA.AperFunction,Conductor*%
%ADD25C,0.400000*%
%TD*%
G04 APERTURE END LIST*
D10*
X134685000Y-94615000D03*
X134685000Y-95885000D03*
X134685000Y-97155000D03*
X134685000Y-98425000D03*
X139635000Y-98425000D03*
X139635000Y-97155000D03*
X139635000Y-95885000D03*
X139635000Y-94615000D03*
D11*
X151130000Y-92075000D03*
D12*
X152630000Y-92075000D03*
D13*
X125730000Y-98070000D03*
X125730000Y-94970000D03*
D14*
X145917500Y-89215000D03*
X145917500Y-88265000D03*
X145917500Y-87315000D03*
X143642500Y-87315000D03*
X143642500Y-89215000D03*
D15*
X146342500Y-77470000D03*
X143217500Y-77470000D03*
D16*
X141917500Y-80600000D03*
X141917500Y-81250000D03*
X141917500Y-81900000D03*
X141917500Y-82550000D03*
X141917500Y-83200000D03*
X141917500Y-83850000D03*
X141917500Y-84500000D03*
X147642500Y-84500000D03*
X147642500Y-83850000D03*
X147642500Y-83200000D03*
X147642500Y-82550000D03*
X147642500Y-81900000D03*
X147642500Y-81250000D03*
X147642500Y-80600000D03*
D10*
X143575000Y-92075000D03*
X143575000Y-93345000D03*
X143575000Y-94615000D03*
X143575000Y-95885000D03*
X143575000Y-97155000D03*
X143575000Y-98425000D03*
X143575000Y-99695000D03*
X148525000Y-99695000D03*
X148525000Y-98425000D03*
X148525000Y-97155000D03*
X148525000Y-95885000D03*
X148525000Y-94615000D03*
X148525000Y-93345000D03*
X148525000Y-92075000D03*
D17*
X136210000Y-78550000D03*
X138110000Y-78550000D03*
D18*
X125450000Y-80010000D03*
X128550000Y-80010000D03*
X125450000Y-77470000D03*
X128550000Y-77470000D03*
D15*
X138722500Y-91440000D03*
X135597500Y-91440000D03*
D18*
X125450000Y-82550000D03*
X128550000Y-82550000D03*
X148310000Y-89535000D03*
X151410000Y-89535000D03*
D19*
X153040000Y-86290000D03*
D20*
X150500000Y-86290000D03*
D19*
X116205000Y-100330000D03*
D20*
X113665000Y-100330000D03*
X116205000Y-97790000D03*
X113665000Y-97790000D03*
X116205000Y-95250000D03*
X113665000Y-95250000D03*
X116205000Y-92710000D03*
X113665000Y-92710000D03*
X116205000Y-90170000D03*
X113665000Y-90170000D03*
X116205000Y-87630000D03*
X113665000Y-87630000D03*
X116205000Y-85090000D03*
X113665000Y-85090000D03*
X116205000Y-82550000D03*
X113665000Y-82550000D03*
X116205000Y-80010000D03*
X113665000Y-80010000D03*
X116205000Y-77470000D03*
X113665000Y-77470000D03*
D19*
X122500000Y-77475000D03*
D21*
X119960000Y-77475000D03*
D20*
X122500000Y-80015000D03*
X119960000Y-80015000D03*
X122500000Y-82555000D03*
X119960000Y-82555000D03*
X122500000Y-85095000D03*
X119960000Y-85095000D03*
X122500000Y-87635000D03*
X119960000Y-87635000D03*
X122500000Y-90175000D03*
X119960000Y-90175000D03*
X122500000Y-92715000D03*
X119960000Y-92715000D03*
X122500000Y-95255000D03*
X119960000Y-95255000D03*
X122500000Y-97795000D03*
X119960000Y-97795000D03*
X122500000Y-100335000D03*
X119960000Y-100335000D03*
D22*
X130810000Y-97525500D03*
X127000000Y-82550000D03*
X137160000Y-97790000D03*
X129545000Y-92715000D03*
D23*
X145415000Y-83185000D03*
X138430000Y-100330000D03*
X146050000Y-97155000D03*
X141605000Y-93345000D03*
X135255000Y-85090000D03*
X132080000Y-93980000D03*
X140970000Y-92075000D03*
X130810000Y-80010000D03*
X146050000Y-94615000D03*
X141605000Y-95250000D03*
X139700000Y-85090000D03*
D24*
X113665000Y-92710000D02*
X114935000Y-93980000D01*
X114935000Y-93980000D02*
X124740000Y-93980000D01*
X124740000Y-93980000D02*
X125730000Y-94970000D01*
X119960000Y-87635000D02*
X121285000Y-88960000D01*
X121285000Y-88960000D02*
X121285000Y-90805000D01*
X120650000Y-91440000D02*
X114935000Y-91440000D01*
X121285000Y-90805000D02*
X120650000Y-91440000D01*
X114935000Y-91440000D02*
X113665000Y-90170000D01*
D25*
X116205000Y-85090000D02*
X117459511Y-86344511D01*
X117459511Y-86344511D02*
X121250489Y-86344511D01*
X121250489Y-86344511D02*
X122500000Y-85095000D01*
X138722500Y-93702500D02*
X139635000Y-94615000D01*
X147255000Y-90805000D02*
X139357500Y-90805000D01*
X139635000Y-95885000D02*
X140335000Y-95885000D01*
X139357500Y-90805000D02*
X138722500Y-91440000D01*
X148525000Y-92075000D02*
X147255000Y-90805000D01*
X151130000Y-92075000D02*
X148525000Y-92075000D01*
X134685000Y-97155000D02*
X131180500Y-97155000D01*
X142847500Y-87315000D02*
X138722500Y-91440000D01*
X125450000Y-77470000D02*
X122625000Y-77470000D01*
X140335000Y-95885000D02*
X141459040Y-97009040D01*
X125450000Y-80010000D02*
X122625000Y-80010000D01*
X141459040Y-101110960D02*
X140970000Y-101600000D01*
X141459040Y-97009040D02*
X141459040Y-101110960D01*
X131180500Y-97155000D02*
X130810000Y-97525500D01*
X117475000Y-101600000D02*
X116205000Y-100330000D01*
X139635000Y-94615000D02*
X139635000Y-95885000D01*
X122625000Y-77470000D02*
X122620000Y-77475000D01*
X143642500Y-87315000D02*
X142847500Y-87315000D01*
X138722500Y-91440000D02*
X138722500Y-93702500D01*
X122625000Y-80010000D02*
X122620000Y-80015000D01*
X140970000Y-101600000D02*
X117475000Y-101600000D01*
X125450000Y-82550000D02*
X127000000Y-82550000D01*
X135597500Y-91440000D02*
X141917500Y-85120000D01*
X153130000Y-92075000D02*
X154305000Y-92075000D01*
X150495000Y-101600000D02*
X154305000Y-97790000D01*
X143217500Y-78268927D02*
X146848573Y-81900000D01*
X143575000Y-99695000D02*
X145480000Y-101600000D01*
X136525000Y-98425000D02*
X137160000Y-97790000D01*
X146848573Y-81900000D02*
X147642500Y-81900000D01*
X116205000Y-85090000D02*
X116205000Y-87630000D01*
X147320000Y-88265000D02*
X149295000Y-86290000D01*
X122620000Y-92715000D02*
X134322500Y-92715000D01*
X134322500Y-92715000D02*
X135597500Y-91440000D01*
X154305000Y-97790000D02*
X154305000Y-92075000D01*
X145311427Y-81900000D02*
X142711427Y-84500000D01*
X143217500Y-77470000D02*
X143217500Y-78268927D01*
X147642500Y-81900000D02*
X145311427Y-81900000D01*
X151410000Y-89535000D02*
X154305000Y-89535000D01*
X145917500Y-88265000D02*
X147320000Y-88265000D01*
X142711427Y-84500000D02*
X141917500Y-84500000D01*
X144517020Y-76170480D02*
X151735480Y-76170480D01*
X154305000Y-89535000D02*
X154305000Y-92075000D01*
X151410000Y-87200000D02*
X150500000Y-86290000D01*
X149295000Y-86290000D02*
X150500000Y-86290000D01*
X141917500Y-85120000D02*
X141917500Y-84500000D01*
X154305000Y-78740000D02*
X154305000Y-89535000D01*
X134685000Y-98425000D02*
X136525000Y-98425000D01*
X145480000Y-101600000D02*
X150495000Y-101600000D01*
X151410000Y-89535000D02*
X151410000Y-87200000D01*
X151735480Y-76170480D02*
X154305000Y-78740000D01*
X143217500Y-77470000D02*
X144517020Y-76170480D01*
X153040000Y-86290000D02*
X151840000Y-85090000D01*
X145917500Y-87315000D02*
X147000000Y-87315000D01*
X151840000Y-85090000D02*
X151765000Y-85090000D01*
X151130000Y-84455000D02*
X149225000Y-84455000D01*
X147642500Y-80600000D02*
X148436427Y-80600000D01*
X151765000Y-85090000D02*
X151130000Y-84455000D01*
X147000000Y-87315000D02*
X149225000Y-85090000D01*
X149225000Y-81388573D02*
X149225000Y-84455000D01*
X146342500Y-79300000D02*
X147642500Y-80600000D01*
X146342500Y-77470000D02*
X146342500Y-79300000D01*
X148436427Y-80600000D02*
X149225000Y-81388573D01*
X149225000Y-84455000D02*
X149225000Y-85090000D01*
D24*
X140934520Y-98771552D02*
X140934520Y-98078448D01*
X140656552Y-99049520D02*
X140934520Y-98771552D01*
X125730000Y-98070000D02*
X124740000Y-99060000D01*
X126709520Y-99049520D02*
X138419520Y-99049520D01*
X148525000Y-97155000D02*
X146050000Y-97155000D01*
X113665000Y-100330000D02*
X114955000Y-99040000D01*
X145415000Y-83185000D02*
X147627500Y-83185000D01*
X138419520Y-99049520D02*
X140656552Y-99049520D01*
X138430000Y-99060000D02*
X138419520Y-99049520D01*
X147627500Y-83185000D02*
X147642500Y-83200000D01*
X114955000Y-99040000D02*
X124760000Y-99040000D01*
X138430000Y-100330000D02*
X138430000Y-99060000D01*
X148525000Y-97155000D02*
X148525000Y-98425000D01*
X124760000Y-99040000D02*
X125730000Y-98070000D01*
X140934520Y-98078448D02*
X140011072Y-97155000D01*
X125730000Y-98070000D02*
X126709520Y-99049520D01*
X148525000Y-95885000D02*
X148525000Y-97155000D01*
X136525000Y-95885000D02*
X134685000Y-95885000D01*
X134070000Y-96500000D02*
X114955000Y-96500000D01*
X147642500Y-84500000D02*
X146497980Y-85644520D01*
X137160000Y-90619284D02*
X137160000Y-95250000D01*
X147642500Y-84500000D02*
X147642500Y-83850000D01*
X139065000Y-98425000D02*
X136525000Y-95885000D01*
X146497980Y-85644520D02*
X142134763Y-85644520D01*
X142134763Y-85644520D02*
X137160000Y-90619284D01*
X137160000Y-95250000D02*
X136525000Y-95885000D01*
X139635000Y-98425000D02*
X139065000Y-98425000D01*
X114955000Y-96500000D02*
X113665000Y-97790000D01*
X134685000Y-95885000D02*
X134070000Y-96500000D01*
X134050000Y-96520000D02*
X134685000Y-95885000D01*
X120015000Y-90170000D02*
X118840489Y-88995489D01*
X115030489Y-88995489D02*
X113665000Y-87630000D01*
X118840489Y-88995489D02*
X115030489Y-88995489D01*
X127280000Y-83820000D02*
X128550000Y-82550000D01*
X131090000Y-85090000D02*
X128550000Y-82550000D01*
X127300000Y-83800000D02*
X128550000Y-82550000D01*
X141605000Y-93345000D02*
X143575000Y-93345000D01*
X143575000Y-94615000D02*
X143575000Y-95885000D01*
X143575000Y-95885000D02*
X143575000Y-97155000D01*
X143575000Y-93345000D02*
X143575000Y-94615000D01*
X114915000Y-83800000D02*
X127300000Y-83800000D01*
X113665000Y-82550000D02*
X114915000Y-83800000D01*
X135255000Y-85090000D02*
X131090000Y-85090000D01*
X113665000Y-80010000D02*
X114915000Y-81260000D01*
X131740000Y-83200000D02*
X128550000Y-80010000D01*
X114915000Y-81260000D02*
X127300000Y-81260000D01*
X127300000Y-81260000D02*
X128550000Y-80010000D01*
X141917500Y-83200000D02*
X131740000Y-83200000D01*
X127280000Y-81280000D02*
X128550000Y-80010000D01*
X134050000Y-93980000D02*
X132080000Y-93980000D01*
X127350480Y-78669520D02*
X114864520Y-78669520D01*
X114864520Y-78669520D02*
X113665000Y-77470000D01*
X128550000Y-77470000D02*
X127350480Y-78669520D01*
X128550000Y-77750000D02*
X128550000Y-77470000D01*
X143575000Y-92075000D02*
X140970000Y-92075000D01*
X134685000Y-94615000D02*
X134050000Y-93980000D01*
X130810000Y-80010000D02*
X128550000Y-77750000D01*
X148525000Y-94615000D02*
X146050000Y-94615000D01*
X148525000Y-93345000D02*
X146050000Y-93345000D01*
X144874520Y-94520480D02*
X144874520Y-98519520D01*
X146050000Y-93345000D02*
X144874520Y-94520480D01*
X144874520Y-98519520D02*
X146050000Y-99695000D01*
X146050000Y-99695000D02*
X148525000Y-99695000D01*
X143198928Y-98425000D02*
X142240000Y-97466072D01*
X142240000Y-97466072D02*
X142240000Y-95885000D01*
X142240000Y-95885000D02*
X141605000Y-95250000D01*
X143575000Y-98425000D02*
X143198928Y-98425000D01*
X139700000Y-85090000D02*
X140940000Y-83850000D01*
X140940000Y-83850000D02*
X141917500Y-83850000D01*
X148310000Y-89535000D02*
X148310000Y-89815000D01*
X147955000Y-90170000D02*
X144597500Y-90170000D01*
X148310000Y-89815000D02*
X147955000Y-90170000D01*
X144597500Y-90170000D02*
X143642500Y-89215000D01*
X139867500Y-78550000D02*
X138110000Y-78550000D01*
X141917500Y-80600000D02*
X139867500Y-78550000D01*
X138910000Y-81250000D02*
X136210000Y-78550000D01*
X141917500Y-81250000D02*
X138910000Y-81250000D01*
%TA.AperFunction,Conductor*%
G36*
X150696121Y-86056002D02*
G01*
X150742614Y-86109658D01*
X150754000Y-86162000D01*
X150754000Y-87608517D01*
X150758064Y-87622359D01*
X150771478Y-87624393D01*
X150778184Y-87623534D01*
X150788262Y-87621392D01*
X150992255Y-87560191D01*
X151001842Y-87556433D01*
X151193095Y-87462739D01*
X151201945Y-87457464D01*
X151375328Y-87333792D01*
X151383193Y-87327145D01*
X151487897Y-87222805D01*
X151550268Y-87188889D01*
X151621075Y-87194077D01*
X151677837Y-87236723D01*
X151694819Y-87267826D01*
X151739385Y-87386705D01*
X151826739Y-87503261D01*
X151943295Y-87590615D01*
X152079684Y-87641745D01*
X152141866Y-87648500D01*
X153938134Y-87648500D01*
X154000316Y-87641745D01*
X154136705Y-87590615D01*
X154230435Y-87520368D01*
X154296941Y-87495520D01*
X154366324Y-87510573D01*
X154416554Y-87560747D01*
X154432000Y-87621194D01*
X154432000Y-102216000D01*
X154411998Y-102284121D01*
X154358342Y-102330614D01*
X154306000Y-102342000D01*
X141538887Y-102342000D01*
X141470766Y-102321998D01*
X141424273Y-102268342D01*
X141414169Y-102198068D01*
X141444809Y-102132183D01*
X141483452Y-102088810D01*
X141488416Y-102083554D01*
X141939560Y-101632410D01*
X141945825Y-101626556D01*
X141947346Y-101625229D01*
X141989425Y-101588521D01*
X142026169Y-101536240D01*
X142030101Y-101530946D01*
X142064831Y-101486653D01*
X142069516Y-101480678D01*
X142072639Y-101473762D01*
X142074023Y-101471476D01*
X142082397Y-101456795D01*
X142083662Y-101454435D01*
X142088030Y-101448221D01*
X142111243Y-101388683D01*
X142113799Y-101382602D01*
X142136958Y-101331312D01*
X142140085Y-101324387D01*
X142141469Y-101316920D01*
X142142270Y-101314365D01*
X142146899Y-101298112D01*
X142147562Y-101295532D01*
X142150322Y-101288451D01*
X142158662Y-101225099D01*
X142159693Y-101218592D01*
X142169952Y-101163240D01*
X142171336Y-101155774D01*
X142169890Y-101130688D01*
X142167749Y-101093568D01*
X142167540Y-101086314D01*
X142167540Y-100485893D01*
X142187542Y-100417772D01*
X142241198Y-100371279D01*
X142311472Y-100361175D01*
X142357679Y-100377439D01*
X142479779Y-100449648D01*
X142494210Y-100455893D01*
X142640065Y-100498269D01*
X142652667Y-100500570D01*
X142681084Y-100502807D01*
X142686014Y-100503000D01*
X143302885Y-100503000D01*
X143318124Y-100498525D01*
X143319329Y-100497135D01*
X143321000Y-100489452D01*
X143321000Y-99567000D01*
X143341002Y-99498879D01*
X143394658Y-99452386D01*
X143447000Y-99441000D01*
X143703000Y-99441000D01*
X143771121Y-99461002D01*
X143817614Y-99514658D01*
X143829000Y-99567000D01*
X143829000Y-100484884D01*
X143833475Y-100500123D01*
X143834865Y-100501328D01*
X143842548Y-100502999D01*
X144463984Y-100502999D01*
X144468920Y-100502805D01*
X144497336Y-100500570D01*
X144509931Y-100498270D01*
X144655790Y-100455893D01*
X144670221Y-100449648D01*
X144799678Y-100373089D01*
X144812104Y-100363449D01*
X144918449Y-100257104D01*
X144928089Y-100244678D01*
X145004648Y-100115221D01*
X145010893Y-100100790D01*
X145053269Y-99954935D01*
X145055570Y-99942333D01*
X145057807Y-99913916D01*
X145058000Y-99908986D01*
X145058000Y-99903095D01*
X145078002Y-99834974D01*
X145131658Y-99788481D01*
X145201932Y-99778377D01*
X145266512Y-99807871D01*
X145273095Y-99814000D01*
X145546348Y-100087253D01*
X145553888Y-100095539D01*
X145558000Y-100102018D01*
X145563777Y-100107443D01*
X145607651Y-100148643D01*
X145610493Y-100151398D01*
X145630230Y-100171135D01*
X145633427Y-100173615D01*
X145642447Y-100181318D01*
X145674679Y-100211586D01*
X145681625Y-100215405D01*
X145681628Y-100215407D01*
X145692434Y-100221348D01*
X145708953Y-100232199D01*
X145724959Y-100244614D01*
X145732228Y-100247759D01*
X145732232Y-100247762D01*
X145765537Y-100262174D01*
X145776187Y-100267391D01*
X145814940Y-100288695D01*
X145822615Y-100290666D01*
X145822616Y-100290666D01*
X145834562Y-100293733D01*
X145853266Y-100300137D01*
X145856867Y-100301695D01*
X145871855Y-100308181D01*
X145879678Y-100309420D01*
X145879688Y-100309423D01*
X145915524Y-100315099D01*
X145927144Y-100317505D01*
X145950242Y-100323435D01*
X145969970Y-100328500D01*
X145990224Y-100328500D01*
X146009934Y-100330051D01*
X146029943Y-100333220D01*
X146037835Y-100332474D01*
X146073961Y-100329059D01*
X146085819Y-100328500D01*
X147200050Y-100328500D01*
X147268171Y-100348502D01*
X147281271Y-100359059D01*
X147281325Y-100358989D01*
X147287584Y-100363844D01*
X147293193Y-100369453D01*
X147300017Y-100373489D01*
X147300020Y-100373491D01*
X147374896Y-100417772D01*
X147436399Y-100454145D01*
X147444010Y-100456356D01*
X147444012Y-100456357D01*
X147466878Y-100463000D01*
X147596169Y-100500562D01*
X147602574Y-100501066D01*
X147602579Y-100501067D01*
X147631042Y-100503307D01*
X147631050Y-100503307D01*
X147633498Y-100503500D01*
X149416502Y-100503500D01*
X149418950Y-100503307D01*
X149418958Y-100503307D01*
X149447421Y-100501067D01*
X149447426Y-100501066D01*
X149453831Y-100500562D01*
X149583122Y-100463000D01*
X149605988Y-100456357D01*
X149605990Y-100456356D01*
X149613601Y-100454145D01*
X149675104Y-100417772D01*
X149749980Y-100373491D01*
X149749983Y-100373489D01*
X149756807Y-100369453D01*
X149874453Y-100251807D01*
X149878489Y-100244983D01*
X149878491Y-100244980D01*
X149955108Y-100115427D01*
X149959145Y-100108601D01*
X149961415Y-100100790D01*
X150003767Y-99955008D01*
X150005562Y-99948831D01*
X150006074Y-99942333D01*
X150008307Y-99913958D01*
X150008307Y-99913950D01*
X150008500Y-99911502D01*
X150008500Y-99478498D01*
X150008307Y-99476042D01*
X150006067Y-99447579D01*
X150006066Y-99447574D01*
X150005562Y-99441169D01*
X149959145Y-99281399D01*
X149874453Y-99138193D01*
X149871771Y-99135511D01*
X149846498Y-99071139D01*
X149860400Y-99001516D01*
X149870572Y-98985688D01*
X149874453Y-98981807D01*
X149959145Y-98838601D01*
X150005562Y-98678831D01*
X150008500Y-98641502D01*
X150008500Y-98208498D01*
X150007904Y-98200925D01*
X150006067Y-98177579D01*
X150006066Y-98177574D01*
X150005562Y-98171169D01*
X149961966Y-98021109D01*
X149961357Y-98019012D01*
X149961356Y-98019010D01*
X149959145Y-98011399D01*
X149874453Y-97868193D01*
X149871771Y-97865511D01*
X149846498Y-97801139D01*
X149860400Y-97731516D01*
X149870572Y-97715688D01*
X149874453Y-97711807D01*
X149959145Y-97568601D01*
X149975778Y-97511351D01*
X150003767Y-97415008D01*
X150005562Y-97408831D01*
X150008500Y-97371502D01*
X150008500Y-96938498D01*
X150008307Y-96936042D01*
X150006067Y-96907579D01*
X150006066Y-96907574D01*
X150005562Y-96901169D01*
X149959145Y-96741399D01*
X149874453Y-96598193D01*
X149871771Y-96595511D01*
X149846498Y-96531139D01*
X149860400Y-96461516D01*
X149870572Y-96445688D01*
X149874453Y-96441807D01*
X149959145Y-96298601D01*
X150005562Y-96138831D01*
X150008500Y-96101502D01*
X150008500Y-95668498D01*
X150007980Y-95661885D01*
X150006067Y-95637579D01*
X150006066Y-95637574D01*
X150005562Y-95631169D01*
X149963114Y-95485060D01*
X149961357Y-95479012D01*
X149961356Y-95479010D01*
X149959145Y-95471399D01*
X149874453Y-95328193D01*
X149871771Y-95325511D01*
X149846498Y-95261139D01*
X149860400Y-95191516D01*
X149870572Y-95175688D01*
X149874453Y-95171807D01*
X149959145Y-95028601D01*
X150005562Y-94868831D01*
X150007351Y-94846109D01*
X150008307Y-94833958D01*
X150008307Y-94833950D01*
X150008500Y-94831502D01*
X150008500Y-94398498D01*
X150008307Y-94396042D01*
X150006067Y-94367579D01*
X150006066Y-94367574D01*
X150005562Y-94361169D01*
X149959145Y-94201399D01*
X149874453Y-94058193D01*
X149871771Y-94055511D01*
X149846498Y-93991139D01*
X149860400Y-93921516D01*
X149870572Y-93905688D01*
X149874453Y-93901807D01*
X149959145Y-93758601D01*
X150005562Y-93598831D01*
X150006435Y-93587747D01*
X150008307Y-93563958D01*
X150008307Y-93563950D01*
X150008500Y-93561502D01*
X150008500Y-93171558D01*
X150028502Y-93103437D01*
X150082158Y-93056944D01*
X150152432Y-93046840D01*
X150210065Y-93070732D01*
X150283295Y-93125615D01*
X150419684Y-93176745D01*
X150481866Y-93183500D01*
X151778134Y-93183500D01*
X151840316Y-93176745D01*
X151976705Y-93125615D01*
X151987348Y-93117639D01*
X152019689Y-93093400D01*
X152024622Y-93089703D01*
X152091126Y-93064855D01*
X152149924Y-93074761D01*
X152280835Y-93131005D01*
X152291778Y-93134560D01*
X152479120Y-93176952D01*
X152490530Y-93178454D01*
X152682469Y-93185995D01*
X152693951Y-93185393D01*
X152884045Y-93157832D01*
X152895240Y-93155144D01*
X153077131Y-93093400D01*
X153087628Y-93088726D01*
X153198032Y-93026898D01*
X153207895Y-93016821D01*
X153204939Y-93009149D01*
X152359885Y-92164095D01*
X152325859Y-92101783D01*
X152327694Y-92076132D01*
X152994408Y-92076132D01*
X152994539Y-92077966D01*
X152998790Y-92084580D01*
X153560239Y-92646028D01*
X153572614Y-92652785D01*
X153579194Y-92647859D01*
X153643726Y-92532628D01*
X153648400Y-92522131D01*
X153710144Y-92340240D01*
X153712832Y-92329045D01*
X153740689Y-92136911D01*
X153741319Y-92129528D01*
X153742650Y-92078704D01*
X153742407Y-92071305D01*
X153724643Y-91877975D01*
X153722545Y-91866654D01*
X153670408Y-91681791D01*
X153666283Y-91671044D01*
X153582163Y-91500465D01*
X153574869Y-91494990D01*
X153562449Y-91501762D01*
X153002021Y-92062189D01*
X152994408Y-92076132D01*
X152327694Y-92076132D01*
X152330924Y-92030968D01*
X152359885Y-91985905D01*
X152630000Y-91715790D01*
X153200281Y-91145508D01*
X153207041Y-91133128D01*
X153201011Y-91125073D01*
X153140061Y-91086616D01*
X153129813Y-91081395D01*
X152951401Y-91010216D01*
X152940373Y-91006949D01*
X152751982Y-90969476D01*
X152740535Y-90968273D01*
X152548477Y-90965759D01*
X152536999Y-90966662D01*
X152359009Y-90997247D01*
X152288484Y-90989070D01*
X152233576Y-90944063D01*
X152211717Y-90876516D01*
X152229847Y-90807873D01*
X152271362Y-90765926D01*
X152277805Y-90761938D01*
X152289208Y-90752901D01*
X152403739Y-90638171D01*
X152412751Y-90626760D01*
X152497816Y-90488757D01*
X152503963Y-90475576D01*
X152555138Y-90321290D01*
X152558005Y-90307914D01*
X152567672Y-90213562D01*
X152568000Y-90207146D01*
X152568000Y-89807115D01*
X152563525Y-89791876D01*
X152562135Y-89790671D01*
X152554452Y-89789000D01*
X150270116Y-89789000D01*
X150254877Y-89793475D01*
X150253672Y-89794865D01*
X150252001Y-89802548D01*
X150252001Y-90207095D01*
X150252338Y-90213614D01*
X150262257Y-90309206D01*
X150265149Y-90322600D01*
X150316588Y-90476784D01*
X150322761Y-90489962D01*
X150408063Y-90627807D01*
X150417099Y-90639208D01*
X150532813Y-90754721D01*
X150566892Y-90817004D01*
X150561889Y-90887824D01*
X150519392Y-90944697D01*
X150457404Y-90969157D01*
X150443320Y-90970687D01*
X150419684Y-90973255D01*
X150283295Y-91024385D01*
X150166739Y-91111739D01*
X150079385Y-91228295D01*
X150076233Y-91236703D01*
X150058228Y-91284730D01*
X150015586Y-91341495D01*
X149949024Y-91366194D01*
X149940246Y-91366500D01*
X149733706Y-91366500D01*
X149669569Y-91348955D01*
X149613601Y-91315855D01*
X149605990Y-91313644D01*
X149605988Y-91313643D01*
X149548701Y-91297000D01*
X149453831Y-91269438D01*
X149447426Y-91268934D01*
X149447421Y-91268933D01*
X149418958Y-91266693D01*
X149418950Y-91266693D01*
X149416502Y-91266500D01*
X148770660Y-91266500D01*
X148702539Y-91246498D01*
X148681565Y-91229595D01*
X148585565Y-91133595D01*
X148551539Y-91071283D01*
X148556604Y-91000468D01*
X148599151Y-90943632D01*
X148665671Y-90918821D01*
X148674660Y-90918500D01*
X148760400Y-90918500D01*
X148763646Y-90918163D01*
X148763650Y-90918163D01*
X148859308Y-90908238D01*
X148859312Y-90908237D01*
X148866166Y-90907526D01*
X148872702Y-90905345D01*
X148872704Y-90905345D01*
X149026998Y-90853868D01*
X149033946Y-90851550D01*
X149184348Y-90758478D01*
X149309305Y-90633303D01*
X149343617Y-90577639D01*
X149398275Y-90488968D01*
X149398276Y-90488966D01*
X149402115Y-90482738D01*
X149428564Y-90402995D01*
X149455632Y-90321389D01*
X149455632Y-90321387D01*
X149457797Y-90314861D01*
X149468500Y-90210400D01*
X149468500Y-89262885D01*
X150252000Y-89262885D01*
X150256475Y-89278124D01*
X150257865Y-89279329D01*
X150265548Y-89281000D01*
X151137885Y-89281000D01*
X151153124Y-89276525D01*
X151154329Y-89275135D01*
X151156000Y-89267452D01*
X151156000Y-89262885D01*
X151664000Y-89262885D01*
X151668475Y-89278124D01*
X151669865Y-89279329D01*
X151677548Y-89281000D01*
X152549884Y-89281000D01*
X152565123Y-89276525D01*
X152566328Y-89275135D01*
X152567999Y-89267452D01*
X152567999Y-88862905D01*
X152567662Y-88856386D01*
X152557743Y-88760794D01*
X152554851Y-88747400D01*
X152503412Y-88593216D01*
X152497239Y-88580038D01*
X152411937Y-88442193D01*
X152402901Y-88430792D01*
X152288171Y-88316261D01*
X152276760Y-88307249D01*
X152138757Y-88222184D01*
X152125576Y-88216037D01*
X151971290Y-88164862D01*
X151957914Y-88161995D01*
X151863562Y-88152328D01*
X151857145Y-88152000D01*
X151682115Y-88152000D01*
X151666876Y-88156475D01*
X151665671Y-88157865D01*
X151664000Y-88165548D01*
X151664000Y-89262885D01*
X151156000Y-89262885D01*
X151156000Y-88170116D01*
X151151525Y-88154877D01*
X151150135Y-88153672D01*
X151142452Y-88152001D01*
X150962905Y-88152001D01*
X150956386Y-88152338D01*
X150860794Y-88162257D01*
X150847400Y-88165149D01*
X150693216Y-88216588D01*
X150680038Y-88222761D01*
X150542193Y-88308063D01*
X150530792Y-88317099D01*
X150416261Y-88431829D01*
X150407249Y-88443240D01*
X150322184Y-88581243D01*
X150316037Y-88594424D01*
X150264862Y-88748710D01*
X150261995Y-88762086D01*
X150252328Y-88856438D01*
X150252000Y-88862855D01*
X150252000Y-89262885D01*
X149468500Y-89262885D01*
X149468500Y-88859600D01*
X149466582Y-88841114D01*
X149458238Y-88760692D01*
X149458237Y-88760688D01*
X149457526Y-88753834D01*
X149401550Y-88586054D01*
X149308478Y-88435652D01*
X149278332Y-88405558D01*
X149188483Y-88315866D01*
X149183303Y-88310695D01*
X149147022Y-88288331D01*
X149038968Y-88221725D01*
X149038966Y-88221724D01*
X149032738Y-88217885D01*
X148919006Y-88180162D01*
X148871389Y-88164368D01*
X148871387Y-88164368D01*
X148864861Y-88162203D01*
X148858025Y-88161503D01*
X148858022Y-88161502D01*
X148814969Y-88157091D01*
X148760400Y-88151500D01*
X147859600Y-88151500D01*
X147856354Y-88151837D01*
X147856350Y-88151837D01*
X147760692Y-88161762D01*
X147760688Y-88161763D01*
X147753834Y-88162474D01*
X147747298Y-88164655D01*
X147747296Y-88164655D01*
X147635768Y-88201864D01*
X147586054Y-88218450D01*
X147435652Y-88311522D01*
X147310695Y-88436697D01*
X147277270Y-88490923D01*
X147276315Y-88492472D01*
X147223543Y-88539965D01*
X147153472Y-88551389D01*
X147116553Y-88535360D01*
X147115219Y-88538303D01*
X147072630Y-88519000D01*
X146834842Y-88519000D01*
X146770703Y-88501453D01*
X146700427Y-88459892D01*
X146700428Y-88459892D01*
X146693601Y-88455855D01*
X146685990Y-88453644D01*
X146685988Y-88453643D01*
X146609828Y-88431517D01*
X146533831Y-88409438D01*
X146527426Y-88408934D01*
X146527421Y-88408933D01*
X146498958Y-88406693D01*
X146498950Y-88406693D01*
X146496502Y-88406500D01*
X145338498Y-88406500D01*
X145336050Y-88406693D01*
X145336042Y-88406693D01*
X145307579Y-88408933D01*
X145307574Y-88408934D01*
X145301169Y-88409438D01*
X145225172Y-88431517D01*
X145149012Y-88453643D01*
X145149010Y-88453644D01*
X145141399Y-88455855D01*
X145134572Y-88459892D01*
X145134573Y-88459892D01*
X145064297Y-88501453D01*
X145000158Y-88519000D01*
X144768122Y-88519000D01*
X144752884Y-88523474D01*
X144744732Y-88532882D01*
X144685006Y-88571266D01*
X144614010Y-88571266D01*
X144572280Y-88549929D01*
X144567415Y-88546155D01*
X144561807Y-88540547D01*
X144554983Y-88536511D01*
X144554980Y-88536509D01*
X144425427Y-88459892D01*
X144425428Y-88459892D01*
X144418601Y-88455855D01*
X144410990Y-88453644D01*
X144410988Y-88453643D01*
X144334828Y-88431517D01*
X144258831Y-88409438D01*
X144252426Y-88408934D01*
X144252421Y-88408933D01*
X144223958Y-88406693D01*
X144223950Y-88406693D01*
X144221502Y-88406500D01*
X143063498Y-88406500D01*
X143063498Y-88405558D01*
X142998219Y-88389158D01*
X142949646Y-88337378D01*
X142936777Y-88267558D01*
X142963699Y-88201864D01*
X142973010Y-88191460D01*
X143004065Y-88160405D01*
X143066377Y-88126379D01*
X143093160Y-88123500D01*
X144221502Y-88123500D01*
X144223950Y-88123307D01*
X144223958Y-88123307D01*
X144252421Y-88121067D01*
X144252426Y-88121066D01*
X144258831Y-88120562D01*
X144358769Y-88091528D01*
X144410988Y-88076357D01*
X144410990Y-88076356D01*
X144418601Y-88074145D01*
X144561807Y-87989453D01*
X144567416Y-87983844D01*
X144572886Y-87979601D01*
X144638971Y-87953654D01*
X144708594Y-87967555D01*
X144750116Y-88005446D01*
X144762370Y-88011000D01*
X145000158Y-88011000D01*
X145064297Y-88028547D01*
X145141399Y-88074145D01*
X145149010Y-88076356D01*
X145149012Y-88076357D01*
X145201231Y-88091528D01*
X145301169Y-88120562D01*
X145307574Y-88121066D01*
X145307579Y-88121067D01*
X145336042Y-88123307D01*
X145336050Y-88123307D01*
X145338498Y-88123500D01*
X146496502Y-88123500D01*
X146498950Y-88123307D01*
X146498958Y-88123307D01*
X146527421Y-88121067D01*
X146527426Y-88121066D01*
X146533831Y-88120562D01*
X146633769Y-88091528D01*
X146685988Y-88076357D01*
X146685990Y-88076356D01*
X146693601Y-88074145D01*
X146749569Y-88041045D01*
X146813706Y-88023500D01*
X146971088Y-88023500D01*
X146979658Y-88023792D01*
X147029776Y-88027209D01*
X147029780Y-88027209D01*
X147037352Y-88027725D01*
X147044829Y-88026420D01*
X147044830Y-88026420D01*
X147071308Y-88021799D01*
X147100303Y-88016738D01*
X147106821Y-88015777D01*
X147170242Y-88008102D01*
X147177343Y-88005419D01*
X147179952Y-88004778D01*
X147196262Y-88000315D01*
X147198798Y-87999550D01*
X147206284Y-87998243D01*
X147264800Y-87972556D01*
X147270904Y-87970065D01*
X147323548Y-87950173D01*
X147323549Y-87950172D01*
X147330656Y-87947487D01*
X147336919Y-87943183D01*
X147339285Y-87941946D01*
X147354097Y-87933701D01*
X147356351Y-87932368D01*
X147363305Y-87929315D01*
X147414002Y-87890413D01*
X147419332Y-87886541D01*
X147465720Y-87854661D01*
X147465725Y-87854656D01*
X147471981Y-87850357D01*
X147513436Y-87803829D01*
X147518416Y-87798554D01*
X148934819Y-86382152D01*
X148997131Y-86348126D01*
X149067947Y-86353191D01*
X149124782Y-86395738D01*
X149149705Y-86463997D01*
X149150309Y-86474476D01*
X149151745Y-86484697D01*
X149198565Y-86692446D01*
X149201645Y-86702275D01*
X149281770Y-86899603D01*
X149286413Y-86908794D01*
X149397694Y-87090388D01*
X149403777Y-87098699D01*
X149543213Y-87259667D01*
X149550580Y-87266883D01*
X149714434Y-87402916D01*
X149722881Y-87408831D01*
X149906756Y-87516279D01*
X149916042Y-87520729D01*
X150115001Y-87596703D01*
X150124899Y-87599579D01*
X150228250Y-87620606D01*
X150242299Y-87619410D01*
X150246000Y-87609065D01*
X150246000Y-86162000D01*
X150266002Y-86093879D01*
X150319658Y-86047386D01*
X150372000Y-86036000D01*
X150628000Y-86036000D01*
X150696121Y-86056002D01*
G37*
%TD.AperFunction*%
%TA.AperFunction,Conductor*%
G36*
X126008527Y-99248502D02*
G01*
X126029501Y-99265405D01*
X126205863Y-99441767D01*
X126213407Y-99450057D01*
X126217520Y-99456538D01*
X126223297Y-99461963D01*
X126267187Y-99503178D01*
X126270029Y-99505933D01*
X126289750Y-99525654D01*
X126292945Y-99528132D01*
X126301967Y-99535838D01*
X126334199Y-99566106D01*
X126341148Y-99569926D01*
X126351952Y-99575866D01*
X126368476Y-99586719D01*
X126384479Y-99599133D01*
X126425063Y-99616696D01*
X126435693Y-99621903D01*
X126474460Y-99643215D01*
X126482137Y-99645186D01*
X126482142Y-99645188D01*
X126494078Y-99648252D01*
X126512786Y-99654657D01*
X126531375Y-99662701D01*
X126539200Y-99663940D01*
X126539202Y-99663941D01*
X126575039Y-99669617D01*
X126586660Y-99672024D01*
X126621809Y-99681048D01*
X126629490Y-99683020D01*
X126649751Y-99683020D01*
X126669460Y-99684571D01*
X126689463Y-99687739D01*
X126697355Y-99686993D01*
X126702582Y-99686499D01*
X126733474Y-99683579D01*
X126745331Y-99683020D01*
X137536251Y-99683020D01*
X137604372Y-99703022D01*
X137650865Y-99756678D01*
X137660969Y-99826952D01*
X137645370Y-99872020D01*
X137624001Y-99909033D01*
X137595473Y-99958444D01*
X137536458Y-100140072D01*
X137535768Y-100146633D01*
X137535768Y-100146635D01*
X137533488Y-100168331D01*
X137516496Y-100330000D01*
X137517186Y-100336565D01*
X137534659Y-100502807D01*
X137536458Y-100519928D01*
X137595473Y-100701556D01*
X137598777Y-100707279D01*
X137601461Y-100713307D01*
X137598915Y-100714441D01*
X137612756Y-100771497D01*
X137589534Y-100838589D01*
X137533727Y-100882475D01*
X137486899Y-100891500D01*
X123920261Y-100891500D01*
X123852140Y-100871498D01*
X123805647Y-100817842D01*
X123795543Y-100747568D01*
X123799702Y-100728872D01*
X123830379Y-100627903D01*
X123832555Y-100617837D01*
X123833986Y-100606962D01*
X123831775Y-100592778D01*
X123818617Y-100589000D01*
X122372000Y-100589000D01*
X122303879Y-100568998D01*
X122257386Y-100515342D01*
X122246000Y-100463000D01*
X122246000Y-99799500D01*
X122266002Y-99731379D01*
X122319658Y-99684886D01*
X122372000Y-99673500D01*
X122628000Y-99673500D01*
X122696121Y-99693502D01*
X122742614Y-99747158D01*
X122754000Y-99799500D01*
X122754000Y-100062885D01*
X122758475Y-100078124D01*
X122759865Y-100079329D01*
X122767548Y-100081000D01*
X123818344Y-100081000D01*
X123831875Y-100077027D01*
X123833180Y-100067947D01*
X123791214Y-99900875D01*
X123787894Y-99891124D01*
X123769901Y-99849742D01*
X123761081Y-99779296D01*
X123791748Y-99715264D01*
X123852164Y-99677976D01*
X123885451Y-99673500D01*
X124566676Y-99673500D01*
X124594163Y-99676535D01*
X124672167Y-99693972D01*
X124672172Y-99693972D01*
X124679909Y-99695702D01*
X124687835Y-99695453D01*
X124687836Y-99695453D01*
X124774493Y-99692729D01*
X124839889Y-99690673D01*
X124847501Y-99688461D01*
X124847504Y-99688461D01*
X124985980Y-99648230D01*
X124985982Y-99648229D01*
X124993593Y-99646018D01*
X125081090Y-99594273D01*
X125124541Y-99568576D01*
X125131362Y-99564542D01*
X125165683Y-99530221D01*
X125180717Y-99517380D01*
X125197107Y-99505472D01*
X125225298Y-99471395D01*
X125233288Y-99462616D01*
X125430499Y-99265405D01*
X125492811Y-99231379D01*
X125519594Y-99228500D01*
X125940406Y-99228500D01*
X126008527Y-99248502D01*
G37*
%TD.AperFunction*%
%TA.AperFunction,Conductor*%
G36*
X136278527Y-96538502D02*
G01*
X136299501Y-96555405D01*
X137945021Y-98200925D01*
X137979047Y-98263237D01*
X137973982Y-98334052D01*
X137931435Y-98390888D01*
X137864915Y-98415699D01*
X137855926Y-98416020D01*
X136293999Y-98416020D01*
X136225878Y-98396018D01*
X136179385Y-98342362D01*
X136167999Y-98290020D01*
X136167999Y-98211017D01*
X136167805Y-98206080D01*
X136165570Y-98177664D01*
X136163270Y-98165069D01*
X136120893Y-98019210D01*
X136114648Y-98004779D01*
X136038089Y-97875323D01*
X136032129Y-97867640D01*
X136006180Y-97801556D01*
X136020078Y-97731933D01*
X136030421Y-97715839D01*
X136034453Y-97711807D01*
X136119145Y-97568601D01*
X136135778Y-97511351D01*
X136163767Y-97415008D01*
X136165562Y-97408831D01*
X136168500Y-97371502D01*
X136168500Y-96938498D01*
X136168307Y-96936042D01*
X136166067Y-96907579D01*
X136166066Y-96907574D01*
X136165562Y-96901169D01*
X136119145Y-96741399D01*
X136099769Y-96708637D01*
X136082311Y-96639822D01*
X136104828Y-96572491D01*
X136160173Y-96528022D01*
X136208224Y-96518500D01*
X136210406Y-96518500D01*
X136278527Y-96538502D01*
G37*
%TD.AperFunction*%
%TA.AperFunction,Conductor*%
G36*
X122696121Y-97153502D02*
G01*
X122742614Y-97207158D01*
X122754000Y-97259500D01*
X122754000Y-97522885D01*
X122758475Y-97538124D01*
X122759865Y-97539329D01*
X122767548Y-97541000D01*
X123818344Y-97541000D01*
X123831875Y-97537027D01*
X123833180Y-97527947D01*
X123791214Y-97360875D01*
X123787894Y-97351124D01*
X123769901Y-97309742D01*
X123761081Y-97239296D01*
X123791748Y-97175264D01*
X123852164Y-97137976D01*
X123885451Y-97133500D01*
X124318968Y-97133500D01*
X124387089Y-97153502D01*
X124433582Y-97207158D01*
X124443686Y-97277432D01*
X124426227Y-97325617D01*
X124412885Y-97347262D01*
X124357203Y-97515139D01*
X124356503Y-97521975D01*
X124356502Y-97521978D01*
X124354700Y-97539570D01*
X124346500Y-97619600D01*
X124346500Y-98280500D01*
X124326498Y-98348621D01*
X124272842Y-98395114D01*
X124220500Y-98406500D01*
X123903550Y-98406500D01*
X123835429Y-98386498D01*
X123788936Y-98332842D01*
X123778832Y-98262568D01*
X123782992Y-98243871D01*
X123830377Y-98087910D01*
X123832555Y-98077837D01*
X123833986Y-98066962D01*
X123831775Y-98052778D01*
X123818617Y-98049000D01*
X122772115Y-98049000D01*
X122756876Y-98053475D01*
X122755671Y-98054865D01*
X122754000Y-98062548D01*
X122754000Y-98280500D01*
X122733998Y-98348621D01*
X122680342Y-98395114D01*
X122628000Y-98406500D01*
X122372000Y-98406500D01*
X122303879Y-98386498D01*
X122257386Y-98332842D01*
X122246000Y-98280500D01*
X122246000Y-97259500D01*
X122266002Y-97191379D01*
X122319658Y-97144886D01*
X122372000Y-97133500D01*
X122628000Y-97133500D01*
X122696121Y-97153502D01*
G37*
%TD.AperFunction*%
%TA.AperFunction,Conductor*%
G36*
X116401121Y-94633502D02*
G01*
X116447614Y-94687158D01*
X116459000Y-94739500D01*
X116459000Y-94977885D01*
X116463475Y-94993124D01*
X116464865Y-94994329D01*
X116472548Y-94996000D01*
X117523344Y-94996000D01*
X117536875Y-94992027D01*
X117538180Y-94982947D01*
X117496214Y-94815875D01*
X117492894Y-94806123D01*
X117485772Y-94789744D01*
X117476951Y-94719297D01*
X117507617Y-94655265D01*
X117568033Y-94617977D01*
X117601321Y-94613500D01*
X118563367Y-94613500D01*
X118631488Y-94633502D01*
X118677981Y-94687158D01*
X118688085Y-94757432D01*
X118682009Y-94781458D01*
X118680688Y-94784305D01*
X118620989Y-94999570D01*
X118597251Y-95221695D01*
X118597548Y-95226848D01*
X118597548Y-95226851D01*
X118608703Y-95420312D01*
X118610110Y-95444715D01*
X118611247Y-95449761D01*
X118611248Y-95449767D01*
X118632275Y-95543069D01*
X118659222Y-95662639D01*
X118661166Y-95667426D01*
X118661167Y-95667430D01*
X118671589Y-95693097D01*
X118678685Y-95763738D01*
X118646462Y-95827001D01*
X118585152Y-95862801D01*
X118554846Y-95866500D01*
X117607031Y-95866500D01*
X117538910Y-95846498D01*
X117492417Y-95792842D01*
X117482313Y-95722568D01*
X117486473Y-95703871D01*
X117535377Y-95542910D01*
X117537555Y-95532837D01*
X117538986Y-95521962D01*
X117536775Y-95507778D01*
X117523617Y-95504000D01*
X116077000Y-95504000D01*
X116008879Y-95483998D01*
X115962386Y-95430342D01*
X115951000Y-95378000D01*
X115951000Y-94739500D01*
X115971002Y-94671379D01*
X116024658Y-94624886D01*
X116077000Y-94613500D01*
X116333000Y-94613500D01*
X116401121Y-94633502D01*
G37*
%TD.AperFunction*%
%TA.AperFunction,Conductor*%
G36*
X122696121Y-94633502D02*
G01*
X122742614Y-94687158D01*
X122754000Y-94739500D01*
X122754000Y-94982885D01*
X122758475Y-94998124D01*
X122759865Y-94999329D01*
X122767548Y-95001000D01*
X123818344Y-95001000D01*
X123831875Y-94997027D01*
X123833180Y-94987947D01*
X123791214Y-94820875D01*
X123787893Y-94811118D01*
X123778598Y-94789743D01*
X123769777Y-94719297D01*
X123800443Y-94655265D01*
X123860859Y-94617977D01*
X123894147Y-94613500D01*
X124220500Y-94613500D01*
X124288621Y-94633502D01*
X124335114Y-94687158D01*
X124346500Y-94739500D01*
X124346500Y-95420400D01*
X124346837Y-95423646D01*
X124346837Y-95423650D01*
X124356085Y-95512778D01*
X124357474Y-95526166D01*
X124359655Y-95532702D01*
X124359655Y-95532704D01*
X124360246Y-95534475D01*
X124411162Y-95687087D01*
X124411162Y-95687089D01*
X124413450Y-95693946D01*
X124412276Y-95694338D01*
X124421939Y-95757227D01*
X124393071Y-95822089D01*
X124333718Y-95861048D01*
X124297054Y-95866500D01*
X123903550Y-95866500D01*
X123835429Y-95846498D01*
X123788936Y-95792842D01*
X123778832Y-95722568D01*
X123782992Y-95703871D01*
X123830377Y-95547910D01*
X123832555Y-95537837D01*
X123833986Y-95526962D01*
X123831775Y-95512778D01*
X123818617Y-95509000D01*
X122772115Y-95509000D01*
X122756876Y-95513475D01*
X122755671Y-95514865D01*
X122754000Y-95522548D01*
X122754000Y-95740500D01*
X122733998Y-95808621D01*
X122680342Y-95855114D01*
X122628000Y-95866500D01*
X122372000Y-95866500D01*
X122303879Y-95846498D01*
X122257386Y-95792842D01*
X122246000Y-95740500D01*
X122246000Y-94739500D01*
X122266002Y-94671379D01*
X122319658Y-94624886D01*
X122372000Y-94613500D01*
X122628000Y-94613500D01*
X122696121Y-94633502D01*
G37*
%TD.AperFunction*%
%TA.AperFunction,Conductor*%
G36*
X129917012Y-82273370D02*
G01*
X129923595Y-82279499D01*
X131236343Y-83592247D01*
X131243887Y-83600537D01*
X131248000Y-83607018D01*
X131253777Y-83612443D01*
X131297667Y-83653658D01*
X131300509Y-83656413D01*
X131320230Y-83676134D01*
X131323425Y-83678612D01*
X131332447Y-83686318D01*
X131364679Y-83716586D01*
X131371628Y-83720406D01*
X131382432Y-83726346D01*
X131398956Y-83737199D01*
X131414959Y-83749613D01*
X131455543Y-83767176D01*
X131466173Y-83772383D01*
X131504940Y-83793695D01*
X131512617Y-83795666D01*
X131512622Y-83795668D01*
X131524558Y-83798732D01*
X131543266Y-83805137D01*
X131561855Y-83813181D01*
X131569683Y-83814421D01*
X131569690Y-83814423D01*
X131605524Y-83820099D01*
X131617144Y-83822505D01*
X131652289Y-83831528D01*
X131659970Y-83833500D01*
X131680224Y-83833500D01*
X131699934Y-83835051D01*
X131719943Y-83838220D01*
X131727835Y-83837474D01*
X131763961Y-83834059D01*
X131775819Y-83833500D01*
X139756404Y-83833500D01*
X139824525Y-83853502D01*
X139871018Y-83907158D01*
X139881122Y-83977432D01*
X139851628Y-84042012D01*
X139845499Y-84048595D01*
X139749499Y-84144595D01*
X139687187Y-84178621D01*
X139660404Y-84181500D01*
X139604513Y-84181500D01*
X139598061Y-84182872D01*
X139598056Y-84182872D01*
X139511112Y-84201353D01*
X139417712Y-84221206D01*
X139411682Y-84223891D01*
X139411681Y-84223891D01*
X139249278Y-84296197D01*
X139249276Y-84296198D01*
X139243248Y-84298882D01*
X139088747Y-84411134D01*
X139084326Y-84416044D01*
X139084325Y-84416045D01*
X138973350Y-84539296D01*
X138960960Y-84553056D01*
X138865473Y-84718444D01*
X138806458Y-84900072D01*
X138805768Y-84906633D01*
X138805768Y-84906635D01*
X138794500Y-85013847D01*
X138786496Y-85090000D01*
X138787186Y-85096565D01*
X138798951Y-85208499D01*
X138806458Y-85279928D01*
X138865473Y-85461556D01*
X138868776Y-85467278D01*
X138868777Y-85467279D01*
X138894940Y-85512594D01*
X138960960Y-85626944D01*
X138965378Y-85631851D01*
X138965379Y-85631852D01*
X139080350Y-85759540D01*
X139088747Y-85768866D01*
X139119731Y-85791377D01*
X139227376Y-85869586D01*
X139243248Y-85881118D01*
X139249276Y-85883802D01*
X139249278Y-85883803D01*
X139339902Y-85924151D01*
X139417712Y-85958794D01*
X139489086Y-85973965D01*
X139598056Y-85997128D01*
X139598061Y-85997128D01*
X139604513Y-85998500D01*
X139795487Y-85998500D01*
X139801939Y-85997128D01*
X139801944Y-85997128D01*
X139910914Y-85973965D01*
X139982288Y-85958794D01*
X140060098Y-85924151D01*
X140150722Y-85883803D01*
X140150724Y-85883802D01*
X140156752Y-85881118D01*
X140172625Y-85869586D01*
X140280269Y-85791377D01*
X140311253Y-85768866D01*
X140319650Y-85759540D01*
X140434621Y-85631852D01*
X140434622Y-85631851D01*
X140439040Y-85626944D01*
X140505060Y-85512594D01*
X140531223Y-85467279D01*
X140531224Y-85467278D01*
X140534527Y-85461556D01*
X140593542Y-85279928D01*
X140610907Y-85114706D01*
X140637920Y-85049050D01*
X140647122Y-85038782D01*
X140660989Y-85024915D01*
X140723301Y-84990889D01*
X140794116Y-84995954D01*
X140839179Y-85024915D01*
X140852920Y-85038656D01*
X140966824Y-85126059D01*
X140981007Y-85134247D01*
X141113650Y-85189190D01*
X141129468Y-85193428D01*
X141236066Y-85207462D01*
X141244275Y-85208000D01*
X141371189Y-85208000D01*
X141439310Y-85228002D01*
X141485803Y-85281658D01*
X141495907Y-85351932D01*
X141466413Y-85416512D01*
X141460284Y-85423095D01*
X136767747Y-90115632D01*
X136759461Y-90123172D01*
X136752982Y-90127284D01*
X136747557Y-90133061D01*
X136706357Y-90176935D01*
X136703602Y-90179777D01*
X136683865Y-90199514D01*
X136682336Y-90201485D01*
X136622560Y-90239179D01*
X136551566Y-90238569D01*
X136499084Y-90207155D01*
X136488171Y-90196261D01*
X136476760Y-90187249D01*
X136338757Y-90102184D01*
X136325576Y-90096037D01*
X136171290Y-90044862D01*
X136157914Y-90041995D01*
X136063562Y-90032328D01*
X136057145Y-90032000D01*
X135869615Y-90032000D01*
X135854376Y-90036475D01*
X135853171Y-90037865D01*
X135851500Y-90045548D01*
X135851500Y-92829884D01*
X135855975Y-92845123D01*
X135857365Y-92846328D01*
X135865048Y-92847999D01*
X136057095Y-92847999D01*
X136063614Y-92847662D01*
X136159206Y-92837743D01*
X136172600Y-92834851D01*
X136326784Y-92783412D01*
X136346583Y-92774137D01*
X136347939Y-92777032D01*
X136402600Y-92761968D01*
X136470378Y-92783102D01*
X136515970Y-92837525D01*
X136526500Y-92887950D01*
X136526500Y-94935405D01*
X136506498Y-95003526D01*
X136489595Y-95024501D01*
X136299499Y-95214596D01*
X136237187Y-95248621D01*
X136210404Y-95251500D01*
X136208224Y-95251500D01*
X136140103Y-95231498D01*
X136093610Y-95177842D01*
X136083506Y-95107568D01*
X136099769Y-95061364D01*
X136119145Y-95028601D01*
X136165562Y-94868831D01*
X136167351Y-94846109D01*
X136168307Y-94833958D01*
X136168307Y-94833950D01*
X136168500Y-94831502D01*
X136168500Y-94398498D01*
X136168307Y-94396042D01*
X136166067Y-94367579D01*
X136166066Y-94367574D01*
X136165562Y-94361169D01*
X136119145Y-94201399D01*
X136070480Y-94119111D01*
X136038491Y-94065020D01*
X136038489Y-94065017D01*
X136034453Y-94058193D01*
X135916807Y-93940547D01*
X135909983Y-93936511D01*
X135909980Y-93936509D01*
X135780427Y-93859892D01*
X135780428Y-93859892D01*
X135773601Y-93855855D01*
X135765990Y-93853644D01*
X135765988Y-93853643D01*
X135685625Y-93830296D01*
X135613831Y-93809438D01*
X135607426Y-93808934D01*
X135607421Y-93808933D01*
X135578958Y-93806693D01*
X135578950Y-93806693D01*
X135576502Y-93806500D01*
X134824595Y-93806500D01*
X134756474Y-93786498D01*
X134735500Y-93769595D01*
X134553652Y-93587747D01*
X134546112Y-93579461D01*
X134542000Y-93572982D01*
X134492348Y-93526356D01*
X134489507Y-93523602D01*
X134469770Y-93503865D01*
X134466573Y-93501385D01*
X134457551Y-93493680D01*
X134431100Y-93468841D01*
X134425321Y-93463414D01*
X134418375Y-93459595D01*
X134418372Y-93459593D01*
X134407566Y-93453652D01*
X134391047Y-93442801D01*
X134385048Y-93438148D01*
X134375041Y-93430386D01*
X134367772Y-93427241D01*
X134367768Y-93427238D01*
X134334463Y-93412826D01*
X134323813Y-93407609D01*
X134285060Y-93386305D01*
X134274615Y-93383623D01*
X134265438Y-93381267D01*
X134246734Y-93374863D01*
X134235420Y-93369967D01*
X134235419Y-93369967D01*
X134228145Y-93366819D01*
X134220322Y-93365580D01*
X134220312Y-93365577D01*
X134184476Y-93359901D01*
X134172856Y-93357495D01*
X134137711Y-93348472D01*
X134137710Y-93348472D01*
X134130030Y-93346500D01*
X134109776Y-93346500D01*
X134090065Y-93344949D01*
X134077886Y-93343020D01*
X134070057Y-93341780D01*
X134062165Y-93342526D01*
X134026039Y-93345941D01*
X134014181Y-93346500D01*
X132788200Y-93346500D01*
X132720079Y-93326498D01*
X132700853Y-93310157D01*
X132700580Y-93310460D01*
X132695668Y-93306037D01*
X132691253Y-93301134D01*
X132536752Y-93188882D01*
X132530724Y-93186198D01*
X132530722Y-93186197D01*
X132368319Y-93113891D01*
X132368318Y-93113891D01*
X132362288Y-93111206D01*
X132256529Y-93088726D01*
X132181944Y-93072872D01*
X132181939Y-93072872D01*
X132175487Y-93071500D01*
X131984513Y-93071500D01*
X131978061Y-93072872D01*
X131978056Y-93072872D01*
X131903471Y-93088726D01*
X131797712Y-93111206D01*
X131791682Y-93113891D01*
X131791681Y-93113891D01*
X131629278Y-93186197D01*
X131629276Y-93186198D01*
X131623248Y-93188882D01*
X131468747Y-93301134D01*
X131464326Y-93306044D01*
X131464325Y-93306045D01*
X131355203Y-93427238D01*
X131340960Y-93443056D01*
X131326073Y-93468841D01*
X131274001Y-93559033D01*
X131245473Y-93608444D01*
X131186458Y-93790072D01*
X131185768Y-93796633D01*
X131185768Y-93796635D01*
X131174012Y-93908491D01*
X131166496Y-93980000D01*
X131167186Y-93986565D01*
X131184081Y-94147309D01*
X131186458Y-94169928D01*
X131245473Y-94351556D01*
X131248776Y-94357278D01*
X131248777Y-94357279D01*
X131268903Y-94392138D01*
X131340960Y-94516944D01*
X131468747Y-94658866D01*
X131623248Y-94771118D01*
X131629276Y-94773802D01*
X131629278Y-94773803D01*
X131791681Y-94846109D01*
X131797712Y-94848794D01*
X131861822Y-94862421D01*
X131978056Y-94887128D01*
X131978061Y-94887128D01*
X131984513Y-94888500D01*
X132175487Y-94888500D01*
X132181939Y-94887128D01*
X132181944Y-94887128D01*
X132298178Y-94862421D01*
X132362288Y-94848794D01*
X132368319Y-94846109D01*
X132530722Y-94773803D01*
X132530724Y-94773802D01*
X132536752Y-94771118D01*
X132691253Y-94658866D01*
X132695668Y-94653963D01*
X132700580Y-94649540D01*
X132701705Y-94650789D01*
X132755014Y-94617949D01*
X132788200Y-94613500D01*
X133075500Y-94613500D01*
X133143621Y-94633502D01*
X133190114Y-94687158D01*
X133201500Y-94739500D01*
X133201500Y-94831502D01*
X133201693Y-94833950D01*
X133201693Y-94833958D01*
X133202650Y-94846109D01*
X133204438Y-94868831D01*
X133250855Y-95028601D01*
X133335547Y-95171807D01*
X133338229Y-95174489D01*
X133363502Y-95238861D01*
X133349600Y-95308484D01*
X133339428Y-95324312D01*
X133335547Y-95328193D01*
X133250855Y-95471399D01*
X133248644Y-95479010D01*
X133248643Y-95479012D01*
X133246886Y-95485060D01*
X133204438Y-95631169D01*
X133203934Y-95637574D01*
X133203933Y-95637579D01*
X133202020Y-95661885D01*
X133201500Y-95668498D01*
X133201500Y-95740500D01*
X133181498Y-95808621D01*
X133127842Y-95855114D01*
X133075500Y-95866500D01*
X127162933Y-95866500D01*
X127094812Y-95846498D01*
X127048319Y-95792842D01*
X127038215Y-95722568D01*
X127047093Y-95692773D01*
X127047115Y-95692738D01*
X127054336Y-95670968D01*
X127100632Y-95531389D01*
X127100632Y-95531387D01*
X127102797Y-95524861D01*
X127104548Y-95507778D01*
X127110715Y-95447581D01*
X127113500Y-95420400D01*
X127113500Y-94519600D01*
X127112631Y-94511226D01*
X127103238Y-94420692D01*
X127103237Y-94420688D01*
X127102526Y-94413834D01*
X127097410Y-94398498D01*
X127048868Y-94253002D01*
X127046550Y-94246054D01*
X126953478Y-94095652D01*
X126828303Y-93970695D01*
X126777433Y-93939338D01*
X126683968Y-93881725D01*
X126683966Y-93881724D01*
X126677738Y-93877885D01*
X126534261Y-93830296D01*
X126516389Y-93824368D01*
X126516387Y-93824368D01*
X126509861Y-93822203D01*
X126503025Y-93821503D01*
X126503022Y-93821502D01*
X126459969Y-93817091D01*
X126405400Y-93811500D01*
X125519595Y-93811500D01*
X125451474Y-93791498D01*
X125430500Y-93774595D01*
X125243652Y-93587747D01*
X125236112Y-93579461D01*
X125232000Y-93572982D01*
X125182348Y-93526356D01*
X125179507Y-93523602D01*
X125159770Y-93503865D01*
X125156573Y-93501385D01*
X125147551Y-93493680D01*
X125121100Y-93468841D01*
X125115321Y-93463414D01*
X125108375Y-93459595D01*
X125108372Y-93459593D01*
X125097566Y-93453652D01*
X125081047Y-93442801D01*
X125075048Y-93438148D01*
X125065041Y-93430386D01*
X125057772Y-93427241D01*
X125057768Y-93427238D01*
X125024463Y-93412826D01*
X125013813Y-93407609D01*
X124975060Y-93386305D01*
X124964615Y-93383623D01*
X124955438Y-93381267D01*
X124936734Y-93374863D01*
X124925420Y-93369967D01*
X124925419Y-93369967D01*
X124918145Y-93366819D01*
X124910322Y-93365580D01*
X124910312Y-93365577D01*
X124874476Y-93359901D01*
X124862856Y-93357495D01*
X124827711Y-93348472D01*
X124827710Y-93348472D01*
X124820030Y-93346500D01*
X124799776Y-93346500D01*
X124780065Y-93344949D01*
X124767886Y-93343020D01*
X124760057Y-93341780D01*
X124752165Y-93342526D01*
X124716039Y-93345941D01*
X124704181Y-93346500D01*
X123897474Y-93346500D01*
X123829353Y-93326498D01*
X123782860Y-93272842D01*
X123772756Y-93202568D01*
X123776915Y-93183872D01*
X123830379Y-93007903D01*
X123832555Y-92997837D01*
X123833986Y-92986962D01*
X123831775Y-92972778D01*
X123818617Y-92969000D01*
X122772115Y-92969000D01*
X122756876Y-92973475D01*
X122755671Y-92974865D01*
X122754000Y-92982548D01*
X122754000Y-93220500D01*
X122733998Y-93288621D01*
X122680342Y-93335114D01*
X122628000Y-93346500D01*
X122372000Y-93346500D01*
X122303879Y-93326498D01*
X122257386Y-93272842D01*
X122246000Y-93220500D01*
X122246000Y-92442885D01*
X122754000Y-92442885D01*
X122758475Y-92458124D01*
X122759865Y-92459329D01*
X122767548Y-92461000D01*
X123818344Y-92461000D01*
X123831875Y-92457027D01*
X123833180Y-92447947D01*
X123791214Y-92280875D01*
X123787894Y-92271124D01*
X123729617Y-92137095D01*
X134427001Y-92137095D01*
X134427338Y-92143614D01*
X134437257Y-92239206D01*
X134440149Y-92252600D01*
X134491588Y-92406784D01*
X134497761Y-92419962D01*
X134583063Y-92557807D01*
X134592099Y-92569208D01*
X134706829Y-92683739D01*
X134718240Y-92692751D01*
X134856243Y-92777816D01*
X134869424Y-92783963D01*
X135023710Y-92835138D01*
X135037086Y-92838005D01*
X135131438Y-92847672D01*
X135137854Y-92848000D01*
X135325385Y-92848000D01*
X135340624Y-92843525D01*
X135341829Y-92842135D01*
X135343500Y-92834452D01*
X135343500Y-91712115D01*
X135339025Y-91696876D01*
X135337635Y-91695671D01*
X135329952Y-91694000D01*
X134445116Y-91694000D01*
X134429877Y-91698475D01*
X134428672Y-91699865D01*
X134427001Y-91707548D01*
X134427001Y-92137095D01*
X123729617Y-92137095D01*
X123702972Y-92075814D01*
X123698105Y-92066739D01*
X123582426Y-91887926D01*
X123576136Y-91879757D01*
X123432806Y-91722240D01*
X123425273Y-91715215D01*
X123258139Y-91583222D01*
X123249552Y-91577517D01*
X123212116Y-91556851D01*
X123162146Y-91506419D01*
X123147374Y-91436976D01*
X123172490Y-91370571D01*
X123199842Y-91343964D01*
X123375327Y-91218792D01*
X123383200Y-91212139D01*
X123534052Y-91061812D01*
X123540730Y-91053965D01*
X123665003Y-90881020D01*
X123670313Y-90872183D01*
X123764670Y-90681267D01*
X123768469Y-90671672D01*
X123830377Y-90467910D01*
X123832555Y-90457837D01*
X123833986Y-90446962D01*
X123831775Y-90432778D01*
X123818617Y-90429000D01*
X122772115Y-90429000D01*
X122756876Y-90433475D01*
X122755671Y-90434865D01*
X122754000Y-90442548D01*
X122754000Y-92442885D01*
X122246000Y-92442885D01*
X122246000Y-89902885D01*
X122754000Y-89902885D01*
X122758475Y-89918124D01*
X122759865Y-89919329D01*
X122767548Y-89921000D01*
X123818344Y-89921000D01*
X123831875Y-89917027D01*
X123833180Y-89907947D01*
X123791214Y-89740875D01*
X123787894Y-89731124D01*
X123702972Y-89535814D01*
X123698105Y-89526739D01*
X123582426Y-89347926D01*
X123576136Y-89339757D01*
X123432806Y-89182240D01*
X123425273Y-89175215D01*
X123258139Y-89043222D01*
X123249552Y-89037517D01*
X123212116Y-89016851D01*
X123162146Y-88966419D01*
X123147374Y-88896976D01*
X123172490Y-88830571D01*
X123199842Y-88803964D01*
X123375327Y-88678792D01*
X123383200Y-88672139D01*
X123534052Y-88521812D01*
X123540730Y-88513965D01*
X123665003Y-88341020D01*
X123670313Y-88332183D01*
X123764670Y-88141267D01*
X123768469Y-88131672D01*
X123830377Y-87927910D01*
X123832555Y-87917837D01*
X123833986Y-87906962D01*
X123831775Y-87892778D01*
X123818617Y-87889000D01*
X122772115Y-87889000D01*
X122756876Y-87893475D01*
X122755671Y-87894865D01*
X122754000Y-87902548D01*
X122754000Y-89902885D01*
X122246000Y-89902885D01*
X122246000Y-87362885D01*
X122754000Y-87362885D01*
X122758475Y-87378124D01*
X122759865Y-87379329D01*
X122767548Y-87381000D01*
X123818344Y-87381000D01*
X123831875Y-87377027D01*
X123833180Y-87367947D01*
X123791214Y-87200875D01*
X123787894Y-87191124D01*
X123702972Y-86995814D01*
X123698105Y-86986739D01*
X123582426Y-86807926D01*
X123576136Y-86799757D01*
X123432806Y-86642240D01*
X123425273Y-86635215D01*
X123258139Y-86503222D01*
X123249552Y-86497517D01*
X123212116Y-86476851D01*
X123162146Y-86426419D01*
X123147374Y-86356976D01*
X123172490Y-86290571D01*
X123199842Y-86263964D01*
X123375327Y-86138792D01*
X123383200Y-86132139D01*
X123534052Y-85981812D01*
X123540730Y-85973965D01*
X123665003Y-85801020D01*
X123670313Y-85792183D01*
X123764670Y-85601267D01*
X123768469Y-85591672D01*
X123830377Y-85387910D01*
X123832555Y-85377837D01*
X123833986Y-85366962D01*
X123831775Y-85352778D01*
X123818617Y-85349000D01*
X122772115Y-85349000D01*
X122756876Y-85353475D01*
X122755671Y-85354865D01*
X122754000Y-85362548D01*
X122754000Y-87362885D01*
X122246000Y-87362885D01*
X122246000Y-84559500D01*
X122266002Y-84491379D01*
X122319658Y-84444886D01*
X122372000Y-84433500D01*
X122628000Y-84433500D01*
X122696121Y-84453502D01*
X122742614Y-84507158D01*
X122754000Y-84559500D01*
X122754000Y-84822885D01*
X122758475Y-84838124D01*
X122759865Y-84839329D01*
X122767548Y-84841000D01*
X123818344Y-84841000D01*
X123831875Y-84837027D01*
X123833180Y-84827947D01*
X123791214Y-84660875D01*
X123787894Y-84651124D01*
X123769901Y-84609742D01*
X123761081Y-84539296D01*
X123791748Y-84475264D01*
X123852164Y-84437976D01*
X123885451Y-84433500D01*
X127106676Y-84433500D01*
X127134163Y-84436535D01*
X127212167Y-84453972D01*
X127212172Y-84453972D01*
X127219909Y-84455702D01*
X127227835Y-84455453D01*
X127227836Y-84455453D01*
X127314493Y-84452729D01*
X127379889Y-84450673D01*
X127387501Y-84448461D01*
X127387504Y-84448461D01*
X127525980Y-84408230D01*
X127525982Y-84408229D01*
X127533593Y-84406018D01*
X127671362Y-84324542D01*
X127705683Y-84290221D01*
X127720717Y-84277380D01*
X127730694Y-84270131D01*
X127737107Y-84265472D01*
X127765298Y-84231395D01*
X127773288Y-84222616D01*
X128025499Y-83970405D01*
X128087811Y-83936379D01*
X128114594Y-83933500D01*
X128985406Y-83933500D01*
X129053527Y-83953502D01*
X129074501Y-83970405D01*
X130586343Y-85482247D01*
X130593887Y-85490537D01*
X130598000Y-85497018D01*
X130603777Y-85502443D01*
X130647667Y-85543658D01*
X130650509Y-85546413D01*
X130670230Y-85566134D01*
X130673425Y-85568612D01*
X130682447Y-85576318D01*
X130714679Y-85606586D01*
X130721628Y-85610406D01*
X130732432Y-85616346D01*
X130748949Y-85627195D01*
X130754416Y-85631435D01*
X130795987Y-85688988D01*
X130799843Y-85759880D01*
X130764759Y-85821603D01*
X130701876Y-85854560D01*
X130677197Y-85857000D01*
X126333208Y-85857000D01*
X126312304Y-85855254D01*
X126304737Y-85853981D01*
X126292540Y-85851929D01*
X126286242Y-85851852D01*
X126284861Y-85851835D01*
X126284857Y-85851835D01*
X126280001Y-85851776D01*
X126268040Y-85853489D01*
X126261171Y-85854281D01*
X126183636Y-85861065D01*
X126080763Y-85870065D01*
X126075449Y-85871489D01*
X126075448Y-85871489D01*
X125892888Y-85920405D01*
X125892886Y-85920406D01*
X125887578Y-85921828D01*
X125882597Y-85924151D01*
X125882596Y-85924151D01*
X125711304Y-86004025D01*
X125711299Y-86004028D01*
X125706317Y-86006351D01*
X125701810Y-86009507D01*
X125701808Y-86009508D01*
X125546998Y-86117907D01*
X125546995Y-86117909D01*
X125542487Y-86121066D01*
X125401066Y-86262487D01*
X125397909Y-86266995D01*
X125397907Y-86266998D01*
X125289508Y-86421808D01*
X125286351Y-86426317D01*
X125284028Y-86431299D01*
X125284025Y-86431304D01*
X125224064Y-86559892D01*
X125201828Y-86607578D01*
X125200406Y-86612886D01*
X125200405Y-86612888D01*
X125157312Y-86773717D01*
X125150065Y-86800763D01*
X125149586Y-86806243D01*
X125149584Y-86806255D01*
X125136117Y-86960170D01*
X125134853Y-86970080D01*
X125131929Y-86987462D01*
X125131776Y-87000001D01*
X125132466Y-87004816D01*
X125135727Y-87027589D01*
X125137000Y-87045452D01*
X125137000Y-90756792D01*
X125135254Y-90777696D01*
X125131929Y-90797460D01*
X125131776Y-90809999D01*
X125133488Y-90821952D01*
X125134281Y-90828829D01*
X125136886Y-90858601D01*
X125150065Y-91009237D01*
X125151489Y-91014551D01*
X125151489Y-91014552D01*
X125193798Y-91172452D01*
X125201828Y-91202422D01*
X125204149Y-91207400D01*
X125204150Y-91207402D01*
X125284025Y-91378696D01*
X125284028Y-91378701D01*
X125286351Y-91383683D01*
X125289507Y-91388190D01*
X125289508Y-91388192D01*
X125379469Y-91516669D01*
X125401066Y-91547513D01*
X125542487Y-91688934D01*
X125546995Y-91692091D01*
X125546998Y-91692093D01*
X125701808Y-91800492D01*
X125706317Y-91803649D01*
X125711299Y-91805972D01*
X125711304Y-91805975D01*
X125865710Y-91877975D01*
X125887578Y-91888172D01*
X125892886Y-91889594D01*
X125892888Y-91889595D01*
X126012525Y-91921651D01*
X126080763Y-91939935D01*
X126086249Y-91940415D01*
X126086255Y-91940416D01*
X126240170Y-91953883D01*
X126250080Y-91955147D01*
X126267462Y-91958071D01*
X126273843Y-91958149D01*
X126275142Y-91958165D01*
X126275146Y-91958165D01*
X126280001Y-91958224D01*
X126307589Y-91954273D01*
X126325452Y-91953000D01*
X132576792Y-91953000D01*
X132597696Y-91954746D01*
X132617460Y-91958071D01*
X132623758Y-91958148D01*
X132625139Y-91958165D01*
X132625143Y-91958165D01*
X132629999Y-91958224D01*
X132641960Y-91956511D01*
X132648829Y-91955719D01*
X132726364Y-91948935D01*
X132829237Y-91939935D01*
X132897475Y-91921651D01*
X133017112Y-91889595D01*
X133017114Y-91889594D01*
X133022422Y-91888172D01*
X133044290Y-91877975D01*
X133198696Y-91805975D01*
X133198701Y-91805972D01*
X133203683Y-91803649D01*
X133208192Y-91800492D01*
X133363002Y-91692093D01*
X133363005Y-91692091D01*
X133367513Y-91688934D01*
X133508934Y-91547513D01*
X133530532Y-91516669D01*
X133620492Y-91388192D01*
X133620493Y-91388190D01*
X133623649Y-91383683D01*
X133625972Y-91378701D01*
X133625975Y-91378696D01*
X133705850Y-91207402D01*
X133705851Y-91207400D01*
X133708172Y-91202422D01*
X133716203Y-91172452D01*
X133717427Y-91167885D01*
X134427000Y-91167885D01*
X134431475Y-91183124D01*
X134432865Y-91184329D01*
X134440548Y-91186000D01*
X135325385Y-91186000D01*
X135340624Y-91181525D01*
X135341829Y-91180135D01*
X135343500Y-91172452D01*
X135343500Y-90050116D01*
X135339025Y-90034877D01*
X135337635Y-90033672D01*
X135329952Y-90032001D01*
X135137905Y-90032001D01*
X135131386Y-90032338D01*
X135035794Y-90042257D01*
X135022400Y-90045149D01*
X134868216Y-90096588D01*
X134855038Y-90102761D01*
X134717193Y-90188063D01*
X134705792Y-90197099D01*
X134591261Y-90311829D01*
X134582249Y-90323240D01*
X134497184Y-90461243D01*
X134491037Y-90474424D01*
X134439862Y-90628710D01*
X134436995Y-90642086D01*
X134427328Y-90736438D01*
X134427000Y-90742855D01*
X134427000Y-91167885D01*
X133717427Y-91167885D01*
X133758511Y-91014552D01*
X133758511Y-91014551D01*
X133759935Y-91009237D01*
X133760415Y-91003751D01*
X133760416Y-91003745D01*
X133773883Y-90849830D01*
X133775148Y-90839912D01*
X133778071Y-90822538D01*
X133778224Y-90809999D01*
X133774273Y-90782411D01*
X133773000Y-90764548D01*
X133773000Y-87053208D01*
X133774746Y-87032304D01*
X133777264Y-87017336D01*
X133778071Y-87012540D01*
X133778224Y-87000001D01*
X133776511Y-86988040D01*
X133775719Y-86981171D01*
X133768935Y-86903636D01*
X133759935Y-86800763D01*
X133752688Y-86773717D01*
X133709595Y-86612888D01*
X133709594Y-86612886D01*
X133708172Y-86607578D01*
X133685936Y-86559892D01*
X133625975Y-86431304D01*
X133625972Y-86431299D01*
X133623649Y-86426317D01*
X133620492Y-86421808D01*
X133512093Y-86266998D01*
X133512091Y-86266995D01*
X133508934Y-86262487D01*
X133367513Y-86121066D01*
X133363005Y-86117909D01*
X133363002Y-86117907D01*
X133208192Y-86009508D01*
X133208190Y-86009507D01*
X133203683Y-86006351D01*
X133198695Y-86004025D01*
X133198692Y-86004023D01*
X133112207Y-85963695D01*
X133058921Y-85916778D01*
X133039460Y-85848501D01*
X133060002Y-85780541D01*
X133114024Y-85734475D01*
X133165456Y-85723500D01*
X134546800Y-85723500D01*
X134614921Y-85743502D01*
X134634147Y-85759843D01*
X134634420Y-85759540D01*
X134639332Y-85763963D01*
X134643747Y-85768866D01*
X134659816Y-85780541D01*
X134782376Y-85869586D01*
X134798248Y-85881118D01*
X134804276Y-85883802D01*
X134804278Y-85883803D01*
X134894902Y-85924151D01*
X134972712Y-85958794D01*
X135044086Y-85973965D01*
X135153056Y-85997128D01*
X135153061Y-85997128D01*
X135159513Y-85998500D01*
X135350487Y-85998500D01*
X135356939Y-85997128D01*
X135356944Y-85997128D01*
X135465914Y-85973965D01*
X135537288Y-85958794D01*
X135615098Y-85924151D01*
X135705722Y-85883803D01*
X135705724Y-85883802D01*
X135711752Y-85881118D01*
X135727625Y-85869586D01*
X135835269Y-85791377D01*
X135866253Y-85768866D01*
X135874650Y-85759540D01*
X135989621Y-85631852D01*
X135989622Y-85631851D01*
X135994040Y-85626944D01*
X136060060Y-85512594D01*
X136086223Y-85467279D01*
X136086224Y-85467278D01*
X136089527Y-85461556D01*
X136148542Y-85279928D01*
X136156050Y-85208499D01*
X136167814Y-85096565D01*
X136168504Y-85090000D01*
X136160500Y-85013847D01*
X136149232Y-84906635D01*
X136149232Y-84906633D01*
X136148542Y-84900072D01*
X136089527Y-84718444D01*
X135994040Y-84553056D01*
X135981651Y-84539296D01*
X135870675Y-84416045D01*
X135870674Y-84416044D01*
X135866253Y-84411134D01*
X135711752Y-84298882D01*
X135705724Y-84296198D01*
X135705722Y-84296197D01*
X135543319Y-84223891D01*
X135543318Y-84223891D01*
X135537288Y-84221206D01*
X135443888Y-84201353D01*
X135356944Y-84182872D01*
X135356939Y-84182872D01*
X135350487Y-84181500D01*
X135159513Y-84181500D01*
X135153061Y-84182872D01*
X135153056Y-84182872D01*
X135066112Y-84201353D01*
X134972712Y-84221206D01*
X134966682Y-84223891D01*
X134966681Y-84223891D01*
X134804278Y-84296197D01*
X134804276Y-84296198D01*
X134798248Y-84298882D01*
X134792907Y-84302762D01*
X134792906Y-84302763D01*
X134665329Y-84395454D01*
X134643747Y-84411134D01*
X134639332Y-84416037D01*
X134634420Y-84420460D01*
X134633295Y-84419211D01*
X134579986Y-84452051D01*
X134546800Y-84456500D01*
X131404595Y-84456500D01*
X131336474Y-84436498D01*
X131315500Y-84419595D01*
X129745405Y-82849500D01*
X129711379Y-82787188D01*
X129708500Y-82760405D01*
X129708500Y-82368594D01*
X129728502Y-82300473D01*
X129782158Y-82253980D01*
X129852432Y-82243876D01*
X129917012Y-82273370D01*
G37*
%TD.AperFunction*%
%TA.AperFunction,Conductor*%
G36*
X116401121Y-92093502D02*
G01*
X116447614Y-92147158D01*
X116459000Y-92199500D01*
X116459000Y-92437885D01*
X116463475Y-92453124D01*
X116464865Y-92454329D01*
X116472548Y-92456000D01*
X117523344Y-92456000D01*
X117536875Y-92452027D01*
X117538180Y-92442947D01*
X117496214Y-92275875D01*
X117492894Y-92266123D01*
X117485772Y-92249744D01*
X117476951Y-92179297D01*
X117507617Y-92115265D01*
X117568033Y-92077977D01*
X117601321Y-92073500D01*
X118563367Y-92073500D01*
X118631488Y-92093502D01*
X118677981Y-92147158D01*
X118688085Y-92217432D01*
X118682009Y-92241458D01*
X118680688Y-92244305D01*
X118620989Y-92459570D01*
X118597251Y-92681695D01*
X118597548Y-92686848D01*
X118597548Y-92686851D01*
X118607971Y-92867620D01*
X118610110Y-92904715D01*
X118611247Y-92909761D01*
X118611248Y-92909767D01*
X118632238Y-93002903D01*
X118659222Y-93122639D01*
X118661166Y-93127426D01*
X118661167Y-93127430D01*
X118679710Y-93173097D01*
X118686806Y-93243738D01*
X118654583Y-93307001D01*
X118593274Y-93342801D01*
X118562967Y-93346500D01*
X117600955Y-93346500D01*
X117532834Y-93326498D01*
X117486341Y-93272842D01*
X117476237Y-93202568D01*
X117480396Y-93183872D01*
X117535379Y-93002903D01*
X117537555Y-92992837D01*
X117538986Y-92981962D01*
X117536775Y-92967778D01*
X117523617Y-92964000D01*
X116477115Y-92964000D01*
X116461876Y-92968475D01*
X116460671Y-92969865D01*
X116459000Y-92977548D01*
X116459000Y-93220500D01*
X116438998Y-93288621D01*
X116385342Y-93335114D01*
X116333000Y-93346500D01*
X116077000Y-93346500D01*
X116008879Y-93326498D01*
X115962386Y-93272842D01*
X115951000Y-93220500D01*
X115951000Y-92199500D01*
X115971002Y-92131379D01*
X116024658Y-92084886D01*
X116077000Y-92073500D01*
X116333000Y-92073500D01*
X116401121Y-92093502D01*
G37*
%TD.AperFunction*%
%TA.AperFunction,Conductor*%
G36*
X116401121Y-89648991D02*
G01*
X116447614Y-89702647D01*
X116459000Y-89754989D01*
X116459000Y-89897885D01*
X116463475Y-89913124D01*
X116464865Y-89914329D01*
X116472548Y-89916000D01*
X117523344Y-89916000D01*
X117536875Y-89912027D01*
X117538180Y-89902947D01*
X117508726Y-89785685D01*
X117511530Y-89714743D01*
X117552243Y-89656580D01*
X117617938Y-89629661D01*
X117630930Y-89628989D01*
X118525895Y-89628989D01*
X118594016Y-89648991D01*
X118614990Y-89665894D01*
X118622805Y-89673709D01*
X118656831Y-89736021D01*
X118655127Y-89796475D01*
X118620989Y-89919570D01*
X118620441Y-89924700D01*
X118620440Y-89924704D01*
X118616899Y-89957842D01*
X118597251Y-90141695D01*
X118597548Y-90146848D01*
X118597548Y-90146851D01*
X118604672Y-90270401D01*
X118610110Y-90364715D01*
X118611247Y-90369761D01*
X118611248Y-90369767D01*
X118631864Y-90461243D01*
X118659222Y-90582639D01*
X118661166Y-90587426D01*
X118661167Y-90587430D01*
X118679710Y-90633097D01*
X118686806Y-90703738D01*
X118654583Y-90767001D01*
X118593274Y-90802801D01*
X118562967Y-90806500D01*
X117600955Y-90806500D01*
X117532834Y-90786498D01*
X117486341Y-90732842D01*
X117476237Y-90662568D01*
X117480396Y-90643872D01*
X117535379Y-90462903D01*
X117537555Y-90452837D01*
X117538986Y-90441962D01*
X117536775Y-90427778D01*
X117523617Y-90424000D01*
X116477115Y-90424000D01*
X116461876Y-90428475D01*
X116460671Y-90429865D01*
X116459000Y-90437548D01*
X116459000Y-90680500D01*
X116438998Y-90748621D01*
X116385342Y-90795114D01*
X116333000Y-90806500D01*
X116077000Y-90806500D01*
X116008879Y-90786498D01*
X115962386Y-90732842D01*
X115951000Y-90680500D01*
X115951000Y-89754989D01*
X115971002Y-89686868D01*
X116024658Y-89640375D01*
X116077000Y-89628989D01*
X116333000Y-89628989D01*
X116401121Y-89648991D01*
G37*
%TD.AperFunction*%
%TA.AperFunction,Conductor*%
G36*
X116401121Y-84453502D02*
G01*
X116447614Y-84507158D01*
X116459000Y-84559500D01*
X116459000Y-84817885D01*
X116463475Y-84833124D01*
X116464865Y-84834329D01*
X116472548Y-84836000D01*
X117523344Y-84836000D01*
X117536875Y-84832027D01*
X117538180Y-84822947D01*
X117496214Y-84655875D01*
X117492892Y-84646118D01*
X117477076Y-84609743D01*
X117468255Y-84539296D01*
X117498922Y-84475264D01*
X117559338Y-84437976D01*
X117592625Y-84433500D01*
X118571856Y-84433500D01*
X118639977Y-84453502D01*
X118686470Y-84507158D01*
X118696574Y-84577432D01*
X118686145Y-84612547D01*
X118683009Y-84619305D01*
X118680688Y-84624305D01*
X118620989Y-84839570D01*
X118597251Y-85061695D01*
X118597548Y-85066848D01*
X118597548Y-85066851D01*
X118605275Y-85200865D01*
X118610110Y-85284715D01*
X118611247Y-85289761D01*
X118611248Y-85289767D01*
X118632275Y-85383069D01*
X118659222Y-85502639D01*
X118743266Y-85709616D01*
X118776565Y-85763955D01*
X118854227Y-85890688D01*
X118859987Y-85900088D01*
X119006250Y-86068938D01*
X119077062Y-86127727D01*
X119168123Y-86203327D01*
X119178126Y-86211632D01*
X119238165Y-86246716D01*
X119251445Y-86254476D01*
X119300169Y-86306114D01*
X119313240Y-86375897D01*
X119286509Y-86441669D01*
X119246055Y-86475027D01*
X119233607Y-86481507D01*
X119229474Y-86484610D01*
X119229471Y-86484612D01*
X119059100Y-86612530D01*
X119054965Y-86615635D01*
X118900629Y-86777138D01*
X118897715Y-86781410D01*
X118897714Y-86781411D01*
X118879838Y-86807617D01*
X118774743Y-86961680D01*
X118680688Y-87164305D01*
X118620989Y-87379570D01*
X118597251Y-87601695D01*
X118597548Y-87606848D01*
X118597548Y-87606851D01*
X118603011Y-87701590D01*
X118610110Y-87824715D01*
X118611247Y-87829761D01*
X118611248Y-87829767D01*
X118632275Y-87923069D01*
X118659222Y-88042639D01*
X118707882Y-88162474D01*
X118718484Y-88188585D01*
X118725580Y-88259226D01*
X118693358Y-88322490D01*
X118632048Y-88358290D01*
X118601741Y-88361989D01*
X117560933Y-88361989D01*
X117492812Y-88341987D01*
X117446319Y-88288331D01*
X117436215Y-88218057D01*
X117447976Y-88180162D01*
X117469670Y-88136267D01*
X117473469Y-88126672D01*
X117535377Y-87922910D01*
X117537555Y-87912837D01*
X117538986Y-87901962D01*
X117536775Y-87887778D01*
X117523617Y-87884000D01*
X116477115Y-87884000D01*
X116461876Y-87888475D01*
X116460671Y-87889865D01*
X116459000Y-87897548D01*
X116459000Y-88235989D01*
X116438998Y-88304110D01*
X116385342Y-88350603D01*
X116333000Y-88361989D01*
X116077000Y-88361989D01*
X116008879Y-88341987D01*
X115962386Y-88288331D01*
X115951000Y-88235989D01*
X115951000Y-87357885D01*
X116459000Y-87357885D01*
X116463475Y-87373124D01*
X116464865Y-87374329D01*
X116472548Y-87376000D01*
X117523344Y-87376000D01*
X117536875Y-87372027D01*
X117538180Y-87362947D01*
X117496214Y-87195875D01*
X117492894Y-87186124D01*
X117407972Y-86990814D01*
X117403105Y-86981739D01*
X117287426Y-86802926D01*
X117281136Y-86794757D01*
X117137806Y-86637240D01*
X117130273Y-86630215D01*
X116963139Y-86498222D01*
X116954552Y-86492517D01*
X116917116Y-86471851D01*
X116867146Y-86421419D01*
X116852374Y-86351976D01*
X116877490Y-86285571D01*
X116904842Y-86258964D01*
X117080327Y-86133792D01*
X117088200Y-86127139D01*
X117239052Y-85976812D01*
X117245730Y-85968965D01*
X117370003Y-85796020D01*
X117375313Y-85787183D01*
X117469670Y-85596267D01*
X117473469Y-85586672D01*
X117535377Y-85382910D01*
X117537555Y-85372837D01*
X117538986Y-85361962D01*
X117536775Y-85347778D01*
X117523617Y-85344000D01*
X116477115Y-85344000D01*
X116461876Y-85348475D01*
X116460671Y-85349865D01*
X116459000Y-85357548D01*
X116459000Y-87357885D01*
X115951000Y-87357885D01*
X115951000Y-84559500D01*
X115971002Y-84491379D01*
X116024658Y-84444886D01*
X116077000Y-84433500D01*
X116333000Y-84433500D01*
X116401121Y-84453502D01*
G37*
%TD.AperFunction*%
%TA.AperFunction,Conductor*%
G36*
X121312338Y-85769678D02*
G01*
X121340166Y-85801511D01*
X121397694Y-85895388D01*
X121403777Y-85903699D01*
X121543213Y-86064667D01*
X121550580Y-86071883D01*
X121714434Y-86207916D01*
X121722881Y-86213831D01*
X121792479Y-86254501D01*
X121841203Y-86306140D01*
X121854274Y-86375923D01*
X121827543Y-86441694D01*
X121787087Y-86475053D01*
X121778462Y-86479542D01*
X121769738Y-86485036D01*
X121599433Y-86612905D01*
X121591726Y-86619748D01*
X121444590Y-86773717D01*
X121438109Y-86781722D01*
X121333498Y-86935074D01*
X121278587Y-86980076D01*
X121208062Y-86988247D01*
X121144315Y-86956993D01*
X121123618Y-86932509D01*
X121042822Y-86807617D01*
X121042820Y-86807614D01*
X121040014Y-86803277D01*
X120889670Y-86638051D01*
X120885619Y-86634852D01*
X120885615Y-86634848D01*
X120718414Y-86502800D01*
X120718410Y-86502798D01*
X120714359Y-86499598D01*
X120673053Y-86476796D01*
X120623084Y-86426364D01*
X120608312Y-86356921D01*
X120633428Y-86290516D01*
X120660780Y-86263909D01*
X120729097Y-86215179D01*
X120839860Y-86136173D01*
X120998096Y-85978489D01*
X121055222Y-85898990D01*
X121128453Y-85797077D01*
X121129640Y-85797930D01*
X121176960Y-85754362D01*
X121246897Y-85742145D01*
X121312338Y-85769678D01*
G37*
%TD.AperFunction*%
%TA.AperFunction,Conductor*%
G36*
X154374121Y-75438002D02*
G01*
X154420614Y-75491658D01*
X154432000Y-75544000D01*
X154432000Y-84958806D01*
X154411998Y-85026927D01*
X154358342Y-85073420D01*
X154288068Y-85083524D01*
X154230435Y-85059632D01*
X154226339Y-85056562D01*
X154136705Y-84989385D01*
X154000316Y-84938255D01*
X153938134Y-84931500D01*
X152735660Y-84931500D01*
X152667539Y-84911498D01*
X152646565Y-84894595D01*
X152361450Y-84609480D01*
X152355596Y-84603215D01*
X152333104Y-84577432D01*
X152317561Y-84559615D01*
X152265280Y-84522871D01*
X152259986Y-84518939D01*
X152215693Y-84484209D01*
X152209718Y-84479524D01*
X152202802Y-84476401D01*
X152200516Y-84475017D01*
X152185835Y-84466643D01*
X152183475Y-84465378D01*
X152177261Y-84461010D01*
X152170182Y-84458250D01*
X152137511Y-84445512D01*
X152094186Y-84417215D01*
X151651435Y-83974465D01*
X151645581Y-83968198D01*
X151612556Y-83930340D01*
X151612553Y-83930337D01*
X151607561Y-83924615D01*
X151555280Y-83887871D01*
X151549986Y-83883939D01*
X151505693Y-83849209D01*
X151499718Y-83844524D01*
X151492802Y-83841401D01*
X151490516Y-83840017D01*
X151475835Y-83831643D01*
X151473475Y-83830378D01*
X151467261Y-83826010D01*
X151460182Y-83823250D01*
X151460180Y-83823249D01*
X151407725Y-83802798D01*
X151401656Y-83800247D01*
X151343427Y-83773955D01*
X151335960Y-83772571D01*
X151333405Y-83771770D01*
X151317152Y-83767141D01*
X151314572Y-83766478D01*
X151307491Y-83763718D01*
X151299960Y-83762727D01*
X151299958Y-83762726D01*
X151270339Y-83758827D01*
X151244139Y-83755378D01*
X151237641Y-83754348D01*
X151174814Y-83742704D01*
X151167234Y-83743141D01*
X151167233Y-83743141D01*
X151112608Y-83746291D01*
X151105354Y-83746500D01*
X150059500Y-83746500D01*
X149991379Y-83726498D01*
X149944886Y-83672842D01*
X149933500Y-83620500D01*
X149933500Y-81417500D01*
X149933792Y-81408931D01*
X149937210Y-81358798D01*
X149937210Y-81358794D01*
X149937726Y-81351221D01*
X149926736Y-81288254D01*
X149925775Y-81281738D01*
X149919014Y-81225871D01*
X149918102Y-81218331D01*
X149915419Y-81211230D01*
X149914778Y-81208621D01*
X149910313Y-81192301D01*
X149909548Y-81189768D01*
X149908243Y-81182290D01*
X149882552Y-81123763D01*
X149880067Y-81117675D01*
X149877211Y-81110115D01*
X149857487Y-81057917D01*
X149853186Y-81051658D01*
X149851949Y-81049293D01*
X149843727Y-81034521D01*
X149842372Y-81032229D01*
X149839316Y-81025268D01*
X149834691Y-81019241D01*
X149834689Y-81019237D01*
X149800407Y-80974560D01*
X149796529Y-80969223D01*
X149764659Y-80922851D01*
X149764658Y-80922850D01*
X149760357Y-80916592D01*
X149744687Y-80902630D01*
X149713847Y-80875153D01*
X149708571Y-80870173D01*
X148957862Y-80119465D01*
X148952008Y-80113198D01*
X148918983Y-80075340D01*
X148918980Y-80075337D01*
X148913988Y-80069615D01*
X148861707Y-80032871D01*
X148856413Y-80028939D01*
X148812120Y-79994209D01*
X148806145Y-79989524D01*
X148799229Y-79986401D01*
X148796943Y-79985017D01*
X148782262Y-79976643D01*
X148779902Y-79975378D01*
X148773688Y-79971010D01*
X148766609Y-79968250D01*
X148766607Y-79968249D01*
X148714152Y-79947798D01*
X148708083Y-79945247D01*
X148649854Y-79918955D01*
X148642387Y-79917571D01*
X148639832Y-79916770D01*
X148623579Y-79912141D01*
X148620999Y-79911478D01*
X148613918Y-79908718D01*
X148606387Y-79907727D01*
X148606385Y-79907726D01*
X148576766Y-79903827D01*
X148550566Y-79900378D01*
X148544068Y-79899348D01*
X148481241Y-79887704D01*
X148473661Y-79888141D01*
X148473660Y-79888141D01*
X148419035Y-79891291D01*
X148411781Y-79891500D01*
X147988162Y-79891500D01*
X147920041Y-79871498D01*
X147899067Y-79854596D01*
X147087905Y-79043435D01*
X147053880Y-78981122D01*
X147051000Y-78954339D01*
X147051000Y-78899046D01*
X147071002Y-78830925D01*
X147110697Y-78791902D01*
X147223120Y-78722332D01*
X147229348Y-78718478D01*
X147354305Y-78593303D01*
X147447115Y-78442738D01*
X147502797Y-78274861D01*
X147506655Y-78237212D01*
X147513167Y-78173650D01*
X147513500Y-78170400D01*
X147513500Y-76769600D01*
X147509490Y-76730950D01*
X147503238Y-76670692D01*
X147503237Y-76670688D01*
X147502526Y-76663834D01*
X147495448Y-76642617D01*
X147448868Y-76503002D01*
X147446550Y-76496054D01*
X147353478Y-76345652D01*
X147228303Y-76220695D01*
X147221903Y-76216750D01*
X147083968Y-76131725D01*
X147083966Y-76131724D01*
X147077738Y-76127885D01*
X146983121Y-76096502D01*
X146916389Y-76074368D01*
X146916387Y-76074368D01*
X146909861Y-76072203D01*
X146903025Y-76071503D01*
X146903022Y-76071502D01*
X146859969Y-76067091D01*
X146805400Y-76061500D01*
X145879600Y-76061500D01*
X145876354Y-76061837D01*
X145876350Y-76061837D01*
X145780692Y-76071762D01*
X145780688Y-76071763D01*
X145773834Y-76072474D01*
X145767298Y-76074655D01*
X145767296Y-76074655D01*
X145701034Y-76096762D01*
X145606054Y-76128450D01*
X145455652Y-76221522D01*
X145330695Y-76346697D01*
X145326855Y-76352927D01*
X145326854Y-76352928D01*
X145247370Y-76481875D01*
X145237885Y-76497262D01*
X145232060Y-76514824D01*
X145189571Y-76642926D01*
X145182203Y-76665139D01*
X145181503Y-76671975D01*
X145181502Y-76671978D01*
X145178941Y-76696978D01*
X145171500Y-76769600D01*
X145171500Y-78170400D01*
X145171837Y-78173646D01*
X145171837Y-78173650D01*
X145181752Y-78269206D01*
X145182474Y-78276166D01*
X145238450Y-78443946D01*
X145331522Y-78594348D01*
X145456697Y-78719305D01*
X145574117Y-78791684D01*
X145621609Y-78844455D01*
X145634000Y-78898943D01*
X145634000Y-79271088D01*
X145633708Y-79279658D01*
X145630464Y-79327251D01*
X145629775Y-79337352D01*
X145631080Y-79344829D01*
X145631080Y-79344830D01*
X145640761Y-79400299D01*
X145641723Y-79406821D01*
X145649398Y-79470242D01*
X145652081Y-79477343D01*
X145652722Y-79479952D01*
X145657185Y-79496262D01*
X145657950Y-79498798D01*
X145659257Y-79506284D01*
X145662311Y-79513241D01*
X145684942Y-79564795D01*
X145687433Y-79570899D01*
X145710013Y-79630656D01*
X145714317Y-79636919D01*
X145715554Y-79639285D01*
X145723799Y-79654097D01*
X145725132Y-79656351D01*
X145728185Y-79663305D01*
X145732807Y-79669328D01*
X145767079Y-79713991D01*
X145770959Y-79719332D01*
X145802839Y-79765720D01*
X145802844Y-79765725D01*
X145807143Y-79771981D01*
X145812813Y-79777032D01*
X145812814Y-79777034D01*
X145853670Y-79813435D01*
X145858946Y-79818416D01*
X146364679Y-80324149D01*
X146398705Y-80386461D01*
X146400506Y-80429688D01*
X146396500Y-80460115D01*
X146396501Y-80739884D01*
X146397039Y-80743969D01*
X146397039Y-80743973D01*
X146411084Y-80850662D01*
X146412162Y-80858850D01*
X146416852Y-80870173D01*
X146419589Y-80876780D01*
X146427179Y-80947370D01*
X146419589Y-80973220D01*
X146415322Y-80983520D01*
X146415321Y-80983523D01*
X146412162Y-80991150D01*
X146396500Y-81110115D01*
X146396501Y-81389884D01*
X146397039Y-81393969D01*
X146397039Y-81393973D01*
X146399008Y-81408931D01*
X146412162Y-81508850D01*
X146419589Y-81526780D01*
X146419860Y-81527434D01*
X146427450Y-81598023D01*
X146419860Y-81623874D01*
X146415811Y-81633649D01*
X146411572Y-81649469D01*
X146407284Y-81682040D01*
X146409495Y-81696222D01*
X146422652Y-81700000D01*
X146444431Y-81700000D01*
X146512552Y-81720002D01*
X146544391Y-81749294D01*
X146571013Y-81783987D01*
X146577562Y-81789012D01*
X146591932Y-81800039D01*
X146633798Y-81857378D01*
X146638018Y-81928249D01*
X146603253Y-81990152D01*
X146591930Y-81999962D01*
X146577567Y-82010983D01*
X146577563Y-82010987D01*
X146571013Y-82016013D01*
X146549559Y-82043973D01*
X146544393Y-82050705D01*
X146487054Y-82092572D01*
X146444431Y-82100000D01*
X146423035Y-82100000D01*
X146409264Y-82104044D01*
X146407235Y-82117583D01*
X146411572Y-82150533D01*
X146415810Y-82166348D01*
X146419860Y-82176126D01*
X146427450Y-82246715D01*
X146419861Y-82272564D01*
X146412162Y-82291150D01*
X146396500Y-82410115D01*
X146396500Y-82425500D01*
X146376498Y-82493621D01*
X146322842Y-82540114D01*
X146270500Y-82551500D01*
X146123200Y-82551500D01*
X146055079Y-82531498D01*
X146035853Y-82515157D01*
X146035580Y-82515460D01*
X146030668Y-82511037D01*
X146026253Y-82506134D01*
X145894095Y-82410115D01*
X145877094Y-82397763D01*
X145877093Y-82397762D01*
X145871752Y-82393882D01*
X145865724Y-82391198D01*
X145865722Y-82391197D01*
X145703319Y-82318891D01*
X145703318Y-82318891D01*
X145697288Y-82316206D01*
X145595499Y-82294570D01*
X145516944Y-82277872D01*
X145516939Y-82277872D01*
X145510487Y-82276500D01*
X145319513Y-82276500D01*
X145313061Y-82277872D01*
X145313056Y-82277872D01*
X145234501Y-82294570D01*
X145132712Y-82316206D01*
X145126682Y-82318891D01*
X145126681Y-82318891D01*
X144964278Y-82391197D01*
X144964276Y-82391198D01*
X144958248Y-82393882D01*
X144952907Y-82397762D01*
X144952906Y-82397763D01*
X144935905Y-82410115D01*
X144803747Y-82506134D01*
X144799326Y-82511044D01*
X144799325Y-82511045D01*
X144794358Y-82516562D01*
X144675960Y-82648056D01*
X144623138Y-82739547D01*
X144585926Y-82804000D01*
X144580473Y-82813444D01*
X144521458Y-82995072D01*
X144501496Y-83185000D01*
X144502186Y-83191565D01*
X144517342Y-83335763D01*
X144521458Y-83374928D01*
X144580473Y-83556556D01*
X144583776Y-83562278D01*
X144583777Y-83562279D01*
X144605173Y-83599337D01*
X144675960Y-83721944D01*
X144680378Y-83726851D01*
X144680379Y-83726852D01*
X144780655Y-83838220D01*
X144803747Y-83863866D01*
X144895240Y-83930340D01*
X144950385Y-83970405D01*
X144958248Y-83976118D01*
X144964276Y-83978802D01*
X144964278Y-83978803D01*
X145126681Y-84051109D01*
X145132712Y-84053794D01*
X145226112Y-84073647D01*
X145313056Y-84092128D01*
X145313061Y-84092128D01*
X145319513Y-84093500D01*
X145510487Y-84093500D01*
X145516939Y-84092128D01*
X145516944Y-84092128D01*
X145603887Y-84073647D01*
X145697288Y-84053794D01*
X145703319Y-84051109D01*
X145865722Y-83978803D01*
X145865724Y-83978802D01*
X145871752Y-83976118D01*
X145879616Y-83970405D01*
X146004671Y-83879546D01*
X146026253Y-83863866D01*
X146030668Y-83858963D01*
X146035580Y-83854540D01*
X146036705Y-83855789D01*
X146090014Y-83822949D01*
X146123200Y-83818500D01*
X146270501Y-83818500D01*
X146338622Y-83838502D01*
X146385115Y-83892158D01*
X146396501Y-83944499D01*
X146396501Y-83989884D01*
X146397039Y-83993969D01*
X146397039Y-83993973D01*
X146410141Y-84093500D01*
X146412162Y-84108850D01*
X146415322Y-84116478D01*
X146419589Y-84126780D01*
X146427179Y-84197370D01*
X146419589Y-84223220D01*
X146416203Y-84231395D01*
X146412162Y-84241150D01*
X146411084Y-84249338D01*
X146404051Y-84302763D01*
X146396500Y-84360115D01*
X146396501Y-84639884D01*
X146397039Y-84643969D01*
X146397039Y-84643973D01*
X146412162Y-84758850D01*
X146409907Y-84759147D01*
X146408494Y-84818297D01*
X146377575Y-84869019D01*
X146272479Y-84974115D01*
X146210167Y-85008141D01*
X146183384Y-85011020D01*
X143231417Y-85011020D01*
X143163296Y-84991018D01*
X143116803Y-84937362D01*
X143106699Y-84867088D01*
X143115008Y-84836803D01*
X143144188Y-84766354D01*
X143148428Y-84750531D01*
X143152716Y-84717960D01*
X143150505Y-84703778D01*
X143137348Y-84700000D01*
X142948337Y-84700000D01*
X142880216Y-84679998D01*
X142833723Y-84626342D01*
X142823619Y-84556068D01*
X142853113Y-84491488D01*
X142871632Y-84474038D01*
X142982436Y-84389014D01*
X142982437Y-84389013D01*
X142988987Y-84383987D01*
X143015608Y-84349295D01*
X143072946Y-84307428D01*
X143115569Y-84300000D01*
X143136965Y-84300000D01*
X143150736Y-84295956D01*
X143152765Y-84282417D01*
X143148428Y-84249467D01*
X143144190Y-84233652D01*
X143140140Y-84223874D01*
X143132550Y-84153285D01*
X143140140Y-84127434D01*
X143144678Y-84116479D01*
X143144678Y-84116478D01*
X143147838Y-84108850D01*
X143149859Y-84093500D01*
X143162962Y-83993972D01*
X143162962Y-83993971D01*
X143163500Y-83989885D01*
X143163499Y-83710116D01*
X143159345Y-83678556D01*
X143148916Y-83599337D01*
X143148916Y-83599335D01*
X143147838Y-83591150D01*
X143140411Y-83573219D01*
X143132821Y-83502630D01*
X143140411Y-83476780D01*
X143144678Y-83466480D01*
X143144679Y-83466477D01*
X143147838Y-83458850D01*
X143160985Y-83358990D01*
X143162962Y-83343972D01*
X143162962Y-83343971D01*
X143163500Y-83339885D01*
X143163499Y-83060116D01*
X143155801Y-83001635D01*
X143148916Y-82949337D01*
X143148916Y-82949335D01*
X143147838Y-82941150D01*
X143140411Y-82923219D01*
X143132821Y-82852630D01*
X143140411Y-82826780D01*
X143144678Y-82816480D01*
X143144679Y-82816477D01*
X143147838Y-82808850D01*
X143163500Y-82689885D01*
X143163499Y-82410116D01*
X143161009Y-82391197D01*
X143148916Y-82299337D01*
X143148916Y-82299335D01*
X143147838Y-82291150D01*
X143140411Y-82273219D01*
X143132821Y-82202630D01*
X143140411Y-82176780D01*
X143144678Y-82166480D01*
X143144679Y-82166477D01*
X143147838Y-82158850D01*
X143149908Y-82143125D01*
X143162962Y-82043972D01*
X143162962Y-82043971D01*
X143163500Y-82039885D01*
X143163499Y-81760116D01*
X143162075Y-81749295D01*
X143148916Y-81649337D01*
X143148916Y-81649335D01*
X143147838Y-81641150D01*
X143140411Y-81623219D01*
X143132821Y-81552630D01*
X143140411Y-81526780D01*
X143144678Y-81516480D01*
X143144679Y-81516477D01*
X143147838Y-81508850D01*
X143163500Y-81389885D01*
X143163499Y-81110116D01*
X143156628Y-81057917D01*
X143148916Y-80999337D01*
X143148916Y-80999335D01*
X143147838Y-80991150D01*
X143140411Y-80973219D01*
X143132821Y-80902630D01*
X143140411Y-80876780D01*
X143144678Y-80866480D01*
X143144679Y-80866477D01*
X143147838Y-80858850D01*
X143155439Y-80801118D01*
X143162962Y-80743972D01*
X143162962Y-80743971D01*
X143163500Y-80739885D01*
X143163499Y-80460116D01*
X143158566Y-80422639D01*
X143148916Y-80349337D01*
X143148916Y-80349335D01*
X143147838Y-80341150D01*
X143086524Y-80193124D01*
X142988987Y-80066013D01*
X142982437Y-80060987D01*
X142982434Y-80060984D01*
X142907434Y-80003435D01*
X142861875Y-79968476D01*
X142713850Y-79907162D01*
X142594885Y-79891500D01*
X142157095Y-79891500D01*
X142088974Y-79871498D01*
X142068000Y-79854595D01*
X140380500Y-78167095D01*
X142047001Y-78167095D01*
X142047338Y-78173614D01*
X142057257Y-78269206D01*
X142060149Y-78282600D01*
X142111588Y-78436784D01*
X142117761Y-78449962D01*
X142203063Y-78587807D01*
X142212099Y-78599208D01*
X142326829Y-78713739D01*
X142338240Y-78722751D01*
X142476243Y-78807816D01*
X142489424Y-78813963D01*
X142643710Y-78865138D01*
X142657086Y-78868005D01*
X142751438Y-78877672D01*
X142757854Y-78878000D01*
X142945385Y-78878000D01*
X142960624Y-78873525D01*
X142961829Y-78872135D01*
X142963500Y-78864452D01*
X142963500Y-78859884D01*
X143471500Y-78859884D01*
X143475975Y-78875123D01*
X143477365Y-78876328D01*
X143485048Y-78877999D01*
X143677095Y-78877999D01*
X143683614Y-78877662D01*
X143779206Y-78867743D01*
X143792600Y-78864851D01*
X143946784Y-78813412D01*
X143959962Y-78807239D01*
X144097807Y-78721937D01*
X144109208Y-78712901D01*
X144223739Y-78598171D01*
X144232751Y-78586760D01*
X144317816Y-78448757D01*
X144323963Y-78435576D01*
X144375138Y-78281290D01*
X144378005Y-78267914D01*
X144387672Y-78173562D01*
X144388000Y-78167146D01*
X144388000Y-77742115D01*
X144383525Y-77726876D01*
X144382135Y-77725671D01*
X144374452Y-77724000D01*
X143489615Y-77724000D01*
X143474376Y-77728475D01*
X143473171Y-77729865D01*
X143471500Y-77737548D01*
X143471500Y-78859884D01*
X142963500Y-78859884D01*
X142963500Y-77742115D01*
X142959025Y-77726876D01*
X142957635Y-77725671D01*
X142949952Y-77724000D01*
X142065116Y-77724000D01*
X142049877Y-77728475D01*
X142048672Y-77729865D01*
X142047001Y-77737548D01*
X142047001Y-78167095D01*
X140380500Y-78167095D01*
X140371152Y-78157747D01*
X140363612Y-78149461D01*
X140359500Y-78142982D01*
X140309848Y-78096356D01*
X140307007Y-78093602D01*
X140287270Y-78073865D01*
X140284073Y-78071385D01*
X140275051Y-78063680D01*
X140259951Y-78049500D01*
X140242821Y-78033414D01*
X140235875Y-78029595D01*
X140235872Y-78029593D01*
X140225066Y-78023652D01*
X140208547Y-78012801D01*
X140205351Y-78010322D01*
X140192541Y-78000386D01*
X140185272Y-77997241D01*
X140185268Y-77997238D01*
X140151963Y-77982826D01*
X140141313Y-77977609D01*
X140102560Y-77956305D01*
X140082937Y-77951267D01*
X140064234Y-77944863D01*
X140052920Y-77939967D01*
X140052919Y-77939967D01*
X140045645Y-77936819D01*
X140037822Y-77935580D01*
X140037812Y-77935577D01*
X140001976Y-77929901D01*
X139990356Y-77927495D01*
X139955211Y-77918472D01*
X139955210Y-77918472D01*
X139947530Y-77916500D01*
X139927276Y-77916500D01*
X139907565Y-77914949D01*
X139895386Y-77913020D01*
X139887557Y-77911780D01*
X139879665Y-77912526D01*
X139843539Y-77915941D01*
X139831681Y-77916500D01*
X138954599Y-77916500D01*
X138886478Y-77896498D01*
X138856956Y-77870135D01*
X138832964Y-77840718D01*
X138832959Y-77840713D01*
X138829065Y-77835938D01*
X138822724Y-77830692D01*
X138681425Y-77713799D01*
X138681421Y-77713797D01*
X138676675Y-77709870D01*
X138502701Y-77615802D01*
X138313768Y-77557318D01*
X138307643Y-77556674D01*
X138307642Y-77556674D01*
X138123204Y-77537289D01*
X138123202Y-77537289D01*
X138117075Y-77536645D01*
X138034576Y-77544153D01*
X137926251Y-77554011D01*
X137926248Y-77554012D01*
X137920112Y-77554570D01*
X137914206Y-77556308D01*
X137914202Y-77556309D01*
X137809076Y-77587249D01*
X137730381Y-77610410D01*
X137724923Y-77613263D01*
X137724919Y-77613265D01*
X137636391Y-77659547D01*
X137555110Y-77702040D01*
X137400975Y-77825968D01*
X137273846Y-77977474D01*
X137270876Y-77982877D01*
X137270873Y-77982881D01*
X137270707Y-77983183D01*
X137270579Y-77983310D01*
X137267393Y-77987963D01*
X137266509Y-77987358D01*
X137220363Y-78033243D01*
X137150947Y-78048138D01*
X137084497Y-78023139D01*
X137056082Y-77992996D01*
X137054066Y-77989204D01*
X137003737Y-77927495D01*
X136932960Y-77840713D01*
X136932957Y-77840710D01*
X136929065Y-77835938D01*
X136922724Y-77830692D01*
X136781425Y-77713799D01*
X136781421Y-77713797D01*
X136776675Y-77709870D01*
X136602701Y-77615802D01*
X136413768Y-77557318D01*
X136407643Y-77556674D01*
X136407642Y-77556674D01*
X136223204Y-77537289D01*
X136223202Y-77537289D01*
X136217075Y-77536645D01*
X136134576Y-77544153D01*
X136026251Y-77554011D01*
X136026248Y-77554012D01*
X136020112Y-77554570D01*
X136014206Y-77556308D01*
X136014202Y-77556309D01*
X135909076Y-77587249D01*
X135830381Y-77610410D01*
X135824923Y-77613263D01*
X135824919Y-77613265D01*
X135736391Y-77659547D01*
X135655110Y-77702040D01*
X135500975Y-77825968D01*
X135373846Y-77977474D01*
X135370879Y-77982872D01*
X135370875Y-77982877D01*
X135309227Y-78095016D01*
X135278567Y-78150787D01*
X135276706Y-78156654D01*
X135276705Y-78156656D01*
X135251151Y-78237212D01*
X135218765Y-78339306D01*
X135196719Y-78535851D01*
X135197235Y-78541995D01*
X135212378Y-78722332D01*
X135213268Y-78732934D01*
X135214967Y-78738858D01*
X135254386Y-78876328D01*
X135267783Y-78923050D01*
X135358187Y-79098956D01*
X135481035Y-79253953D01*
X135485728Y-79257947D01*
X135485729Y-79257948D01*
X135606697Y-79360899D01*
X135631650Y-79382136D01*
X135804294Y-79478624D01*
X135992392Y-79539740D01*
X136188777Y-79563158D01*
X136194912Y-79562686D01*
X136194914Y-79562686D01*
X136237090Y-79559440D01*
X136259578Y-79557710D01*
X136329033Y-79572427D01*
X136358340Y-79594244D01*
X138406343Y-81642247D01*
X138413887Y-81650537D01*
X138418000Y-81657018D01*
X138423777Y-81662443D01*
X138467667Y-81703658D01*
X138470509Y-81706413D01*
X138490231Y-81726135D01*
X138493355Y-81728558D01*
X138493359Y-81728562D01*
X138493424Y-81728612D01*
X138502445Y-81736317D01*
X138534679Y-81766586D01*
X138541627Y-81770405D01*
X138541629Y-81770407D01*
X138552432Y-81776346D01*
X138568959Y-81787202D01*
X138578698Y-81794757D01*
X138578700Y-81794758D01*
X138584960Y-81799614D01*
X138625540Y-81817174D01*
X138636188Y-81822391D01*
X138674940Y-81843695D01*
X138682616Y-81845666D01*
X138682619Y-81845667D01*
X138694562Y-81848733D01*
X138713267Y-81855137D01*
X138731855Y-81863181D01*
X138739678Y-81864420D01*
X138739688Y-81864423D01*
X138775524Y-81870099D01*
X138787144Y-81872505D01*
X138822289Y-81881528D01*
X138829970Y-81883500D01*
X138850224Y-81883500D01*
X138869934Y-81885051D01*
X138889943Y-81888220D01*
X138897835Y-81887474D01*
X138933961Y-81884059D01*
X138945819Y-81883500D01*
X140545501Y-81883500D01*
X140613622Y-81903502D01*
X140660115Y-81957158D01*
X140671501Y-82009499D01*
X140671501Y-82039884D01*
X140672039Y-82043969D01*
X140672039Y-82043973D01*
X140682163Y-82120875D01*
X140687162Y-82158850D01*
X140694318Y-82176126D01*
X140694589Y-82176780D01*
X140702179Y-82247370D01*
X140694589Y-82273220D01*
X140690322Y-82283520D01*
X140690321Y-82283523D01*
X140687162Y-82291150D01*
X140671500Y-82410115D01*
X140671500Y-82440500D01*
X140651498Y-82508621D01*
X140597842Y-82555114D01*
X140545500Y-82566500D01*
X132054595Y-82566500D01*
X131986474Y-82546498D01*
X131965500Y-82529595D01*
X130557981Y-81122076D01*
X130523955Y-81059764D01*
X130529020Y-80988949D01*
X130571567Y-80932113D01*
X130638087Y-80907302D01*
X130673273Y-80909735D01*
X130708047Y-80917127D01*
X130708060Y-80917128D01*
X130714513Y-80918500D01*
X130905487Y-80918500D01*
X130911939Y-80917128D01*
X130911944Y-80917128D01*
X130998888Y-80898647D01*
X131092288Y-80878794D01*
X131105899Y-80872734D01*
X131260722Y-80803803D01*
X131260724Y-80803802D01*
X131266752Y-80801118D01*
X131421253Y-80688866D01*
X131444905Y-80662598D01*
X131544621Y-80551852D01*
X131544622Y-80551851D01*
X131549040Y-80546944D01*
X131620808Y-80422639D01*
X131641223Y-80387279D01*
X131641224Y-80387278D01*
X131644527Y-80381556D01*
X131703542Y-80199928D01*
X131712318Y-80116434D01*
X131722814Y-80016565D01*
X131723504Y-80010000D01*
X131713705Y-79916770D01*
X131704232Y-79826635D01*
X131704232Y-79826633D01*
X131703542Y-79820072D01*
X131644527Y-79638444D01*
X131549040Y-79473056D01*
X131489406Y-79406825D01*
X131425675Y-79336045D01*
X131425674Y-79336044D01*
X131421253Y-79331134D01*
X131266752Y-79218882D01*
X131260724Y-79216198D01*
X131260722Y-79216197D01*
X131098319Y-79143891D01*
X131098318Y-79143891D01*
X131092288Y-79141206D01*
X130998887Y-79121353D01*
X130911944Y-79102872D01*
X130911939Y-79102872D01*
X130905487Y-79101500D01*
X130849594Y-79101500D01*
X130781473Y-79081498D01*
X130760499Y-79064595D01*
X129745405Y-78049500D01*
X129711379Y-77987188D01*
X129708500Y-77960405D01*
X129708500Y-77197885D01*
X142047000Y-77197885D01*
X142051475Y-77213124D01*
X142052865Y-77214329D01*
X142060548Y-77216000D01*
X142945385Y-77216000D01*
X142960624Y-77211525D01*
X142961829Y-77210135D01*
X142963500Y-77202452D01*
X142963500Y-77197885D01*
X143471500Y-77197885D01*
X143475975Y-77213124D01*
X143477365Y-77214329D01*
X143485048Y-77216000D01*
X144369884Y-77216000D01*
X144385123Y-77211525D01*
X144386328Y-77210135D01*
X144387999Y-77202452D01*
X144387999Y-76772905D01*
X144387662Y-76766386D01*
X144377743Y-76670794D01*
X144374851Y-76657400D01*
X144323412Y-76503216D01*
X144317239Y-76490038D01*
X144231937Y-76352193D01*
X144222901Y-76340792D01*
X144108171Y-76226261D01*
X144096760Y-76217249D01*
X143958757Y-76132184D01*
X143945576Y-76126037D01*
X143791290Y-76074862D01*
X143777914Y-76071995D01*
X143683562Y-76062328D01*
X143677145Y-76062000D01*
X143489615Y-76062000D01*
X143474376Y-76066475D01*
X143473171Y-76067865D01*
X143471500Y-76075548D01*
X143471500Y-77197885D01*
X142963500Y-77197885D01*
X142963500Y-76080116D01*
X142959025Y-76064877D01*
X142957635Y-76063672D01*
X142949952Y-76062001D01*
X142757905Y-76062001D01*
X142751386Y-76062338D01*
X142655794Y-76072257D01*
X142642400Y-76075149D01*
X142488216Y-76126588D01*
X142475038Y-76132761D01*
X142337193Y-76218063D01*
X142325792Y-76227099D01*
X142211261Y-76341829D01*
X142202249Y-76353240D01*
X142117184Y-76491243D01*
X142111037Y-76504424D01*
X142059862Y-76658710D01*
X142056995Y-76672086D01*
X142047328Y-76766438D01*
X142047000Y-76772855D01*
X142047000Y-77197885D01*
X129708500Y-77197885D01*
X129708500Y-76794600D01*
X129706240Y-76772817D01*
X129698238Y-76695692D01*
X129698237Y-76695688D01*
X129697526Y-76688834D01*
X129692967Y-76675167D01*
X129643868Y-76528002D01*
X129641550Y-76521054D01*
X129548478Y-76370652D01*
X129423303Y-76245695D01*
X129404553Y-76234137D01*
X129278968Y-76156725D01*
X129278966Y-76156724D01*
X129272738Y-76152885D01*
X129180834Y-76122402D01*
X129111389Y-76099368D01*
X129111387Y-76099368D01*
X129104861Y-76097203D01*
X129098025Y-76096503D01*
X129098022Y-76096502D01*
X129054969Y-76092091D01*
X129000400Y-76086500D01*
X128099600Y-76086500D01*
X128096354Y-76086837D01*
X128096350Y-76086837D01*
X128000692Y-76096762D01*
X128000688Y-76096763D01*
X127993834Y-76097474D01*
X127987298Y-76099655D01*
X127987296Y-76099655D01*
X127869450Y-76138972D01*
X127826054Y-76153450D01*
X127675652Y-76246522D01*
X127670479Y-76251704D01*
X127653294Y-76268919D01*
X127550695Y-76371697D01*
X127546855Y-76377927D01*
X127546854Y-76377928D01*
X127468881Y-76504424D01*
X127457885Y-76522262D01*
X127402203Y-76690139D01*
X127401503Y-76696975D01*
X127401502Y-76696978D01*
X127397757Y-76733527D01*
X127391500Y-76794600D01*
X127391500Y-77680405D01*
X127371498Y-77748526D01*
X127354595Y-77769500D01*
X127124980Y-77999115D01*
X127062668Y-78033141D01*
X127035885Y-78036020D01*
X126734500Y-78036020D01*
X126666379Y-78016018D01*
X126619886Y-77962362D01*
X126608500Y-77910020D01*
X126608500Y-76794600D01*
X126606240Y-76772817D01*
X126598238Y-76695692D01*
X126598237Y-76695688D01*
X126597526Y-76688834D01*
X126592967Y-76675167D01*
X126543868Y-76528002D01*
X126541550Y-76521054D01*
X126448478Y-76370652D01*
X126323303Y-76245695D01*
X126304553Y-76234137D01*
X126178968Y-76156725D01*
X126178966Y-76156724D01*
X126172738Y-76152885D01*
X126080834Y-76122402D01*
X126011389Y-76099368D01*
X126011387Y-76099368D01*
X126004861Y-76097203D01*
X125998025Y-76096503D01*
X125998022Y-76096502D01*
X125954969Y-76092091D01*
X125900400Y-76086500D01*
X124999600Y-76086500D01*
X124996354Y-76086837D01*
X124996350Y-76086837D01*
X124900692Y-76096762D01*
X124900688Y-76096763D01*
X124893834Y-76097474D01*
X124887298Y-76099655D01*
X124887296Y-76099655D01*
X124769450Y-76138972D01*
X124726054Y-76153450D01*
X124575652Y-76246522D01*
X124570479Y-76251704D01*
X124553294Y-76268919D01*
X124450695Y-76371697D01*
X124446855Y-76377927D01*
X124446854Y-76377928D01*
X124368881Y-76504424D01*
X124357885Y-76522262D01*
X124310928Y-76663834D01*
X124307169Y-76675167D01*
X124266739Y-76733527D01*
X124201174Y-76760764D01*
X124187576Y-76761500D01*
X123984500Y-76761500D01*
X123916379Y-76741498D01*
X123869886Y-76687842D01*
X123858500Y-76635500D01*
X123858500Y-76576866D01*
X123851745Y-76514684D01*
X123800615Y-76378295D01*
X123713261Y-76261739D01*
X123596705Y-76174385D01*
X123460316Y-76123255D01*
X123398134Y-76116500D01*
X121601866Y-76116500D01*
X121539684Y-76123255D01*
X121403295Y-76174385D01*
X121286739Y-76261739D01*
X121199385Y-76378295D01*
X121196233Y-76386703D01*
X121154919Y-76496907D01*
X121112277Y-76553671D01*
X121045716Y-76578371D01*
X120976367Y-76563163D01*
X120943743Y-76537476D01*
X120893151Y-76481875D01*
X120893142Y-76481866D01*
X120889670Y-76478051D01*
X120885619Y-76474852D01*
X120885615Y-76474848D01*
X120718414Y-76342800D01*
X120718410Y-76342798D01*
X120714359Y-76339598D01*
X120705302Y-76334598D01*
X120662136Y-76310769D01*
X120518789Y-76231638D01*
X120513920Y-76229914D01*
X120513916Y-76229912D01*
X120313087Y-76158795D01*
X120313083Y-76158794D01*
X120308212Y-76157069D01*
X120303119Y-76156162D01*
X120303116Y-76156161D01*
X120093373Y-76118800D01*
X120093367Y-76118799D01*
X120088284Y-76117894D01*
X120014452Y-76116992D01*
X119870081Y-76115228D01*
X119870079Y-76115228D01*
X119864911Y-76115165D01*
X119644091Y-76148955D01*
X119431756Y-76218357D01*
X119401443Y-76234137D01*
X119246987Y-76314542D01*
X119233607Y-76321507D01*
X119229474Y-76324610D01*
X119229471Y-76324612D01*
X119065260Y-76447905D01*
X119054965Y-76455635D01*
X119008547Y-76504209D01*
X118961280Y-76553671D01*
X118900629Y-76617138D01*
X118897715Y-76621410D01*
X118897714Y-76621411D01*
X118868775Y-76663834D01*
X118774743Y-76801680D01*
X118680688Y-77004305D01*
X118620989Y-77219570D01*
X118597251Y-77441695D01*
X118597548Y-77446848D01*
X118597548Y-77446851D01*
X118606979Y-77610410D01*
X118610110Y-77664715D01*
X118611247Y-77669761D01*
X118611248Y-77669767D01*
X118645580Y-77822104D01*
X118656799Y-77871885D01*
X118659150Y-77882319D01*
X118654614Y-77953170D01*
X118612492Y-78010322D01*
X118546159Y-78035628D01*
X118536233Y-78036020D01*
X117622368Y-78036020D01*
X117554247Y-78016018D01*
X117507754Y-77962362D01*
X117497650Y-77892088D01*
X117501810Y-77873391D01*
X117535377Y-77762910D01*
X117537555Y-77752837D01*
X117538986Y-77741962D01*
X117536775Y-77727778D01*
X117523617Y-77724000D01*
X116477115Y-77724000D01*
X116461876Y-77728475D01*
X116460671Y-77729865D01*
X116459000Y-77737548D01*
X116459000Y-77910020D01*
X116438998Y-77978141D01*
X116385342Y-78024634D01*
X116333000Y-78036020D01*
X116077000Y-78036020D01*
X116008879Y-78016018D01*
X115962386Y-77962362D01*
X115951000Y-77910020D01*
X115951000Y-77197885D01*
X116459000Y-77197885D01*
X116463475Y-77213124D01*
X116464865Y-77214329D01*
X116472548Y-77216000D01*
X117523344Y-77216000D01*
X117536875Y-77212027D01*
X117538180Y-77202947D01*
X117496214Y-77035875D01*
X117492894Y-77026124D01*
X117407972Y-76830814D01*
X117403105Y-76821739D01*
X117287426Y-76642926D01*
X117281136Y-76634757D01*
X117137806Y-76477240D01*
X117130273Y-76470215D01*
X116963139Y-76338222D01*
X116954552Y-76332517D01*
X116768117Y-76229599D01*
X116758705Y-76225369D01*
X116557959Y-76154280D01*
X116547988Y-76151646D01*
X116476837Y-76138972D01*
X116463540Y-76140432D01*
X116459000Y-76154989D01*
X116459000Y-77197885D01*
X115951000Y-77197885D01*
X115951000Y-76153102D01*
X115947082Y-76139758D01*
X115932806Y-76137771D01*
X115894324Y-76143660D01*
X115884288Y-76146051D01*
X115681868Y-76212212D01*
X115672359Y-76216209D01*
X115483463Y-76314542D01*
X115474738Y-76320036D01*
X115304433Y-76447905D01*
X115296726Y-76454748D01*
X115149590Y-76608717D01*
X115143109Y-76616722D01*
X115038498Y-76770074D01*
X114983587Y-76815076D01*
X114913062Y-76823247D01*
X114849315Y-76791993D01*
X114828618Y-76767509D01*
X114747822Y-76642617D01*
X114747820Y-76642614D01*
X114745014Y-76638277D01*
X114594670Y-76473051D01*
X114590619Y-76469852D01*
X114590615Y-76469848D01*
X114423414Y-76337800D01*
X114423410Y-76337798D01*
X114419359Y-76334598D01*
X114401270Y-76324612D01*
X114300381Y-76268919D01*
X114223789Y-76226638D01*
X114218920Y-76224914D01*
X114218916Y-76224912D01*
X114018087Y-76153795D01*
X114018083Y-76153794D01*
X114013212Y-76152069D01*
X114008119Y-76151162D01*
X114008116Y-76151161D01*
X113798373Y-76113800D01*
X113798367Y-76113799D01*
X113793284Y-76112894D01*
X113719452Y-76111992D01*
X113575081Y-76110228D01*
X113575079Y-76110228D01*
X113569911Y-76110165D01*
X113349091Y-76143955D01*
X113136756Y-76213357D01*
X112938607Y-76316507D01*
X112934474Y-76319610D01*
X112934471Y-76319612D01*
X112764100Y-76447530D01*
X112759965Y-76450635D01*
X112734894Y-76476870D01*
X112637898Y-76578371D01*
X112605629Y-76612138D01*
X112602715Y-76616410D01*
X112602714Y-76616411D01*
X112498088Y-76769787D01*
X112443177Y-76814790D01*
X112372652Y-76822961D01*
X112308905Y-76791707D01*
X112272175Y-76730950D01*
X112268000Y-76698783D01*
X112268000Y-75544000D01*
X112288002Y-75475879D01*
X112341658Y-75429386D01*
X112394000Y-75418000D01*
X154306000Y-75418000D01*
X154374121Y-75438002D01*
G37*
%TD.AperFunction*%
%TA.AperFunction,Conductor*%
G36*
X116401121Y-81913502D02*
G01*
X116447614Y-81967158D01*
X116459000Y-82019500D01*
X116459000Y-82277885D01*
X116463475Y-82293124D01*
X116464865Y-82294329D01*
X116472548Y-82296000D01*
X117523344Y-82296000D01*
X117536875Y-82292027D01*
X117538180Y-82282947D01*
X117496214Y-82115875D01*
X117492892Y-82106118D01*
X117477076Y-82069743D01*
X117468255Y-81999296D01*
X117498922Y-81935264D01*
X117559338Y-81897976D01*
X117592625Y-81893500D01*
X118571856Y-81893500D01*
X118639977Y-81913502D01*
X118686470Y-81967158D01*
X118696574Y-82037432D01*
X118686145Y-82072547D01*
X118683009Y-82079305D01*
X118680688Y-82084305D01*
X118620989Y-82299570D01*
X118597251Y-82521695D01*
X118597548Y-82526848D01*
X118597548Y-82526851D01*
X118603011Y-82621590D01*
X118610110Y-82744715D01*
X118611247Y-82749761D01*
X118611248Y-82749767D01*
X118632275Y-82843069D01*
X118659222Y-82962639D01*
X118661166Y-82967426D01*
X118661167Y-82967430D01*
X118671589Y-82993097D01*
X118678685Y-83063738D01*
X118646462Y-83127001D01*
X118585152Y-83162801D01*
X118554846Y-83166500D01*
X117607031Y-83166500D01*
X117538910Y-83146498D01*
X117492417Y-83092842D01*
X117482313Y-83022568D01*
X117486473Y-83003871D01*
X117535377Y-82842910D01*
X117537555Y-82832837D01*
X117538986Y-82821962D01*
X117536775Y-82807778D01*
X117523617Y-82804000D01*
X116477115Y-82804000D01*
X116461876Y-82808475D01*
X116460671Y-82809865D01*
X116459000Y-82817548D01*
X116459000Y-83040500D01*
X116438998Y-83108621D01*
X116385342Y-83155114D01*
X116333000Y-83166500D01*
X116077000Y-83166500D01*
X116008879Y-83146498D01*
X115962386Y-83092842D01*
X115951000Y-83040500D01*
X115951000Y-82019500D01*
X115971002Y-81951379D01*
X116024658Y-81904886D01*
X116077000Y-81893500D01*
X116333000Y-81893500D01*
X116401121Y-81913502D01*
G37*
%TD.AperFunction*%
%TA.AperFunction,Conductor*%
G36*
X124233621Y-81913502D02*
G01*
X124280114Y-81967158D01*
X124291500Y-82019500D01*
X124291500Y-83040500D01*
X124271498Y-83108621D01*
X124217842Y-83155114D01*
X124165500Y-83166500D01*
X123903550Y-83166500D01*
X123835429Y-83146498D01*
X123788936Y-83092842D01*
X123778832Y-83022568D01*
X123782992Y-83003871D01*
X123830377Y-82847910D01*
X123832555Y-82837837D01*
X123833986Y-82826962D01*
X123831775Y-82812778D01*
X123818617Y-82809000D01*
X122772115Y-82809000D01*
X122756876Y-82813475D01*
X122755671Y-82814865D01*
X122754000Y-82822548D01*
X122754000Y-83040500D01*
X122733998Y-83108621D01*
X122680342Y-83155114D01*
X122628000Y-83166500D01*
X122372000Y-83166500D01*
X122303879Y-83146498D01*
X122257386Y-83092842D01*
X122246000Y-83040500D01*
X122246000Y-82427000D01*
X122266002Y-82358879D01*
X122319658Y-82312386D01*
X122372000Y-82301000D01*
X123818344Y-82301000D01*
X123831875Y-82297027D01*
X123833180Y-82287947D01*
X123791214Y-82120875D01*
X123787894Y-82111124D01*
X123769901Y-82069742D01*
X123761081Y-81999296D01*
X123791748Y-81935264D01*
X123852164Y-81897976D01*
X123885451Y-81893500D01*
X124165500Y-81893500D01*
X124233621Y-81913502D01*
G37*
%TD.AperFunction*%
%TA.AperFunction,Conductor*%
G36*
X116401121Y-79323022D02*
G01*
X116447614Y-79376678D01*
X116459000Y-79429020D01*
X116459000Y-79737885D01*
X116463475Y-79753124D01*
X116464865Y-79754329D01*
X116472548Y-79756000D01*
X117523344Y-79756000D01*
X117536875Y-79752027D01*
X117538180Y-79742947D01*
X117496214Y-79575875D01*
X117492894Y-79566124D01*
X117455126Y-79479262D01*
X117446306Y-79408815D01*
X117476973Y-79344784D01*
X117537390Y-79307496D01*
X117570676Y-79303020D01*
X118595288Y-79303020D01*
X118663409Y-79323022D01*
X118709902Y-79376678D01*
X118720006Y-79446952D01*
X118709576Y-79482070D01*
X118698337Y-79506284D01*
X118680688Y-79544305D01*
X118620989Y-79759570D01*
X118597251Y-79981695D01*
X118597548Y-79986848D01*
X118597548Y-79986851D01*
X118609064Y-80186574D01*
X118610110Y-80204715D01*
X118611247Y-80209761D01*
X118611248Y-80209767D01*
X118633725Y-80309500D01*
X118659222Y-80422639D01*
X118661166Y-80427426D01*
X118661167Y-80427430D01*
X118671589Y-80453097D01*
X118678685Y-80523738D01*
X118646462Y-80587001D01*
X118585152Y-80622801D01*
X118554846Y-80626500D01*
X117607031Y-80626500D01*
X117538910Y-80606498D01*
X117492417Y-80552842D01*
X117482313Y-80482568D01*
X117486473Y-80463871D01*
X117535377Y-80302910D01*
X117537555Y-80292837D01*
X117538986Y-80281962D01*
X117536775Y-80267778D01*
X117523617Y-80264000D01*
X116477115Y-80264000D01*
X116461876Y-80268475D01*
X116460671Y-80269865D01*
X116459000Y-80277548D01*
X116459000Y-80500500D01*
X116438998Y-80568621D01*
X116385342Y-80615114D01*
X116333000Y-80626500D01*
X116077000Y-80626500D01*
X116008879Y-80606498D01*
X115962386Y-80552842D01*
X115951000Y-80500500D01*
X115951000Y-79429020D01*
X115971002Y-79360899D01*
X116024658Y-79314406D01*
X116077000Y-79303020D01*
X116333000Y-79303020D01*
X116401121Y-79323022D01*
G37*
%TD.AperFunction*%
M02*
