%TF.GenerationSoftware,KiCad,Pcbnew,(6.0.0-0)*%
%TF.CreationDate,2023-01-27T15:23:15+00:00*%
%TF.ProjectId,Userport RTC,55736572-706f-4727-9420-5254432e6b69,rev?*%
%TF.SameCoordinates,Original*%
%TF.FileFunction,Legend,Top*%
%TF.FilePolarity,Positive*%
%FSLAX46Y46*%
G04 Gerber Fmt 4.6, Leading zero omitted, Abs format (unit mm)*
G04 Created by KiCad (PCBNEW (6.0.0-0)) date 2023-01-27 15:23:15*
%MOMM*%
%LPD*%
G01*
G04 APERTURE LIST*
G04 Aperture macros list*
%AMRoundRect*
0 Rectangle with rounded corners*
0 $1 Rounding radius*
0 $2 $3 $4 $5 $6 $7 $8 $9 X,Y pos of 4 corners*
0 Add a 4 corners polygon primitive as box body*
4,1,4,$2,$3,$4,$5,$6,$7,$8,$9,$2,$3,0*
0 Add four circle primitives for the rounded corners*
1,1,$1+$1,$2,$3*
1,1,$1+$1,$4,$5*
1,1,$1+$1,$6,$7*
1,1,$1+$1,$8,$9*
0 Add four rect primitives between the rounded corners*
20,1,$1+$1,$2,$3,$4,$5,0*
20,1,$1+$1,$4,$5,$6,$7,0*
20,1,$1+$1,$6,$7,$8,$9,0*
20,1,$1+$1,$8,$9,$2,$3,0*%
G04 Aperture macros list end*
%ADD10C,0.150000*%
%ADD11C,0.120000*%
%ADD12RoundRect,0.150000X-0.825000X-0.150000X0.825000X-0.150000X0.825000X0.150000X-0.825000X0.150000X0*%
%ADD13R,1.200000X1.200000*%
%ADD14C,1.200000*%
%ADD15RoundRect,0.250000X0.625000X-0.400000X0.625000X0.400000X-0.625000X0.400000X-0.625000X-0.400000X0*%
%ADD16RoundRect,0.150000X0.512500X0.150000X-0.512500X0.150000X-0.512500X-0.150000X0.512500X-0.150000X0*%
%ADD17RoundRect,0.250000X0.412500X0.650000X-0.412500X0.650000X-0.412500X-0.650000X0.412500X-0.650000X0*%
%ADD18RoundRect,0.100000X-0.637500X-0.100000X0.637500X-0.100000X0.637500X0.100000X-0.637500X0.100000X0*%
%ADD19C,1.000000*%
%ADD20RoundRect,0.250000X-0.400000X-0.625000X0.400000X-0.625000X0.400000X0.625000X-0.400000X0.625000X0*%
%ADD21R,1.700000X1.700000*%
%ADD22O,1.700000X1.700000*%
%ADD23C,1.700000*%
G04 APERTURE END LIST*
D10*
X136398095Y-92572380D02*
X136398095Y-93381904D01*
X136445714Y-93477142D01*
X136493333Y-93524761D01*
X136588571Y-93572380D01*
X136779047Y-93572380D01*
X136874285Y-93524761D01*
X136921904Y-93477142D01*
X136969523Y-93381904D01*
X136969523Y-92572380D01*
X137350476Y-92572380D02*
X137969523Y-92572380D01*
X137636190Y-92953333D01*
X137779047Y-92953333D01*
X137874285Y-93000952D01*
X137921904Y-93048571D01*
X137969523Y-93143809D01*
X137969523Y-93381904D01*
X137921904Y-93477142D01*
X137874285Y-93524761D01*
X137779047Y-93572380D01*
X137493333Y-93572380D01*
X137398095Y-93524761D01*
X137350476Y-93477142D01*
X128087380Y-96686666D02*
X127611190Y-97020000D01*
X128087380Y-97258095D02*
X127087380Y-97258095D01*
X127087380Y-96877142D01*
X127135000Y-96781904D01*
X127182619Y-96734285D01*
X127277857Y-96686666D01*
X127420714Y-96686666D01*
X127515952Y-96734285D01*
X127563571Y-96781904D01*
X127611190Y-96877142D01*
X127611190Y-97258095D01*
X127182619Y-96305714D02*
X127135000Y-96258095D01*
X127087380Y-96162857D01*
X127087380Y-95924761D01*
X127135000Y-95829523D01*
X127182619Y-95781904D01*
X127277857Y-95734285D01*
X127373095Y-95734285D01*
X127515952Y-95781904D01*
X128087380Y-96353333D01*
X128087380Y-95734285D01*
X140843095Y-88352380D02*
X140843095Y-89161904D01*
X140890714Y-89257142D01*
X140938333Y-89304761D01*
X141033571Y-89352380D01*
X141224047Y-89352380D01*
X141319285Y-89304761D01*
X141366904Y-89257142D01*
X141414523Y-89161904D01*
X141414523Y-88352380D01*
X141843095Y-88447619D02*
X141890714Y-88400000D01*
X141985952Y-88352380D01*
X142224047Y-88352380D01*
X142319285Y-88400000D01*
X142366904Y-88447619D01*
X142414523Y-88542857D01*
X142414523Y-88638095D01*
X142366904Y-88780952D01*
X141795476Y-89352380D01*
X142414523Y-89352380D01*
X144613333Y-75922142D02*
X144565714Y-75969761D01*
X144422857Y-76017380D01*
X144327619Y-76017380D01*
X144184761Y-75969761D01*
X144089523Y-75874523D01*
X144041904Y-75779285D01*
X143994285Y-75588809D01*
X143994285Y-75445952D01*
X144041904Y-75255476D01*
X144089523Y-75160238D01*
X144184761Y-75065000D01*
X144327619Y-75017380D01*
X144422857Y-75017380D01*
X144565714Y-75065000D01*
X144613333Y-75112619D01*
X144946666Y-75017380D02*
X145565714Y-75017380D01*
X145232380Y-75398333D01*
X145375238Y-75398333D01*
X145470476Y-75445952D01*
X145518095Y-75493571D01*
X145565714Y-75588809D01*
X145565714Y-75826904D01*
X145518095Y-75922142D01*
X145470476Y-75969761D01*
X145375238Y-76017380D01*
X145089523Y-76017380D01*
X144994285Y-75969761D01*
X144946666Y-75922142D01*
X140208095Y-78192380D02*
X140208095Y-79001904D01*
X140255714Y-79097142D01*
X140303333Y-79144761D01*
X140398571Y-79192380D01*
X140589047Y-79192380D01*
X140684285Y-79144761D01*
X140731904Y-79097142D01*
X140779523Y-79001904D01*
X140779523Y-78192380D01*
X141684285Y-78525714D02*
X141684285Y-79192380D01*
X141446190Y-78144761D02*
X141208095Y-78859047D01*
X141827142Y-78859047D01*
X150368095Y-99147380D02*
X150368095Y-99956904D01*
X150415714Y-100052142D01*
X150463333Y-100099761D01*
X150558571Y-100147380D01*
X150749047Y-100147380D01*
X150844285Y-100099761D01*
X150891904Y-100052142D01*
X150939523Y-99956904D01*
X150939523Y-99147380D01*
X151939523Y-100147380D02*
X151368095Y-100147380D01*
X151653809Y-100147380D02*
X151653809Y-99147380D01*
X151558571Y-99290238D01*
X151463333Y-99385476D01*
X151368095Y-99433095D01*
X134616190Y-80651190D02*
X135092380Y-80651190D01*
X134092380Y-80984523D02*
X134616190Y-80651190D01*
X134092380Y-80317857D01*
X135092380Y-79460714D02*
X135092380Y-80032142D01*
X135092380Y-79746428D02*
X134092380Y-79746428D01*
X134235238Y-79841666D01*
X134330476Y-79936904D01*
X134378095Y-80032142D01*
X130643333Y-80462380D02*
X130310000Y-79986190D01*
X130071904Y-80462380D02*
X130071904Y-79462380D01*
X130452857Y-79462380D01*
X130548095Y-79510000D01*
X130595714Y-79557619D01*
X130643333Y-79652857D01*
X130643333Y-79795714D01*
X130595714Y-79890952D01*
X130548095Y-79938571D01*
X130452857Y-79986190D01*
X130071904Y-79986190D01*
X130976666Y-79462380D02*
X131595714Y-79462380D01*
X131262380Y-79843333D01*
X131405238Y-79843333D01*
X131500476Y-79890952D01*
X131548095Y-79938571D01*
X131595714Y-80033809D01*
X131595714Y-80271904D01*
X131548095Y-80367142D01*
X131500476Y-80414761D01*
X131405238Y-80462380D01*
X131119523Y-80462380D01*
X131024285Y-80414761D01*
X130976666Y-80367142D01*
X130643333Y-77922380D02*
X130310000Y-77446190D01*
X130071904Y-77922380D02*
X130071904Y-76922380D01*
X130452857Y-76922380D01*
X130548095Y-76970000D01*
X130595714Y-77017619D01*
X130643333Y-77112857D01*
X130643333Y-77255714D01*
X130595714Y-77350952D01*
X130548095Y-77398571D01*
X130452857Y-77446190D01*
X130071904Y-77446190D01*
X131548095Y-76922380D02*
X131071904Y-76922380D01*
X131024285Y-77398571D01*
X131071904Y-77350952D01*
X131167142Y-77303333D01*
X131405238Y-77303333D01*
X131500476Y-77350952D01*
X131548095Y-77398571D01*
X131595714Y-77493809D01*
X131595714Y-77731904D01*
X131548095Y-77827142D01*
X131500476Y-77874761D01*
X131405238Y-77922380D01*
X131167142Y-77922380D01*
X131071904Y-77874761D01*
X131024285Y-77827142D01*
X135723333Y-89892142D02*
X135675714Y-89939761D01*
X135532857Y-89987380D01*
X135437619Y-89987380D01*
X135294761Y-89939761D01*
X135199523Y-89844523D01*
X135151904Y-89749285D01*
X135104285Y-89558809D01*
X135104285Y-89415952D01*
X135151904Y-89225476D01*
X135199523Y-89130238D01*
X135294761Y-89035000D01*
X135437619Y-88987380D01*
X135532857Y-88987380D01*
X135675714Y-89035000D01*
X135723333Y-89082619D01*
X136675714Y-89987380D02*
X136104285Y-89987380D01*
X136390000Y-89987380D02*
X136390000Y-88987380D01*
X136294761Y-89130238D01*
X136199523Y-89225476D01*
X136104285Y-89273095D01*
X130643333Y-83002380D02*
X130310000Y-82526190D01*
X130071904Y-83002380D02*
X130071904Y-82002380D01*
X130452857Y-82002380D01*
X130548095Y-82050000D01*
X130595714Y-82097619D01*
X130643333Y-82192857D01*
X130643333Y-82335714D01*
X130595714Y-82430952D01*
X130548095Y-82478571D01*
X130452857Y-82526190D01*
X130071904Y-82526190D01*
X131500476Y-82335714D02*
X131500476Y-83002380D01*
X131262380Y-81954761D02*
X131024285Y-82669047D01*
X131643333Y-82669047D01*
X152868333Y-89987380D02*
X152535000Y-89511190D01*
X152296904Y-89987380D02*
X152296904Y-88987380D01*
X152677857Y-88987380D01*
X152773095Y-89035000D01*
X152820714Y-89082619D01*
X152868333Y-89177857D01*
X152868333Y-89320714D01*
X152820714Y-89415952D01*
X152773095Y-89463571D01*
X152677857Y-89511190D01*
X152296904Y-89511190D01*
X153820714Y-89987380D02*
X153249285Y-89987380D01*
X153535000Y-89987380D02*
X153535000Y-88987380D01*
X153439761Y-89130238D01*
X153344523Y-89225476D01*
X153249285Y-89273095D01*
D11*
X137160000Y-99080000D02*
X139110000Y-99080000D01*
X137160000Y-99080000D02*
X135210000Y-99080000D01*
X137160000Y-93960000D02*
X139110000Y-93960000D01*
X137160000Y-93960000D02*
X133710000Y-93960000D01*
X126640000Y-97247064D02*
X126640000Y-95792936D01*
X124820000Y-97247064D02*
X124820000Y-95792936D01*
X144780000Y-86705000D02*
X143980000Y-86705000D01*
X144780000Y-89825000D02*
X146580000Y-89825000D01*
X144780000Y-89825000D02*
X143980000Y-89825000D01*
X144780000Y-86705000D02*
X145580000Y-86705000D01*
X145491252Y-78380000D02*
X144068748Y-78380000D01*
X145491252Y-76560000D02*
X144068748Y-76560000D01*
X144780000Y-79940000D02*
X141180000Y-79940000D01*
X144780000Y-85160000D02*
X146980000Y-85160000D01*
X144780000Y-85160000D02*
X142580000Y-85160000D01*
X144780000Y-79940000D02*
X146980000Y-79940000D01*
X146050000Y-100320000D02*
X144100000Y-100320000D01*
X146050000Y-91450000D02*
X142600000Y-91450000D01*
X146050000Y-100320000D02*
X148000000Y-100320000D01*
X146050000Y-91450000D02*
X148000000Y-91450000D01*
X135960000Y-86750000D02*
X138360000Y-86750000D01*
X135960000Y-80350000D02*
X135960000Y-86750000D01*
X137510000Y-80350000D02*
X138110000Y-79450000D01*
X136810000Y-80350000D02*
X136210000Y-79450000D01*
X136210000Y-79450000D02*
X136210000Y-79250000D01*
X138110000Y-79450000D02*
X138110000Y-79250000D01*
X138360000Y-80350000D02*
X135960000Y-80350000D01*
X138360000Y-86750000D02*
X138360000Y-80350000D01*
X126272936Y-79100000D02*
X127727064Y-79100000D01*
X126272936Y-80920000D02*
X127727064Y-80920000D01*
X126272936Y-76560000D02*
X127727064Y-76560000D01*
X126272936Y-78380000D02*
X127727064Y-78380000D01*
X137871252Y-90530000D02*
X136448748Y-90530000D01*
X137871252Y-92350000D02*
X136448748Y-92350000D01*
X126272936Y-81640000D02*
X127727064Y-81640000D01*
X126272936Y-83460000D02*
X127727064Y-83460000D01*
X149132936Y-88625000D02*
X150587064Y-88625000D01*
X149132936Y-90445000D02*
X150587064Y-90445000D01*
%LPC*%
D12*
X134685000Y-94615000D03*
X134685000Y-95885000D03*
X134685000Y-97155000D03*
X134685000Y-98425000D03*
X139635000Y-98425000D03*
X139635000Y-97155000D03*
X139635000Y-95885000D03*
X139635000Y-94615000D03*
D13*
X151130000Y-92075000D03*
D14*
X152630000Y-92075000D03*
D15*
X125730000Y-98070000D03*
X125730000Y-94970000D03*
D16*
X145917500Y-89215000D03*
X145917500Y-88265000D03*
X145917500Y-87315000D03*
X143642500Y-87315000D03*
X143642500Y-89215000D03*
D17*
X146342500Y-77470000D03*
X143217500Y-77470000D03*
D18*
X141917500Y-80600000D03*
X141917500Y-81250000D03*
X141917500Y-81900000D03*
X141917500Y-82550000D03*
X141917500Y-83200000D03*
X141917500Y-83850000D03*
X141917500Y-84500000D03*
X147642500Y-84500000D03*
X147642500Y-83850000D03*
X147642500Y-83200000D03*
X147642500Y-82550000D03*
X147642500Y-81900000D03*
X147642500Y-81250000D03*
X147642500Y-80600000D03*
D12*
X143575000Y-92075000D03*
X143575000Y-93345000D03*
X143575000Y-94615000D03*
X143575000Y-95885000D03*
X143575000Y-97155000D03*
X143575000Y-98425000D03*
X143575000Y-99695000D03*
X148525000Y-99695000D03*
X148525000Y-98425000D03*
X148525000Y-97155000D03*
X148525000Y-95885000D03*
X148525000Y-94615000D03*
X148525000Y-93345000D03*
X148525000Y-92075000D03*
D19*
X136210000Y-78550000D03*
X138110000Y-78550000D03*
D20*
X125450000Y-80010000D03*
X128550000Y-80010000D03*
X125450000Y-77470000D03*
X128550000Y-77470000D03*
D17*
X138722500Y-91440000D03*
X135597500Y-91440000D03*
D20*
X125450000Y-82550000D03*
X128550000Y-82550000D03*
X148310000Y-89535000D03*
X151410000Y-89535000D03*
D21*
X153040000Y-86290000D03*
D22*
X150500000Y-86290000D03*
D21*
X116205000Y-100330000D03*
D22*
X113665000Y-100330000D03*
X116205000Y-97790000D03*
X113665000Y-97790000D03*
X116205000Y-95250000D03*
X113665000Y-95250000D03*
X116205000Y-92710000D03*
X113665000Y-92710000D03*
X116205000Y-90170000D03*
X113665000Y-90170000D03*
X116205000Y-87630000D03*
X113665000Y-87630000D03*
X116205000Y-85090000D03*
X113665000Y-85090000D03*
X116205000Y-82550000D03*
X113665000Y-82550000D03*
X116205000Y-80010000D03*
X113665000Y-80010000D03*
X116205000Y-77470000D03*
X113665000Y-77470000D03*
D21*
X122500000Y-77475000D03*
D23*
X119960000Y-77475000D03*
D22*
X122500000Y-80015000D03*
X119960000Y-80015000D03*
X122500000Y-82555000D03*
X119960000Y-82555000D03*
X122500000Y-85095000D03*
X119960000Y-85095000D03*
X122500000Y-87635000D03*
X119960000Y-87635000D03*
X122500000Y-90175000D03*
X119960000Y-90175000D03*
X122500000Y-92715000D03*
X119960000Y-92715000D03*
X122500000Y-95255000D03*
X119960000Y-95255000D03*
X122500000Y-97795000D03*
X119960000Y-97795000D03*
X122500000Y-100335000D03*
X119960000Y-100335000D03*
M02*
