%TF.GenerationSoftware,KiCad,Pcbnew,(6.0.0-0)*%
%TF.CreationDate,2023-01-27T15:23:16+00:00*%
%TF.ProjectId,Userport RTC,55736572-706f-4727-9420-5254432e6b69,rev?*%
%TF.SameCoordinates,Original*%
%TF.FileFunction,Soldermask,Bot*%
%TF.FilePolarity,Negative*%
%FSLAX46Y46*%
G04 Gerber Fmt 4.6, Leading zero omitted, Abs format (unit mm)*
G04 Created by KiCad (PCBNEW (6.0.0-0)) date 2023-01-27 15:23:16*
%MOMM*%
%LPD*%
G01*
G04 APERTURE LIST*
%ADD10R,1.200000X1.200000*%
%ADD11C,1.200000*%
%ADD12C,1.000000*%
%ADD13R,1.700000X1.700000*%
%ADD14O,1.700000X1.700000*%
%ADD15C,1.700000*%
G04 APERTURE END LIST*
D10*
X151130000Y-92075000D03*
D11*
X152630000Y-92075000D03*
D12*
X136210000Y-78550000D03*
X138110000Y-78550000D03*
D13*
X153040000Y-86290000D03*
D14*
X150500000Y-86290000D03*
D13*
X116205000Y-100330000D03*
D14*
X113665000Y-100330000D03*
X116205000Y-97790000D03*
X113665000Y-97790000D03*
X116205000Y-95250000D03*
X113665000Y-95250000D03*
X116205000Y-92710000D03*
X113665000Y-92710000D03*
X116205000Y-90170000D03*
X113665000Y-90170000D03*
X116205000Y-87630000D03*
X113665000Y-87630000D03*
X116205000Y-85090000D03*
X113665000Y-85090000D03*
X116205000Y-82550000D03*
X113665000Y-82550000D03*
X116205000Y-80010000D03*
X113665000Y-80010000D03*
X116205000Y-77470000D03*
X113665000Y-77470000D03*
D13*
X122500000Y-77475000D03*
D15*
X119960000Y-77475000D03*
D14*
X122500000Y-80015000D03*
X119960000Y-80015000D03*
X122500000Y-82555000D03*
X119960000Y-82555000D03*
X122500000Y-85095000D03*
X119960000Y-85095000D03*
X122500000Y-87635000D03*
X119960000Y-87635000D03*
X122500000Y-90175000D03*
X119960000Y-90175000D03*
X122500000Y-92715000D03*
X119960000Y-92715000D03*
X122500000Y-95255000D03*
X119960000Y-95255000D03*
X122500000Y-97795000D03*
X119960000Y-97795000D03*
X122500000Y-100335000D03*
X119960000Y-100335000D03*
M02*
