M48
; DRILL file {KiCad (6.0.0-0)} date Friday, 27 January 2023 at 15:23:28
; FORMAT={-:-/ absolute / metric / decimal}
; #@! TF.CreationDate,2023-01-27T15:23:28+00:00
; #@! TF.GenerationSoftware,Kicad,Pcbnew,(6.0.0-0)
; #@! TF.FileFunction,Plated,1,2,PTH
FMAT,2
METRIC
; #@! TA.AperFunction,Plated,PTH,ViaDrill
T1C0.400
; #@! TA.AperFunction,Plated,PTH,ViaDrill
T2C0.500
; #@! TA.AperFunction,Plated,PTH,ComponentDrill
T3C0.500
; #@! TA.AperFunction,Plated,PTH,ComponentDrill
T4C0.600
; #@! TA.AperFunction,Plated,PTH,ComponentDrill
T5C1.000
%
G90
G05
T1
X130.81Y-80.01
X132.08Y-93.98
X135.255Y-85.09
X138.43Y-100.33
X139.7Y-85.09
X140.97Y-92.075
X141.605Y-93.345
X141.605Y-95.25
X145.415Y-83.185
X146.05Y-94.615
X146.05Y-97.155
T2
X127.0Y-82.55
X129.545Y-92.715
X130.81Y-97.525
X137.16Y-97.79
T3
X136.21Y-78.55
X138.11Y-78.55
T4
X151.13Y-92.075
X152.63Y-92.075
T5
X113.665Y-77.47
X113.665Y-80.01
X113.665Y-82.55
X113.665Y-85.09
X113.665Y-87.63
X113.665Y-90.17
X113.665Y-92.71
X113.665Y-95.25
X113.665Y-97.79
X113.665Y-100.33
X116.205Y-77.47
X116.205Y-80.01
X116.205Y-82.55
X116.205Y-85.09
X116.205Y-87.63
X116.205Y-90.17
X116.205Y-92.71
X116.205Y-95.25
X116.205Y-97.79
X116.205Y-100.33
X119.96Y-77.475
X119.96Y-80.015
X119.96Y-82.555
X119.96Y-85.095
X119.96Y-87.635
X119.96Y-90.175
X119.96Y-92.715
X119.96Y-95.255
X119.96Y-97.795
X119.96Y-100.335
X122.5Y-77.475
X122.5Y-80.015
X122.5Y-82.555
X122.5Y-85.095
X122.5Y-87.635
X122.5Y-90.175
X122.5Y-92.715
X122.5Y-95.255
X122.5Y-97.795
X122.5Y-100.335
X150.5Y-86.29
X153.04Y-86.29
T0
M30
