%TF.GenerationSoftware,KiCad,Pcbnew,(6.0.0-0)*%
%TF.CreationDate,2023-01-27T15:23:15+00:00*%
%TF.ProjectId,Userport RTC,55736572-706f-4727-9420-5254432e6b69,rev?*%
%TF.SameCoordinates,Original*%
%TF.FileFunction,Copper,L2,Bot*%
%TF.FilePolarity,Positive*%
%FSLAX46Y46*%
G04 Gerber Fmt 4.6, Leading zero omitted, Abs format (unit mm)*
G04 Created by KiCad (PCBNEW (6.0.0-0)) date 2023-01-27 15:23:15*
%MOMM*%
%LPD*%
G01*
G04 APERTURE LIST*
%TA.AperFunction,ComponentPad*%
%ADD10R,1.200000X1.200000*%
%TD*%
%TA.AperFunction,ComponentPad*%
%ADD11C,1.200000*%
%TD*%
%TA.AperFunction,ComponentPad*%
%ADD12C,1.000000*%
%TD*%
%TA.AperFunction,ComponentPad*%
%ADD13R,1.700000X1.700000*%
%TD*%
%TA.AperFunction,ComponentPad*%
%ADD14O,1.700000X1.700000*%
%TD*%
%TA.AperFunction,ComponentPad*%
%ADD15C,1.700000*%
%TD*%
%TA.AperFunction,ViaPad*%
%ADD16C,1.000000*%
%TD*%
%TA.AperFunction,ViaPad*%
%ADD17C,0.800000*%
%TD*%
%TA.AperFunction,Conductor*%
%ADD18C,0.400000*%
%TD*%
%TA.AperFunction,Conductor*%
%ADD19C,0.250000*%
%TD*%
G04 APERTURE END LIST*
D10*
X151130000Y-92075000D03*
D11*
X152630000Y-92075000D03*
D12*
X136210000Y-78550000D03*
X138110000Y-78550000D03*
D13*
X153040000Y-86290000D03*
D14*
X150500000Y-86290000D03*
D13*
X116205000Y-100330000D03*
D14*
X113665000Y-100330000D03*
X116205000Y-97790000D03*
X113665000Y-97790000D03*
X116205000Y-95250000D03*
X113665000Y-95250000D03*
X116205000Y-92710000D03*
X113665000Y-92710000D03*
X116205000Y-90170000D03*
X113665000Y-90170000D03*
X116205000Y-87630000D03*
X113665000Y-87630000D03*
X116205000Y-85090000D03*
X113665000Y-85090000D03*
X116205000Y-82550000D03*
X113665000Y-82550000D03*
X116205000Y-80010000D03*
X113665000Y-80010000D03*
X116205000Y-77470000D03*
X113665000Y-77470000D03*
D13*
X122500000Y-77475000D03*
D15*
X119960000Y-77475000D03*
D14*
X122500000Y-80015000D03*
X119960000Y-80015000D03*
X122500000Y-82555000D03*
X119960000Y-82555000D03*
X122500000Y-85095000D03*
X119960000Y-85095000D03*
X122500000Y-87635000D03*
X119960000Y-87635000D03*
X122500000Y-90175000D03*
X119960000Y-90175000D03*
X122500000Y-92715000D03*
X119960000Y-92715000D03*
X122500000Y-95255000D03*
X119960000Y-95255000D03*
X122500000Y-97795000D03*
X119960000Y-97795000D03*
X122500000Y-100335000D03*
X119960000Y-100335000D03*
D16*
X130810000Y-97525500D03*
X127000000Y-82550000D03*
X137160000Y-97790000D03*
X129545000Y-92715000D03*
D17*
X145415000Y-83185000D03*
X138430000Y-100330000D03*
X146050000Y-97155000D03*
X141605000Y-93345000D03*
X135255000Y-85090000D03*
X132080000Y-93980000D03*
X140970000Y-92075000D03*
X130810000Y-80010000D03*
X146050000Y-94615000D03*
X141605000Y-95250000D03*
X139700000Y-85090000D03*
D18*
X123869511Y-81264511D02*
X123869511Y-81959511D01*
X123869511Y-81959511D02*
X123869511Y-97199511D01*
X123869511Y-97199511D02*
X123869511Y-100920489D01*
X123205489Y-101584511D02*
X117490489Y-101584511D01*
X122620000Y-80015000D02*
X123869511Y-81264511D01*
X123869511Y-100920489D02*
X123205489Y-101584511D01*
X130810000Y-97525500D02*
X130174989Y-96890489D01*
X124178533Y-96890489D02*
X123869511Y-97199511D01*
X126409511Y-81959511D02*
X123869511Y-81959511D01*
X116205000Y-97790000D02*
X116205000Y-100330000D01*
X117475000Y-101600000D02*
X116205000Y-100330000D01*
X127000000Y-82550000D02*
X126409511Y-81959511D01*
X130174989Y-96890489D02*
X124178533Y-96890489D01*
X122620000Y-77475000D02*
X122620000Y-80015000D01*
X117490489Y-101584511D02*
X117475000Y-101600000D01*
X122620000Y-97795000D02*
X122620000Y-95255000D01*
X122620000Y-82555000D02*
X122620000Y-85095000D01*
X116205000Y-87630000D02*
X116205000Y-90170000D01*
X129545000Y-92715000D02*
X132080000Y-95250000D01*
X132080000Y-95250000D02*
X132080000Y-96520000D01*
X122620000Y-97795000D02*
X122620000Y-100335000D01*
X116205000Y-90170000D02*
X116205000Y-92710000D01*
X116205000Y-80010000D02*
X116205000Y-82550000D01*
X116205000Y-77470000D02*
X116205000Y-80010000D01*
X122620000Y-95255000D02*
X122620000Y-92715000D01*
X116205000Y-82550000D02*
X116205000Y-85090000D01*
X133350000Y-97790000D02*
X137160000Y-97790000D01*
X122620000Y-87635000D02*
X122620000Y-85095000D01*
X122620000Y-90175000D02*
X122620000Y-87635000D01*
X132080000Y-96520000D02*
X133350000Y-97790000D01*
X116205000Y-92710000D02*
X116205000Y-95250000D01*
X122620000Y-90175000D02*
X122620000Y-92715000D01*
D19*
X142875000Y-100330000D02*
X146050000Y-97155000D01*
X138430000Y-100330000D02*
X142875000Y-100330000D01*
X145415000Y-83185000D02*
X146774511Y-84544511D01*
X146774511Y-96430489D02*
X146050000Y-97155000D01*
X146774511Y-84544511D02*
X146774511Y-96430489D01*
X117725489Y-77329479D02*
X116576010Y-76180000D01*
X116576010Y-76180000D02*
X113120000Y-76180000D01*
X112490489Y-96615489D02*
X113665000Y-97790000D01*
X117670505Y-77665505D02*
X117670505Y-77274495D01*
X113120000Y-76180000D02*
X112490489Y-76809511D01*
X120015000Y-80010000D02*
X117670505Y-77665505D01*
X112490489Y-76809511D02*
X112490489Y-96615489D01*
X114915000Y-96500000D02*
X113665000Y-95250000D01*
X121254511Y-93375489D02*
X121254511Y-95741499D01*
X121254511Y-83729511D02*
X121254511Y-93375489D01*
X120080000Y-82555000D02*
X121254511Y-83729511D01*
X121254511Y-95671499D02*
X120426010Y-96500000D01*
X120426010Y-96500000D02*
X114915000Y-96500000D01*
X121254511Y-93375489D02*
X121254511Y-95671499D01*
X116576010Y-86340000D02*
X114915000Y-86340000D01*
X120015000Y-92710000D02*
X117570489Y-90265489D01*
X117379511Y-90265489D02*
X117379511Y-87143501D01*
X117570489Y-90265489D02*
X117379511Y-90265489D01*
X114915000Y-86340000D02*
X113665000Y-85090000D01*
X117379511Y-87143501D02*
X116576010Y-86340000D01*
X135255000Y-85090000D02*
X138184614Y-85090000D01*
X138184614Y-85090000D02*
X142240000Y-89145386D01*
X142240000Y-89145386D02*
X142240000Y-92710000D01*
X142240000Y-92710000D02*
X141605000Y-93345000D01*
X133985000Y-92075000D02*
X132080000Y-93980000D01*
X133985000Y-91440000D02*
X133985000Y-92075000D01*
X133985000Y-83185000D02*
X133985000Y-91440000D01*
X130810000Y-80010000D02*
X133985000Y-83185000D01*
X140970000Y-92075000D02*
X133985000Y-92075000D01*
X136525000Y-75565000D02*
X127000000Y-75565000D01*
X146050000Y-85090000D02*
X136525000Y-75565000D01*
X121920000Y-75565000D02*
X127000000Y-75565000D01*
X120015000Y-77470000D02*
X121920000Y-75565000D01*
X146050000Y-94615000D02*
X146050000Y-85090000D01*
X142875000Y-93980000D02*
X142875000Y-86995000D01*
X140970000Y-85090000D02*
X139700000Y-85090000D01*
X142875000Y-86995000D02*
X140970000Y-85090000D01*
X141605000Y-95250000D02*
X142875000Y-93980000D01*
%TA.AperFunction,Conductor*%
G36*
X154374121Y-75438002D02*
G01*
X154420614Y-75491658D01*
X154432000Y-75544000D01*
X154432000Y-84958806D01*
X154411998Y-85026927D01*
X154358342Y-85073420D01*
X154288068Y-85083524D01*
X154230435Y-85059632D01*
X154186797Y-85026927D01*
X154136705Y-84989385D01*
X154000316Y-84938255D01*
X153938134Y-84931500D01*
X152141866Y-84931500D01*
X152079684Y-84938255D01*
X151943295Y-84989385D01*
X151826739Y-85076739D01*
X151739385Y-85193295D01*
X151736233Y-85201704D01*
X151736232Y-85201705D01*
X151694722Y-85312433D01*
X151652081Y-85369198D01*
X151585519Y-85393898D01*
X151516170Y-85378691D01*
X151483546Y-85353004D01*
X151432799Y-85297234D01*
X151425273Y-85290215D01*
X151258139Y-85158222D01*
X151249552Y-85152517D01*
X151063117Y-85049599D01*
X151053705Y-85045369D01*
X150852959Y-84974280D01*
X150842988Y-84971646D01*
X150771837Y-84958972D01*
X150758540Y-84960432D01*
X150754000Y-84974989D01*
X150754000Y-87608517D01*
X150758064Y-87622359D01*
X150771478Y-87624393D01*
X150778184Y-87623534D01*
X150788262Y-87621392D01*
X150992255Y-87560191D01*
X151001842Y-87556433D01*
X151193095Y-87462739D01*
X151201945Y-87457464D01*
X151375328Y-87333792D01*
X151383193Y-87327145D01*
X151487897Y-87222805D01*
X151550268Y-87188889D01*
X151621075Y-87194077D01*
X151677837Y-87236723D01*
X151694819Y-87267826D01*
X151739385Y-87386705D01*
X151826739Y-87503261D01*
X151943295Y-87590615D01*
X152079684Y-87641745D01*
X152141866Y-87648500D01*
X153938134Y-87648500D01*
X154000316Y-87641745D01*
X154136705Y-87590615D01*
X154230435Y-87520368D01*
X154296941Y-87495520D01*
X154366324Y-87510573D01*
X154416554Y-87560747D01*
X154432000Y-87621194D01*
X154432000Y-102216000D01*
X154411998Y-102284121D01*
X154358342Y-102330614D01*
X154306000Y-102342000D01*
X123757580Y-102342000D01*
X123689459Y-102321998D01*
X123642966Y-102268342D01*
X123632862Y-102198068D01*
X123662356Y-102133488D01*
X123672414Y-102123343D01*
X123677470Y-102119868D01*
X123718925Y-102073340D01*
X123723905Y-102068065D01*
X124350031Y-101441939D01*
X124356296Y-101436085D01*
X124367048Y-101426705D01*
X124399896Y-101398050D01*
X124436640Y-101345769D01*
X124440572Y-101340475D01*
X124475302Y-101296182D01*
X124479987Y-101290207D01*
X124483110Y-101283291D01*
X124484494Y-101281005D01*
X124492868Y-101266324D01*
X124494133Y-101263964D01*
X124498501Y-101257750D01*
X124521714Y-101198212D01*
X124524270Y-101192131D01*
X124547429Y-101140841D01*
X124550556Y-101133916D01*
X124551940Y-101126449D01*
X124552741Y-101123894D01*
X124557370Y-101107641D01*
X124558033Y-101105061D01*
X124560793Y-101097980D01*
X124569133Y-101034628D01*
X124570164Y-101028121D01*
X124578602Y-100982598D01*
X124581807Y-100965303D01*
X124578371Y-100905707D01*
X124578220Y-100903097D01*
X124578011Y-100895843D01*
X124578011Y-97724989D01*
X124598013Y-97656868D01*
X124651669Y-97610375D01*
X124704011Y-97598989D01*
X129688813Y-97598989D01*
X129756934Y-97618991D01*
X129803427Y-97672647D01*
X129812743Y-97702242D01*
X129812752Y-97702293D01*
X129813268Y-97708434D01*
X129814967Y-97714358D01*
X129814967Y-97714360D01*
X129857185Y-97861590D01*
X129867783Y-97898550D01*
X129958187Y-98074456D01*
X130081035Y-98229453D01*
X130085728Y-98233447D01*
X130085729Y-98233448D01*
X130160181Y-98296811D01*
X130231650Y-98357636D01*
X130404294Y-98454124D01*
X130592392Y-98515240D01*
X130788777Y-98538658D01*
X130794912Y-98538186D01*
X130794914Y-98538186D01*
X130979830Y-98523957D01*
X130979834Y-98523956D01*
X130985972Y-98523484D01*
X131176463Y-98470298D01*
X131181967Y-98467518D01*
X131181969Y-98467517D01*
X131347495Y-98383904D01*
X131347497Y-98383903D01*
X131352996Y-98381125D01*
X131508847Y-98259361D01*
X131638078Y-98109645D01*
X131735769Y-97937679D01*
X131798197Y-97750013D01*
X131822985Y-97553795D01*
X131823380Y-97525500D01*
X131804080Y-97328667D01*
X131795850Y-97301406D01*
X131777098Y-97239297D01*
X131746916Y-97139331D01*
X131654066Y-96964704D01*
X131576811Y-96869980D01*
X131532960Y-96816213D01*
X131532957Y-96816210D01*
X131529065Y-96811438D01*
X131513862Y-96798861D01*
X131381425Y-96689299D01*
X131381421Y-96689297D01*
X131376675Y-96685370D01*
X131202701Y-96591302D01*
X131013768Y-96532818D01*
X131007643Y-96532174D01*
X131007642Y-96532174D01*
X130944084Y-96525494D01*
X130840820Y-96514641D01*
X130775164Y-96487628D01*
X130764896Y-96478426D01*
X130696439Y-96409969D01*
X130690585Y-96403704D01*
X130664525Y-96373831D01*
X130652550Y-96360104D01*
X130600269Y-96323360D01*
X130594975Y-96319428D01*
X130550682Y-96284698D01*
X130544707Y-96280013D01*
X130537791Y-96276890D01*
X130535505Y-96275506D01*
X130520824Y-96267132D01*
X130518464Y-96265867D01*
X130512250Y-96261499D01*
X130505171Y-96258739D01*
X130505169Y-96258738D01*
X130452714Y-96238287D01*
X130446645Y-96235736D01*
X130388416Y-96209444D01*
X130380949Y-96208060D01*
X130378394Y-96207259D01*
X130362141Y-96202630D01*
X130359561Y-96201967D01*
X130352480Y-96199207D01*
X130344949Y-96198216D01*
X130344947Y-96198215D01*
X130315328Y-96194316D01*
X130289128Y-96190867D01*
X130282630Y-96189837D01*
X130219803Y-96178193D01*
X130212223Y-96178630D01*
X130212222Y-96178630D01*
X130157597Y-96181780D01*
X130150343Y-96181989D01*
X124704011Y-96181989D01*
X124635890Y-96161987D01*
X124589397Y-96108331D01*
X124578011Y-96055989D01*
X124578011Y-90809999D01*
X125131776Y-90809999D01*
X125133488Y-90821952D01*
X125134281Y-90828829D01*
X125150065Y-91009237D01*
X125151489Y-91014551D01*
X125151489Y-91014552D01*
X125186947Y-91146883D01*
X125201828Y-91202422D01*
X125204151Y-91207403D01*
X125204151Y-91207404D01*
X125284025Y-91378696D01*
X125284028Y-91378701D01*
X125286351Y-91383683D01*
X125289507Y-91388190D01*
X125289508Y-91388192D01*
X125387450Y-91528067D01*
X125401066Y-91547513D01*
X125542487Y-91688934D01*
X125546995Y-91692091D01*
X125546998Y-91692093D01*
X125582912Y-91717240D01*
X125706317Y-91803649D01*
X125711299Y-91805972D01*
X125711304Y-91805975D01*
X125841432Y-91866654D01*
X125887578Y-91888172D01*
X125892886Y-91889594D01*
X125892888Y-91889595D01*
X126075448Y-91938511D01*
X126080763Y-91939935D01*
X126086249Y-91940415D01*
X126086255Y-91940416D01*
X126240170Y-91953883D01*
X126250080Y-91955147D01*
X126267462Y-91958071D01*
X126273843Y-91958149D01*
X126275142Y-91958165D01*
X126275146Y-91958165D01*
X126280001Y-91958224D01*
X126307589Y-91954273D01*
X126325452Y-91953000D01*
X132576792Y-91953000D01*
X132597696Y-91954746D01*
X132617460Y-91958071D01*
X132623758Y-91958148D01*
X132625139Y-91958165D01*
X132625143Y-91958165D01*
X132629999Y-91958224D01*
X132641960Y-91956511D01*
X132648829Y-91955719D01*
X132726364Y-91948935D01*
X132829237Y-91939935D01*
X132843314Y-91936163D01*
X132914499Y-91917090D01*
X132985475Y-91918780D01*
X133044271Y-91958575D01*
X133072218Y-92023839D01*
X133060444Y-92093853D01*
X133036207Y-92127889D01*
X132129498Y-93034597D01*
X132067188Y-93068621D01*
X132040405Y-93071500D01*
X131984513Y-93071500D01*
X131978061Y-93072872D01*
X131978056Y-93072872D01*
X131903471Y-93088726D01*
X131797712Y-93111206D01*
X131791682Y-93113891D01*
X131791681Y-93113891D01*
X131629278Y-93186197D01*
X131629276Y-93186198D01*
X131623248Y-93188882D01*
X131468747Y-93301134D01*
X131464326Y-93306044D01*
X131464325Y-93306045D01*
X131368086Y-93412930D01*
X131340960Y-93443056D01*
X131245473Y-93608444D01*
X131186458Y-93790072D01*
X131185768Y-93796633D01*
X131185768Y-93796635D01*
X131178110Y-93869501D01*
X131166496Y-93980000D01*
X131167186Y-93986565D01*
X131185220Y-94158145D01*
X131186458Y-94169928D01*
X131245473Y-94351556D01*
X131248776Y-94357278D01*
X131248777Y-94357279D01*
X131262591Y-94381206D01*
X131340960Y-94516944D01*
X131345378Y-94521851D01*
X131345379Y-94521852D01*
X131389753Y-94571134D01*
X131468747Y-94658866D01*
X131623248Y-94771118D01*
X131629276Y-94773802D01*
X131629278Y-94773803D01*
X131723774Y-94815875D01*
X131797712Y-94848794D01*
X131891113Y-94868647D01*
X131978056Y-94887128D01*
X131978061Y-94887128D01*
X131984513Y-94888500D01*
X132175487Y-94888500D01*
X132181939Y-94887128D01*
X132181944Y-94887128D01*
X132268888Y-94868647D01*
X132362288Y-94848794D01*
X132436226Y-94815875D01*
X132530722Y-94773803D01*
X132530724Y-94773802D01*
X132536752Y-94771118D01*
X132691253Y-94658866D01*
X132770247Y-94571134D01*
X132814621Y-94521852D01*
X132814622Y-94521851D01*
X132819040Y-94516944D01*
X132897409Y-94381206D01*
X132911223Y-94357279D01*
X132911224Y-94357278D01*
X132914527Y-94351556D01*
X132973542Y-94169928D01*
X132974781Y-94158145D01*
X132988485Y-94027749D01*
X132990907Y-94004706D01*
X133017920Y-93939050D01*
X133027122Y-93928782D01*
X134210500Y-92745405D01*
X134272812Y-92711379D01*
X134299595Y-92708500D01*
X140261800Y-92708500D01*
X140329921Y-92728502D01*
X140349147Y-92744843D01*
X140349420Y-92744540D01*
X140354332Y-92748963D01*
X140358747Y-92753866D01*
X140513248Y-92866118D01*
X140519274Y-92868801D01*
X140519281Y-92868805D01*
X140664786Y-92933587D01*
X140718882Y-92979567D01*
X140739532Y-93047494D01*
X140733371Y-93087630D01*
X140723635Y-93117596D01*
X140711458Y-93155072D01*
X140710768Y-93161633D01*
X140710768Y-93161635D01*
X140705026Y-93216267D01*
X140691496Y-93345000D01*
X140692186Y-93351565D01*
X140694057Y-93369362D01*
X140711458Y-93534928D01*
X140770473Y-93716556D01*
X140865960Y-93881944D01*
X140870378Y-93886851D01*
X140870379Y-93886852D01*
X140982737Y-94011638D01*
X140993747Y-94023866D01*
X141068333Y-94078056D01*
X141123036Y-94117800D01*
X141148248Y-94136118D01*
X141154276Y-94138802D01*
X141154278Y-94138803D01*
X141209446Y-94163365D01*
X141239465Y-94176730D01*
X141252184Y-94182393D01*
X141306279Y-94228373D01*
X141326929Y-94296300D01*
X141307577Y-94364608D01*
X141252184Y-94412607D01*
X141154278Y-94456197D01*
X141154276Y-94456198D01*
X141148248Y-94458882D01*
X141142907Y-94462762D01*
X141142906Y-94462763D01*
X141125144Y-94475668D01*
X140993747Y-94571134D01*
X140989326Y-94576044D01*
X140989325Y-94576045D01*
X140911257Y-94662749D01*
X140865960Y-94713056D01*
X140770473Y-94878444D01*
X140711458Y-95060072D01*
X140691496Y-95250000D01*
X140692186Y-95256565D01*
X140708187Y-95408803D01*
X140711458Y-95439928D01*
X140770473Y-95621556D01*
X140773776Y-95627278D01*
X140773777Y-95627279D01*
X140787983Y-95651885D01*
X140865960Y-95786944D01*
X140870378Y-95791851D01*
X140870379Y-95791852D01*
X140934262Y-95862801D01*
X140993747Y-95928866D01*
X141148248Y-96041118D01*
X141154276Y-96043802D01*
X141154278Y-96043803D01*
X141316198Y-96115894D01*
X141322712Y-96118794D01*
X141416112Y-96138647D01*
X141503056Y-96157128D01*
X141503061Y-96157128D01*
X141509513Y-96158500D01*
X141700487Y-96158500D01*
X141706939Y-96157128D01*
X141706944Y-96157128D01*
X141793887Y-96138647D01*
X141887288Y-96118794D01*
X141893802Y-96115894D01*
X142055722Y-96043803D01*
X142055724Y-96043802D01*
X142061752Y-96041118D01*
X142216253Y-95928866D01*
X142275738Y-95862801D01*
X142339621Y-95791852D01*
X142339622Y-95791851D01*
X142344040Y-95786944D01*
X142422017Y-95651885D01*
X142436223Y-95627279D01*
X142436224Y-95627278D01*
X142439527Y-95621556D01*
X142498542Y-95439928D01*
X142502504Y-95402237D01*
X142513485Y-95297749D01*
X142515907Y-95274706D01*
X142542920Y-95209050D01*
X142552122Y-95198782D01*
X143267247Y-94483657D01*
X143275537Y-94476113D01*
X143282018Y-94472000D01*
X143328659Y-94422332D01*
X143331413Y-94419491D01*
X143351134Y-94399770D01*
X143353612Y-94396575D01*
X143361318Y-94387553D01*
X143386158Y-94361101D01*
X143391586Y-94355321D01*
X143401346Y-94337568D01*
X143412199Y-94321045D01*
X143419753Y-94311306D01*
X143424613Y-94305041D01*
X143442176Y-94264457D01*
X143447383Y-94253827D01*
X143468695Y-94215060D01*
X143470666Y-94207383D01*
X143470668Y-94207378D01*
X143473732Y-94195442D01*
X143480138Y-94176730D01*
X143485033Y-94165419D01*
X143488181Y-94158145D01*
X143489421Y-94150317D01*
X143489423Y-94150310D01*
X143495099Y-94114476D01*
X143497505Y-94102856D01*
X143506528Y-94067711D01*
X143506528Y-94067710D01*
X143508500Y-94060030D01*
X143508500Y-94039776D01*
X143510051Y-94020065D01*
X143511980Y-94007886D01*
X143513220Y-94000057D01*
X143509059Y-93956038D01*
X143508500Y-93944181D01*
X143508500Y-87073767D01*
X143509027Y-87062584D01*
X143510702Y-87055091D01*
X143508562Y-86987000D01*
X143508500Y-86983043D01*
X143508500Y-86955144D01*
X143507996Y-86951153D01*
X143507063Y-86939311D01*
X143505923Y-86903036D01*
X143505674Y-86895111D01*
X143503462Y-86887497D01*
X143503461Y-86887492D01*
X143500023Y-86875659D01*
X143496012Y-86856295D01*
X143494467Y-86844064D01*
X143493474Y-86836203D01*
X143490557Y-86828836D01*
X143490556Y-86828831D01*
X143477198Y-86795092D01*
X143473354Y-86783865D01*
X143470314Y-86773401D01*
X143461018Y-86741407D01*
X143450707Y-86723972D01*
X143442012Y-86706224D01*
X143434552Y-86687383D01*
X143408564Y-86651613D01*
X143402048Y-86641693D01*
X143383580Y-86610465D01*
X143383578Y-86610462D01*
X143379542Y-86603638D01*
X143365221Y-86589317D01*
X143352380Y-86574283D01*
X143345131Y-86564306D01*
X143340472Y-86557893D01*
X143306395Y-86529702D01*
X143297616Y-86521712D01*
X141473652Y-84697747D01*
X141466112Y-84689461D01*
X141462000Y-84682982D01*
X141412348Y-84636356D01*
X141409507Y-84633602D01*
X141389770Y-84613865D01*
X141386573Y-84611385D01*
X141377551Y-84603680D01*
X141345321Y-84573414D01*
X141338375Y-84569595D01*
X141338372Y-84569593D01*
X141327566Y-84563652D01*
X141311047Y-84552801D01*
X141305048Y-84548148D01*
X141295041Y-84540386D01*
X141287772Y-84537241D01*
X141287768Y-84537238D01*
X141254463Y-84522826D01*
X141243813Y-84517609D01*
X141205060Y-84496305D01*
X141185437Y-84491267D01*
X141166734Y-84484863D01*
X141155420Y-84479967D01*
X141155419Y-84479967D01*
X141148145Y-84476819D01*
X141140322Y-84475580D01*
X141140312Y-84475577D01*
X141104476Y-84469901D01*
X141092856Y-84467495D01*
X141057711Y-84458472D01*
X141057710Y-84458472D01*
X141050030Y-84456500D01*
X141029776Y-84456500D01*
X141010065Y-84454949D01*
X140997886Y-84453020D01*
X140990057Y-84451780D01*
X140982165Y-84452526D01*
X140946039Y-84455941D01*
X140934181Y-84456500D01*
X140408200Y-84456500D01*
X140340079Y-84436498D01*
X140320853Y-84420157D01*
X140320580Y-84420460D01*
X140315668Y-84416037D01*
X140311253Y-84411134D01*
X140156752Y-84298882D01*
X140150724Y-84296198D01*
X140150722Y-84296197D01*
X139988319Y-84223891D01*
X139988318Y-84223891D01*
X139982288Y-84221206D01*
X139865205Y-84196319D01*
X139801944Y-84182872D01*
X139801939Y-84182872D01*
X139795487Y-84181500D01*
X139604513Y-84181500D01*
X139598061Y-84182872D01*
X139598056Y-84182872D01*
X139534795Y-84196319D01*
X139417712Y-84221206D01*
X139411682Y-84223891D01*
X139411681Y-84223891D01*
X139249278Y-84296197D01*
X139249276Y-84296198D01*
X139243248Y-84298882D01*
X139088747Y-84411134D01*
X139084326Y-84416044D01*
X139084325Y-84416045D01*
X138975203Y-84537238D01*
X138960960Y-84553056D01*
X138946073Y-84578841D01*
X138890289Y-84675461D01*
X138838906Y-84724454D01*
X138769193Y-84737890D01*
X138703282Y-84711503D01*
X138692075Y-84701556D01*
X138688266Y-84697747D01*
X138680726Y-84689461D01*
X138676614Y-84682982D01*
X138626962Y-84636356D01*
X138624121Y-84633602D01*
X138604384Y-84613865D01*
X138601187Y-84611385D01*
X138592165Y-84603680D01*
X138559935Y-84573414D01*
X138552989Y-84569595D01*
X138552986Y-84569593D01*
X138542180Y-84563652D01*
X138525661Y-84552801D01*
X138519662Y-84548148D01*
X138509655Y-84540386D01*
X138502386Y-84537241D01*
X138502382Y-84537238D01*
X138469077Y-84522826D01*
X138458427Y-84517609D01*
X138419674Y-84496305D01*
X138400051Y-84491267D01*
X138381348Y-84484863D01*
X138370034Y-84479967D01*
X138370033Y-84479967D01*
X138362759Y-84476819D01*
X138354936Y-84475580D01*
X138354926Y-84475577D01*
X138319090Y-84469901D01*
X138307470Y-84467495D01*
X138272325Y-84458472D01*
X138272324Y-84458472D01*
X138264644Y-84456500D01*
X138244390Y-84456500D01*
X138224679Y-84454949D01*
X138212500Y-84453020D01*
X138204671Y-84451780D01*
X138196779Y-84452526D01*
X138160653Y-84455941D01*
X138148795Y-84456500D01*
X135963200Y-84456500D01*
X135895079Y-84436498D01*
X135875853Y-84420157D01*
X135875580Y-84420460D01*
X135870668Y-84416037D01*
X135866253Y-84411134D01*
X135711752Y-84298882D01*
X135705724Y-84296198D01*
X135705722Y-84296197D01*
X135543319Y-84223891D01*
X135543318Y-84223891D01*
X135537288Y-84221206D01*
X135420205Y-84196319D01*
X135356944Y-84182872D01*
X135356939Y-84182872D01*
X135350487Y-84181500D01*
X135159513Y-84181500D01*
X135153061Y-84182872D01*
X135153056Y-84182872D01*
X135089795Y-84196319D01*
X134972712Y-84221206D01*
X134966682Y-84223891D01*
X134966681Y-84223891D01*
X134804279Y-84296197D01*
X134798248Y-84298882D01*
X134797323Y-84296804D01*
X134738512Y-84311076D01*
X134671419Y-84287859D01*
X134627528Y-84232055D01*
X134618500Y-84185218D01*
X134618500Y-83263767D01*
X134619027Y-83252584D01*
X134620702Y-83245091D01*
X134618562Y-83177014D01*
X134618500Y-83173055D01*
X134618500Y-83145144D01*
X134617995Y-83141144D01*
X134617062Y-83129301D01*
X134615922Y-83093030D01*
X134615673Y-83085111D01*
X134610021Y-83065657D01*
X134606013Y-83046300D01*
X134604468Y-83034070D01*
X134604468Y-83034069D01*
X134603474Y-83026203D01*
X134593747Y-83001635D01*
X134587196Y-82985088D01*
X134583351Y-82973858D01*
X134573229Y-82939017D01*
X134573229Y-82939016D01*
X134571018Y-82931407D01*
X134566985Y-82924588D01*
X134566983Y-82924583D01*
X134560707Y-82913972D01*
X134552012Y-82896224D01*
X134544552Y-82877383D01*
X134518564Y-82841613D01*
X134512048Y-82831693D01*
X134493580Y-82800465D01*
X134493578Y-82800462D01*
X134489542Y-82793638D01*
X134475221Y-82779317D01*
X134462380Y-82764283D01*
X134458746Y-82759281D01*
X134450472Y-82747893D01*
X134416395Y-82719702D01*
X134407616Y-82711712D01*
X131757122Y-80061217D01*
X131723096Y-79998905D01*
X131720907Y-79985292D01*
X131719990Y-79976562D01*
X131703542Y-79820072D01*
X131644527Y-79638444D01*
X131549040Y-79473056D01*
X131457005Y-79370840D01*
X131425675Y-79336045D01*
X131425674Y-79336044D01*
X131421253Y-79331134D01*
X131266752Y-79218882D01*
X131260724Y-79216198D01*
X131260722Y-79216197D01*
X131098319Y-79143891D01*
X131098318Y-79143891D01*
X131092288Y-79141206D01*
X130998887Y-79121353D01*
X130911944Y-79102872D01*
X130911939Y-79102872D01*
X130905487Y-79101500D01*
X130714513Y-79101500D01*
X130708061Y-79102872D01*
X130708056Y-79102872D01*
X130621113Y-79121353D01*
X130527712Y-79141206D01*
X130521682Y-79143891D01*
X130521681Y-79143891D01*
X130359278Y-79216197D01*
X130359276Y-79216198D01*
X130353248Y-79218882D01*
X130198747Y-79331134D01*
X130194326Y-79336044D01*
X130194325Y-79336045D01*
X130162996Y-79370840D01*
X130070960Y-79473056D01*
X129975473Y-79638444D01*
X129916458Y-79820072D01*
X129896496Y-80010000D01*
X129916458Y-80199928D01*
X129975473Y-80381556D01*
X129978776Y-80387278D01*
X129978777Y-80387279D01*
X130012686Y-80446010D01*
X130070960Y-80546944D01*
X130075378Y-80551851D01*
X130075379Y-80551852D01*
X130186133Y-80674857D01*
X130198747Y-80688866D01*
X130230694Y-80712077D01*
X130341428Y-80792530D01*
X130353248Y-80801118D01*
X130359276Y-80803802D01*
X130359278Y-80803803D01*
X130464207Y-80850520D01*
X130527712Y-80878794D01*
X130600624Y-80894292D01*
X130708056Y-80917128D01*
X130708061Y-80917128D01*
X130714513Y-80918500D01*
X130770406Y-80918500D01*
X130838527Y-80938502D01*
X130859501Y-80955405D01*
X133314595Y-83410500D01*
X133348621Y-83472812D01*
X133351500Y-83499595D01*
X133351500Y-85877499D01*
X133331498Y-85945620D01*
X133277842Y-85992113D01*
X133207568Y-86002217D01*
X133172252Y-85991695D01*
X133046342Y-85932982D01*
X133027404Y-85924151D01*
X133027403Y-85924151D01*
X133022422Y-85921828D01*
X133017114Y-85920406D01*
X133017112Y-85920405D01*
X132834552Y-85871489D01*
X132834551Y-85871489D01*
X132829237Y-85870065D01*
X132823751Y-85869585D01*
X132823745Y-85869584D01*
X132669830Y-85856117D01*
X132659920Y-85854853D01*
X132642538Y-85851929D01*
X132636157Y-85851851D01*
X132634858Y-85851835D01*
X132634854Y-85851835D01*
X132629999Y-85851776D01*
X132605714Y-85855254D01*
X132602411Y-85855727D01*
X132584548Y-85857000D01*
X126333208Y-85857000D01*
X126312304Y-85855254D01*
X126304737Y-85853981D01*
X126292540Y-85851929D01*
X126286242Y-85851852D01*
X126284861Y-85851835D01*
X126284857Y-85851835D01*
X126280001Y-85851776D01*
X126268040Y-85853489D01*
X126261171Y-85854281D01*
X126183636Y-85861065D01*
X126080763Y-85870065D01*
X126075449Y-85871489D01*
X126075448Y-85871489D01*
X125892888Y-85920405D01*
X125892886Y-85920406D01*
X125887578Y-85921828D01*
X125882597Y-85924151D01*
X125882596Y-85924151D01*
X125711304Y-86004025D01*
X125711299Y-86004028D01*
X125706317Y-86006351D01*
X125701810Y-86009507D01*
X125701808Y-86009508D01*
X125546998Y-86117907D01*
X125546995Y-86117909D01*
X125542487Y-86121066D01*
X125401066Y-86262487D01*
X125397909Y-86266995D01*
X125397907Y-86266998D01*
X125370518Y-86306114D01*
X125286351Y-86426317D01*
X125284028Y-86431299D01*
X125284025Y-86431304D01*
X125213614Y-86582303D01*
X125201828Y-86607578D01*
X125200406Y-86612886D01*
X125200405Y-86612888D01*
X125151526Y-86795309D01*
X125150065Y-86800763D01*
X125149585Y-86806249D01*
X125149584Y-86806255D01*
X125136117Y-86960170D01*
X125134853Y-86970080D01*
X125131929Y-86987462D01*
X125131776Y-87000001D01*
X125132466Y-87004816D01*
X125135727Y-87027589D01*
X125137000Y-87045452D01*
X125137000Y-90756792D01*
X125135254Y-90777696D01*
X125131929Y-90797460D01*
X125131870Y-90802321D01*
X125131842Y-90804622D01*
X125131776Y-90809999D01*
X124578011Y-90809999D01*
X124578011Y-82794011D01*
X124598013Y-82725890D01*
X124651669Y-82679397D01*
X124704011Y-82668011D01*
X125889704Y-82668011D01*
X125957825Y-82688013D01*
X126004318Y-82741669D01*
X126010823Y-82759281D01*
X126055180Y-82913972D01*
X126057783Y-82923050D01*
X126060602Y-82928535D01*
X126141072Y-83085111D01*
X126148187Y-83098956D01*
X126271035Y-83253953D01*
X126275728Y-83257947D01*
X126275729Y-83257948D01*
X126395744Y-83360088D01*
X126421650Y-83382136D01*
X126594294Y-83478624D01*
X126782392Y-83539740D01*
X126978777Y-83563158D01*
X126984912Y-83562686D01*
X126984914Y-83562686D01*
X127169830Y-83548457D01*
X127169834Y-83548456D01*
X127175972Y-83547984D01*
X127366463Y-83494798D01*
X127371967Y-83492018D01*
X127371969Y-83492017D01*
X127537495Y-83408404D01*
X127537497Y-83408403D01*
X127542996Y-83405625D01*
X127674146Y-83303160D01*
X127693991Y-83287655D01*
X127698847Y-83283861D01*
X127805508Y-83160293D01*
X127824049Y-83138813D01*
X127824050Y-83138811D01*
X127828078Y-83134145D01*
X127925769Y-82962179D01*
X127988197Y-82774513D01*
X128012985Y-82578295D01*
X128013380Y-82550000D01*
X127994080Y-82353167D01*
X127983732Y-82318891D01*
X127938697Y-82169731D01*
X127936916Y-82163831D01*
X127844066Y-81989204D01*
X127760201Y-81886375D01*
X127722960Y-81840713D01*
X127722957Y-81840710D01*
X127719065Y-81835938D01*
X127714316Y-81832009D01*
X127571425Y-81713799D01*
X127571421Y-81713797D01*
X127566675Y-81709870D01*
X127392701Y-81615802D01*
X127203768Y-81557318D01*
X127197643Y-81556674D01*
X127197642Y-81556674D01*
X127132695Y-81549848D01*
X127030820Y-81539141D01*
X126965164Y-81512128D01*
X126954896Y-81502926D01*
X126930953Y-81478983D01*
X126925099Y-81472717D01*
X126892067Y-81434851D01*
X126892064Y-81434848D01*
X126887072Y-81429126D01*
X126834791Y-81392382D01*
X126829497Y-81388450D01*
X126785204Y-81353720D01*
X126779229Y-81349035D01*
X126772313Y-81345912D01*
X126770027Y-81344528D01*
X126755346Y-81336154D01*
X126752986Y-81334889D01*
X126746772Y-81330521D01*
X126739693Y-81327761D01*
X126739691Y-81327760D01*
X126687236Y-81307309D01*
X126681167Y-81304758D01*
X126622938Y-81278466D01*
X126615471Y-81277082D01*
X126612916Y-81276281D01*
X126596663Y-81271652D01*
X126594083Y-81270989D01*
X126587002Y-81268229D01*
X126579471Y-81267238D01*
X126579469Y-81267237D01*
X126549850Y-81263338D01*
X126523650Y-81259889D01*
X126517152Y-81258859D01*
X126454325Y-81247215D01*
X126446745Y-81247652D01*
X126446744Y-81247652D01*
X126392119Y-81250802D01*
X126384865Y-81251011D01*
X124693252Y-81251011D01*
X124625131Y-81231009D01*
X124578638Y-81177353D01*
X124568165Y-81140148D01*
X124563526Y-81101815D01*
X124562613Y-81094269D01*
X124559927Y-81087161D01*
X124559290Y-81084567D01*
X124554829Y-81068261D01*
X124554059Y-81065710D01*
X124552753Y-81058227D01*
X124527072Y-80999723D01*
X124524580Y-80993616D01*
X124504684Y-80940963D01*
X124504684Y-80940962D01*
X124501998Y-80933855D01*
X124497695Y-80927594D01*
X124496458Y-80925228D01*
X124488231Y-80910448D01*
X124486880Y-80908163D01*
X124483826Y-80901206D01*
X124479206Y-80895186D01*
X124479203Y-80895180D01*
X124444932Y-80850520D01*
X124441052Y-80845179D01*
X124409172Y-80798791D01*
X124409167Y-80798786D01*
X124404868Y-80792530D01*
X124358340Y-80751075D01*
X124353065Y-80746095D01*
X123885344Y-80278374D01*
X123851318Y-80216062D01*
X123849517Y-80172833D01*
X123861092Y-80084911D01*
X123861092Y-80084907D01*
X123861529Y-80081590D01*
X123863156Y-80015000D01*
X123844852Y-79792361D01*
X123790431Y-79575702D01*
X123701354Y-79370840D01*
X123645085Y-79283861D01*
X123582822Y-79187617D01*
X123582820Y-79187614D01*
X123580014Y-79183277D01*
X123576532Y-79179450D01*
X123432798Y-79021488D01*
X123401746Y-78957642D01*
X123410141Y-78887143D01*
X123455317Y-78832375D01*
X123481761Y-78818706D01*
X123588297Y-78778767D01*
X123596705Y-78775615D01*
X123713261Y-78688261D01*
X123800615Y-78571705D01*
X123851745Y-78435316D01*
X123858500Y-78373134D01*
X123858500Y-76576866D01*
X123851745Y-76514684D01*
X123800615Y-76378295D01*
X123801315Y-76378033D01*
X123787671Y-76315654D01*
X123812406Y-76249106D01*
X123869193Y-76206494D01*
X123913360Y-76198500D01*
X136210406Y-76198500D01*
X136278527Y-76218502D01*
X136299501Y-76235405D01*
X137573469Y-77509373D01*
X137607495Y-77571685D01*
X137602430Y-77642500D01*
X137559883Y-77699336D01*
X137558708Y-77700159D01*
X137555110Y-77702040D01*
X137400975Y-77825968D01*
X137273846Y-77977474D01*
X137270876Y-77982877D01*
X137270873Y-77982881D01*
X137270707Y-77983183D01*
X137270579Y-77983310D01*
X137267393Y-77987963D01*
X137266509Y-77987358D01*
X137220363Y-78033243D01*
X137150947Y-78048138D01*
X137084497Y-78023139D01*
X137056082Y-77992996D01*
X137054066Y-77989204D01*
X137039881Y-77971811D01*
X136932960Y-77840713D01*
X136932957Y-77840710D01*
X136929065Y-77835938D01*
X136922724Y-77830692D01*
X136781425Y-77713799D01*
X136781421Y-77713797D01*
X136776675Y-77709870D01*
X136602701Y-77615802D01*
X136413768Y-77557318D01*
X136407643Y-77556674D01*
X136407642Y-77556674D01*
X136223204Y-77537289D01*
X136223202Y-77537289D01*
X136217075Y-77536645D01*
X136134576Y-77544153D01*
X136026251Y-77554011D01*
X136026248Y-77554012D01*
X136020112Y-77554570D01*
X136014206Y-77556308D01*
X136014202Y-77556309D01*
X135961959Y-77571685D01*
X135830381Y-77610410D01*
X135824923Y-77613263D01*
X135824919Y-77613265D01*
X135734147Y-77660720D01*
X135655110Y-77702040D01*
X135500975Y-77825968D01*
X135373846Y-77977474D01*
X135370879Y-77982872D01*
X135370875Y-77982877D01*
X135305051Y-78102612D01*
X135278567Y-78150787D01*
X135276706Y-78156654D01*
X135276705Y-78156656D01*
X135240627Y-78270388D01*
X135218765Y-78339306D01*
X135196719Y-78535851D01*
X135197235Y-78541995D01*
X135211986Y-78717663D01*
X135213268Y-78732934D01*
X135226411Y-78778768D01*
X135257487Y-78887143D01*
X135267783Y-78923050D01*
X135270602Y-78928535D01*
X135340671Y-79064873D01*
X135358187Y-79098956D01*
X135481035Y-79253953D01*
X135485728Y-79257947D01*
X135485729Y-79257948D01*
X135618347Y-79370814D01*
X135631650Y-79382136D01*
X135804294Y-79478624D01*
X135992392Y-79539740D01*
X136188777Y-79563158D01*
X136194912Y-79562686D01*
X136194914Y-79562686D01*
X136379830Y-79548457D01*
X136379834Y-79548456D01*
X136385972Y-79547984D01*
X136576463Y-79494798D01*
X136581967Y-79492018D01*
X136581969Y-79492017D01*
X136747495Y-79408404D01*
X136747497Y-79408403D01*
X136752996Y-79405625D01*
X136908847Y-79283861D01*
X137031983Y-79141206D01*
X137034049Y-79138813D01*
X137034050Y-79138811D01*
X137038078Y-79134145D01*
X137049396Y-79114222D01*
X137100433Y-79064873D01*
X137170051Y-79050950D01*
X137236145Y-79076875D01*
X137257146Y-79099781D01*
X137258187Y-79098956D01*
X137381035Y-79253953D01*
X137385728Y-79257947D01*
X137385729Y-79257948D01*
X137518347Y-79370814D01*
X137531650Y-79382136D01*
X137704294Y-79478624D01*
X137892392Y-79539740D01*
X138088777Y-79563158D01*
X138094912Y-79562686D01*
X138094914Y-79562686D01*
X138279830Y-79548457D01*
X138279834Y-79548456D01*
X138285972Y-79547984D01*
X138476463Y-79494798D01*
X138481967Y-79492018D01*
X138481969Y-79492017D01*
X138647495Y-79408404D01*
X138647497Y-79408403D01*
X138652996Y-79405625D01*
X138808847Y-79283861D01*
X138931983Y-79141206D01*
X138934049Y-79138813D01*
X138934050Y-79138811D01*
X138938078Y-79134145D01*
X138950634Y-79112044D01*
X139001669Y-79062696D01*
X139071287Y-79048772D01*
X139137381Y-79074697D01*
X139149283Y-79085187D01*
X145379595Y-85315499D01*
X145413621Y-85377811D01*
X145416500Y-85404594D01*
X145416500Y-93912476D01*
X145396498Y-93980597D01*
X145384142Y-93996779D01*
X145310960Y-94078056D01*
X145288014Y-94117800D01*
X145219982Y-94235635D01*
X145215473Y-94243444D01*
X145156458Y-94425072D01*
X145155768Y-94431633D01*
X145155768Y-94431635D01*
X145143320Y-94550074D01*
X145136496Y-94615000D01*
X145137186Y-94621565D01*
X145153187Y-94773803D01*
X145156458Y-94804928D01*
X145215473Y-94986556D01*
X145218776Y-94992278D01*
X145218777Y-94992279D01*
X145239032Y-95027361D01*
X145310960Y-95151944D01*
X145438747Y-95293866D01*
X145593248Y-95406118D01*
X145599276Y-95408802D01*
X145599278Y-95408803D01*
X145761681Y-95481109D01*
X145767712Y-95483794D01*
X145861112Y-95503647D01*
X145948056Y-95522128D01*
X145948061Y-95522128D01*
X145954513Y-95523500D01*
X146015011Y-95523500D01*
X146083132Y-95543502D01*
X146129625Y-95597158D01*
X146141011Y-95649500D01*
X146141011Y-96115894D01*
X146121009Y-96184015D01*
X146104106Y-96204989D01*
X146099500Y-96209595D01*
X146037188Y-96243621D01*
X146010405Y-96246500D01*
X145954513Y-96246500D01*
X145948061Y-96247872D01*
X145948056Y-96247872D01*
X145861112Y-96266353D01*
X145767712Y-96286206D01*
X145761682Y-96288891D01*
X145761681Y-96288891D01*
X145599278Y-96361197D01*
X145599276Y-96361198D01*
X145593248Y-96363882D01*
X145438747Y-96476134D01*
X145434326Y-96481044D01*
X145434325Y-96481045D01*
X145319444Y-96608634D01*
X145310960Y-96618056D01*
X145215473Y-96783444D01*
X145156458Y-96965072D01*
X145142795Y-97095074D01*
X145139093Y-97130293D01*
X145112080Y-97195950D01*
X145102878Y-97206218D01*
X142649500Y-99659595D01*
X142587188Y-99693621D01*
X142560405Y-99696500D01*
X139138200Y-99696500D01*
X139070079Y-99676498D01*
X139050853Y-99660157D01*
X139050580Y-99660460D01*
X139045668Y-99656037D01*
X139041253Y-99651134D01*
X139015618Y-99632509D01*
X138892094Y-99542763D01*
X138892093Y-99542762D01*
X138886752Y-99538882D01*
X138880724Y-99536198D01*
X138880722Y-99536197D01*
X138718319Y-99463891D01*
X138718318Y-99463891D01*
X138712288Y-99461206D01*
X138590331Y-99435283D01*
X138531944Y-99422872D01*
X138531939Y-99422872D01*
X138525487Y-99421500D01*
X138334513Y-99421500D01*
X138328061Y-99422872D01*
X138328056Y-99422872D01*
X138269669Y-99435283D01*
X138147712Y-99461206D01*
X138141682Y-99463891D01*
X138141681Y-99463891D01*
X137979278Y-99536197D01*
X137979276Y-99536198D01*
X137973248Y-99538882D01*
X137818747Y-99651134D01*
X137814326Y-99656044D01*
X137814325Y-99656045D01*
X137780492Y-99693621D01*
X137690960Y-99793056D01*
X137595473Y-99958444D01*
X137536458Y-100140072D01*
X137516496Y-100330000D01*
X137536458Y-100519928D01*
X137595473Y-100701556D01*
X137598776Y-100707278D01*
X137598777Y-100707279D01*
X137619192Y-100742639D01*
X137690960Y-100866944D01*
X137695378Y-100871851D01*
X137695379Y-100871852D01*
X137786245Y-100972769D01*
X137818747Y-101008866D01*
X137849714Y-101031365D01*
X137965469Y-101115466D01*
X137973248Y-101121118D01*
X137979276Y-101123802D01*
X137979278Y-101123803D01*
X138139514Y-101195144D01*
X138147712Y-101198794D01*
X138241112Y-101218647D01*
X138328056Y-101237128D01*
X138328061Y-101237128D01*
X138334513Y-101238500D01*
X138525487Y-101238500D01*
X138531939Y-101237128D01*
X138531944Y-101237128D01*
X138618887Y-101218647D01*
X138712288Y-101198794D01*
X138720486Y-101195144D01*
X138880722Y-101123803D01*
X138880724Y-101123802D01*
X138886752Y-101121118D01*
X138894532Y-101115466D01*
X139019671Y-101024546D01*
X139041253Y-101008866D01*
X139045668Y-101003963D01*
X139050580Y-100999540D01*
X139051705Y-101000789D01*
X139105014Y-100967949D01*
X139138200Y-100963500D01*
X142796233Y-100963500D01*
X142807416Y-100964027D01*
X142814909Y-100965702D01*
X142822835Y-100965453D01*
X142822836Y-100965453D01*
X142882986Y-100963562D01*
X142886945Y-100963500D01*
X142914856Y-100963500D01*
X142918791Y-100963003D01*
X142918856Y-100962995D01*
X142930693Y-100962062D01*
X142962951Y-100961048D01*
X142966970Y-100960922D01*
X142974889Y-100960673D01*
X142994343Y-100955021D01*
X143013700Y-100951013D01*
X143025930Y-100949468D01*
X143025931Y-100949468D01*
X143033797Y-100948474D01*
X143041168Y-100945555D01*
X143041170Y-100945555D01*
X143074912Y-100932196D01*
X143086142Y-100928351D01*
X143120983Y-100918229D01*
X143120984Y-100918229D01*
X143128593Y-100916018D01*
X143135412Y-100911985D01*
X143135417Y-100911983D01*
X143146028Y-100905707D01*
X143163776Y-100897012D01*
X143182617Y-100889552D01*
X143201795Y-100875619D01*
X143218387Y-100863564D01*
X143228307Y-100857048D01*
X143259535Y-100838580D01*
X143259538Y-100838578D01*
X143266362Y-100834542D01*
X143280683Y-100820221D01*
X143295717Y-100807380D01*
X143305694Y-100800131D01*
X143312107Y-100795472D01*
X143340298Y-100761395D01*
X143348288Y-100752616D01*
X146000500Y-98100405D01*
X146062812Y-98066379D01*
X146089595Y-98063500D01*
X146145487Y-98063500D01*
X146151939Y-98062128D01*
X146151944Y-98062128D01*
X146238887Y-98043647D01*
X146332288Y-98023794D01*
X146338319Y-98021109D01*
X146500722Y-97948803D01*
X146500724Y-97948802D01*
X146506752Y-97946118D01*
X146661253Y-97833866D01*
X146731485Y-97755865D01*
X146784621Y-97696852D01*
X146784622Y-97696851D01*
X146789040Y-97691944D01*
X146847314Y-97591010D01*
X146881223Y-97532279D01*
X146881224Y-97532278D01*
X146884527Y-97526556D01*
X146943542Y-97344928D01*
X146944607Y-97334801D01*
X146960907Y-97179707D01*
X146987920Y-97114050D01*
X146997122Y-97103782D01*
X147166758Y-96934146D01*
X147175048Y-96926602D01*
X147181529Y-96922489D01*
X147228170Y-96872821D01*
X147230924Y-96869980D01*
X147250645Y-96850259D01*
X147253123Y-96847064D01*
X147260829Y-96838042D01*
X147263286Y-96835426D01*
X147291097Y-96805810D01*
X147300857Y-96788057D01*
X147311710Y-96771534D01*
X147319264Y-96761795D01*
X147324124Y-96755530D01*
X147341687Y-96714946D01*
X147346894Y-96704316D01*
X147368206Y-96665549D01*
X147370177Y-96657872D01*
X147370179Y-96657867D01*
X147373243Y-96645931D01*
X147379649Y-96627219D01*
X147383615Y-96618056D01*
X147387692Y-96608634D01*
X147388932Y-96600806D01*
X147388934Y-96600799D01*
X147394610Y-96564965D01*
X147397016Y-96553345D01*
X147406039Y-96518200D01*
X147406039Y-96518199D01*
X147408011Y-96510519D01*
X147408011Y-96490265D01*
X147409562Y-96470554D01*
X147411491Y-96458375D01*
X147412731Y-96450546D01*
X147408570Y-96406527D01*
X147408011Y-96394670D01*
X147408011Y-92723134D01*
X150021500Y-92723134D01*
X150028255Y-92785316D01*
X150079385Y-92921705D01*
X150166739Y-93038261D01*
X150283295Y-93125615D01*
X150419684Y-93176745D01*
X150481866Y-93183500D01*
X151778134Y-93183500D01*
X151840316Y-93176745D01*
X151976705Y-93125615D01*
X152024622Y-93089703D01*
X152091126Y-93064855D01*
X152149924Y-93074761D01*
X152280835Y-93131005D01*
X152291778Y-93134560D01*
X152479120Y-93176952D01*
X152490530Y-93178454D01*
X152682469Y-93185995D01*
X152693951Y-93185393D01*
X152884045Y-93157832D01*
X152895240Y-93155144D01*
X153077131Y-93093400D01*
X153087628Y-93088726D01*
X153198032Y-93026898D01*
X153207895Y-93016821D01*
X153204939Y-93009149D01*
X152359885Y-92164095D01*
X152325859Y-92101783D01*
X152327694Y-92076132D01*
X152994408Y-92076132D01*
X152994539Y-92077966D01*
X152998790Y-92084580D01*
X153560239Y-92646028D01*
X153572614Y-92652785D01*
X153579194Y-92647859D01*
X153643726Y-92532628D01*
X153648400Y-92522131D01*
X153710144Y-92340240D01*
X153712832Y-92329045D01*
X153740689Y-92136911D01*
X153741319Y-92129528D01*
X153742650Y-92078704D01*
X153742407Y-92071305D01*
X153724643Y-91877975D01*
X153722545Y-91866654D01*
X153670408Y-91681791D01*
X153666283Y-91671044D01*
X153582163Y-91500465D01*
X153574869Y-91494990D01*
X153562449Y-91501762D01*
X153002021Y-92062189D01*
X152994408Y-92076132D01*
X152327694Y-92076132D01*
X152330924Y-92030968D01*
X152359885Y-91985905D01*
X152630000Y-91715790D01*
X153200281Y-91145508D01*
X153207041Y-91133128D01*
X153201011Y-91125073D01*
X153140061Y-91086616D01*
X153129813Y-91081395D01*
X152951401Y-91010216D01*
X152940373Y-91006949D01*
X152751982Y-90969476D01*
X152740535Y-90968273D01*
X152548477Y-90965759D01*
X152536997Y-90966662D01*
X152347697Y-90999190D01*
X152336577Y-91002170D01*
X152156364Y-91068654D01*
X152151476Y-91070985D01*
X152081380Y-91082256D01*
X152021671Y-91058085D01*
X151983891Y-91029770D01*
X151983888Y-91029768D01*
X151976705Y-91024385D01*
X151840316Y-90973255D01*
X151778134Y-90966500D01*
X150481866Y-90966500D01*
X150419684Y-90973255D01*
X150283295Y-91024385D01*
X150166739Y-91111739D01*
X150079385Y-91228295D01*
X150028255Y-91364684D01*
X150021500Y-91426866D01*
X150021500Y-92723134D01*
X147408011Y-92723134D01*
X147408011Y-86557966D01*
X149168257Y-86557966D01*
X149198565Y-86692446D01*
X149201645Y-86702275D01*
X149281770Y-86899603D01*
X149286413Y-86908794D01*
X149397694Y-87090388D01*
X149403777Y-87098699D01*
X149543213Y-87259667D01*
X149550580Y-87266883D01*
X149714434Y-87402916D01*
X149722881Y-87408831D01*
X149906756Y-87516279D01*
X149916042Y-87520729D01*
X150115001Y-87596703D01*
X150124899Y-87599579D01*
X150228250Y-87620606D01*
X150242299Y-87619410D01*
X150246000Y-87609065D01*
X150246000Y-86562115D01*
X150241525Y-86546876D01*
X150240135Y-86545671D01*
X150232452Y-86544000D01*
X149183225Y-86544000D01*
X149169694Y-86547973D01*
X149168257Y-86557966D01*
X147408011Y-86557966D01*
X147408011Y-86024183D01*
X149164389Y-86024183D01*
X149165912Y-86032607D01*
X149178292Y-86036000D01*
X150227885Y-86036000D01*
X150243124Y-86031525D01*
X150244329Y-86030135D01*
X150246000Y-86022452D01*
X150246000Y-84973102D01*
X150242082Y-84959758D01*
X150227806Y-84957771D01*
X150189324Y-84963660D01*
X150179288Y-84966051D01*
X149976868Y-85032212D01*
X149967359Y-85036209D01*
X149778463Y-85134542D01*
X149769738Y-85140036D01*
X149599433Y-85267905D01*
X149591726Y-85274748D01*
X149444590Y-85428717D01*
X149438104Y-85436727D01*
X149318098Y-85612649D01*
X149313000Y-85621623D01*
X149223338Y-85814783D01*
X149219775Y-85824470D01*
X149164389Y-86024183D01*
X147408011Y-86024183D01*
X147408011Y-84623278D01*
X147408538Y-84612095D01*
X147410213Y-84604602D01*
X147408073Y-84536511D01*
X147408011Y-84532554D01*
X147408011Y-84504655D01*
X147407507Y-84500664D01*
X147406574Y-84488822D01*
X147406574Y-84488801D01*
X147405185Y-84444622D01*
X147402973Y-84437008D01*
X147402972Y-84437003D01*
X147399534Y-84425170D01*
X147395523Y-84405806D01*
X147393978Y-84393575D01*
X147392985Y-84385714D01*
X147390068Y-84378347D01*
X147390067Y-84378342D01*
X147376709Y-84344603D01*
X147372865Y-84333376D01*
X147363970Y-84302763D01*
X147360529Y-84290918D01*
X147350218Y-84273483D01*
X147341523Y-84255735D01*
X147334063Y-84236894D01*
X147308075Y-84201124D01*
X147301559Y-84191204D01*
X147283091Y-84159976D01*
X147283089Y-84159973D01*
X147279053Y-84153149D01*
X147264732Y-84138828D01*
X147251891Y-84123794D01*
X147244642Y-84113817D01*
X147239983Y-84107404D01*
X147205906Y-84079213D01*
X147197127Y-84071223D01*
X146362122Y-83236218D01*
X146328096Y-83173906D01*
X146325907Y-83160293D01*
X146324732Y-83149108D01*
X146314960Y-83056139D01*
X146309232Y-83001635D01*
X146309232Y-83001633D01*
X146308542Y-82995072D01*
X146249527Y-82813444D01*
X146244075Y-82804000D01*
X146157341Y-82653774D01*
X146154040Y-82648056D01*
X146035643Y-82516562D01*
X146030675Y-82511045D01*
X146030674Y-82511044D01*
X146026253Y-82506134D01*
X145871752Y-82393882D01*
X145865724Y-82391198D01*
X145865722Y-82391197D01*
X145703319Y-82318891D01*
X145703318Y-82318891D01*
X145697288Y-82316206D01*
X145595584Y-82294588D01*
X145516944Y-82277872D01*
X145516939Y-82277872D01*
X145510487Y-82276500D01*
X145319513Y-82276500D01*
X145313061Y-82277872D01*
X145313056Y-82277872D01*
X145234416Y-82294588D01*
X145132712Y-82316206D01*
X145126682Y-82318891D01*
X145126681Y-82318891D01*
X144964278Y-82391197D01*
X144964276Y-82391198D01*
X144958248Y-82393882D01*
X144803747Y-82506134D01*
X144799326Y-82511044D01*
X144799325Y-82511045D01*
X144683312Y-82639891D01*
X144622866Y-82677131D01*
X144551883Y-82675779D01*
X144500581Y-82644676D01*
X137489000Y-75633095D01*
X137454974Y-75570783D01*
X137460039Y-75499968D01*
X137502586Y-75443132D01*
X137569106Y-75418321D01*
X137578095Y-75418000D01*
X154306000Y-75418000D01*
X154374121Y-75438002D01*
G37*
%TD.AperFunction*%
%TA.AperFunction,Conductor*%
G36*
X122696121Y-82321002D02*
G01*
X122742614Y-82374658D01*
X122754000Y-82427000D01*
X122754000Y-100463000D01*
X122733998Y-100531121D01*
X122680342Y-100577614D01*
X122628000Y-100589000D01*
X122372000Y-100589000D01*
X122303879Y-100568998D01*
X122257386Y-100515342D01*
X122246000Y-100463000D01*
X122246000Y-82427000D01*
X122266002Y-82358879D01*
X122319658Y-82312386D01*
X122372000Y-82301000D01*
X122628000Y-82301000D01*
X122696121Y-82321002D01*
G37*
%TD.AperFunction*%
%TA.AperFunction,Conductor*%
G36*
X116329537Y-86993502D02*
G01*
X116350511Y-87010405D01*
X116422095Y-87081989D01*
X116456121Y-87144301D01*
X116459000Y-87171084D01*
X116459000Y-92437885D01*
X116463475Y-92453124D01*
X116464865Y-92454329D01*
X116472548Y-92456000D01*
X117523344Y-92456000D01*
X117536875Y-92452027D01*
X117538180Y-92442947D01*
X117496214Y-92275875D01*
X117492894Y-92266124D01*
X117407972Y-92070814D01*
X117403105Y-92061739D01*
X117287426Y-91882926D01*
X117281136Y-91874757D01*
X117137806Y-91717240D01*
X117130273Y-91710215D01*
X116963139Y-91578222D01*
X116954552Y-91572517D01*
X116917116Y-91551851D01*
X116867146Y-91501419D01*
X116852374Y-91431976D01*
X116877490Y-91365571D01*
X116904842Y-91338964D01*
X117080327Y-91213792D01*
X117088200Y-91207139D01*
X117239051Y-91056813D01*
X117245728Y-91048968D01*
X117247962Y-91045858D01*
X117303956Y-91002208D01*
X117374659Y-90995761D01*
X117439382Y-91030286D01*
X118622805Y-92213709D01*
X118656831Y-92276021D01*
X118655127Y-92336475D01*
X118620989Y-92459570D01*
X118597251Y-92681695D01*
X118597548Y-92686848D01*
X118597548Y-92686851D01*
X118608039Y-92868805D01*
X118610110Y-92904715D01*
X118611247Y-92909761D01*
X118611248Y-92909767D01*
X118633646Y-93009149D01*
X118659222Y-93122639D01*
X118743266Y-93329616D01*
X118859987Y-93520088D01*
X119006250Y-93688938D01*
X119081213Y-93751173D01*
X119167628Y-93822916D01*
X119178126Y-93831632D01*
X119242931Y-93869501D01*
X119251445Y-93874476D01*
X119300169Y-93926114D01*
X119313240Y-93995897D01*
X119286509Y-94061669D01*
X119246055Y-94095027D01*
X119233607Y-94101507D01*
X119229474Y-94104610D01*
X119229471Y-94104612D01*
X119082368Y-94215060D01*
X119054965Y-94235635D01*
X119041383Y-94249848D01*
X118909789Y-94387553D01*
X118900629Y-94397138D01*
X118897715Y-94401410D01*
X118897714Y-94401411D01*
X118881574Y-94425072D01*
X118774743Y-94581680D01*
X118756229Y-94621565D01*
X118688611Y-94767237D01*
X118680688Y-94784305D01*
X118620989Y-94999570D01*
X118597251Y-95221695D01*
X118597548Y-95226848D01*
X118597548Y-95226851D01*
X118608039Y-95408803D01*
X118610110Y-95444715D01*
X118611247Y-95449761D01*
X118611248Y-95449767D01*
X118632373Y-95543502D01*
X118659222Y-95662639D01*
X118661166Y-95667426D01*
X118661167Y-95667430D01*
X118671589Y-95693097D01*
X118678685Y-95763738D01*
X118646462Y-95827001D01*
X118585152Y-95862801D01*
X118554846Y-95866500D01*
X117607031Y-95866500D01*
X117538910Y-95846498D01*
X117492417Y-95792842D01*
X117482313Y-95722568D01*
X117486473Y-95703871D01*
X117535377Y-95542910D01*
X117537555Y-95532837D01*
X117538986Y-95521962D01*
X117536775Y-95507778D01*
X117523617Y-95504000D01*
X116077000Y-95504000D01*
X116008879Y-95483998D01*
X115962386Y-95430342D01*
X115951000Y-95378000D01*
X115951000Y-94977885D01*
X116459000Y-94977885D01*
X116463475Y-94993124D01*
X116464865Y-94994329D01*
X116472548Y-94996000D01*
X117523344Y-94996000D01*
X117536875Y-94992027D01*
X117538180Y-94982947D01*
X117496214Y-94815875D01*
X117492894Y-94806124D01*
X117407972Y-94610814D01*
X117403105Y-94601739D01*
X117287426Y-94422926D01*
X117281136Y-94414757D01*
X117137806Y-94257240D01*
X117130273Y-94250215D01*
X116963139Y-94118222D01*
X116954552Y-94112517D01*
X116917116Y-94091851D01*
X116867146Y-94041419D01*
X116852374Y-93971976D01*
X116877490Y-93905571D01*
X116904842Y-93878964D01*
X117080327Y-93753792D01*
X117088200Y-93747139D01*
X117239052Y-93596812D01*
X117245730Y-93588965D01*
X117370003Y-93416020D01*
X117375313Y-93407183D01*
X117469670Y-93216267D01*
X117473469Y-93206672D01*
X117535377Y-93002910D01*
X117537555Y-92992837D01*
X117538986Y-92981962D01*
X117536775Y-92967778D01*
X117523617Y-92964000D01*
X116477115Y-92964000D01*
X116461876Y-92968475D01*
X116460671Y-92969865D01*
X116459000Y-92977548D01*
X116459000Y-94977885D01*
X115951000Y-94977885D01*
X115951000Y-87099500D01*
X115971002Y-87031379D01*
X116024658Y-86984886D01*
X116077000Y-86973500D01*
X116261416Y-86973500D01*
X116329537Y-86993502D01*
G37*
%TD.AperFunction*%
%TA.AperFunction,Conductor*%
G36*
X116401121Y-77236002D02*
G01*
X116447614Y-77289658D01*
X116459000Y-77342000D01*
X116459000Y-79737885D01*
X116463475Y-79753124D01*
X116464865Y-79754329D01*
X116472548Y-79756000D01*
X117523344Y-79756000D01*
X117536875Y-79752027D01*
X117538180Y-79742947D01*
X117496214Y-79575875D01*
X117492894Y-79566124D01*
X117407972Y-79370814D01*
X117403105Y-79361739D01*
X117287426Y-79182926D01*
X117281136Y-79174757D01*
X117137806Y-79017240D01*
X117130273Y-79010215D01*
X116963139Y-78878222D01*
X116954552Y-78872517D01*
X116917116Y-78851851D01*
X116867146Y-78801419D01*
X116852374Y-78731976D01*
X116877490Y-78665571D01*
X116904842Y-78638964D01*
X117080327Y-78513792D01*
X117088200Y-78507139D01*
X117239051Y-78356813D01*
X117245728Y-78348968D01*
X117247962Y-78345858D01*
X117303956Y-78302208D01*
X117374659Y-78295761D01*
X117439382Y-78330286D01*
X118622805Y-79513709D01*
X118656831Y-79576021D01*
X118655127Y-79636475D01*
X118620989Y-79759570D01*
X118620441Y-79764700D01*
X118620440Y-79764704D01*
X118616933Y-79797522D01*
X118597251Y-79981695D01*
X118597548Y-79986848D01*
X118597548Y-79986851D01*
X118603011Y-80081590D01*
X118610110Y-80204715D01*
X118611247Y-80209761D01*
X118611248Y-80209767D01*
X118635304Y-80316508D01*
X118659222Y-80422639D01*
X118743266Y-80629616D01*
X118781954Y-80692749D01*
X118857291Y-80815688D01*
X118859987Y-80820088D01*
X119006250Y-80988938D01*
X119082846Y-81052529D01*
X119167628Y-81122916D01*
X119178126Y-81131632D01*
X119228351Y-81160981D01*
X119251445Y-81174476D01*
X119300169Y-81226114D01*
X119313240Y-81295897D01*
X119286509Y-81361669D01*
X119246055Y-81395027D01*
X119233607Y-81401507D01*
X119229474Y-81404610D01*
X119229471Y-81404612D01*
X119130418Y-81478983D01*
X119054965Y-81535635D01*
X118900629Y-81697138D01*
X118897715Y-81701410D01*
X118897714Y-81701411D01*
X118882798Y-81723277D01*
X118774743Y-81881680D01*
X118742553Y-81951027D01*
X118699622Y-82043516D01*
X118680688Y-82084305D01*
X118620989Y-82299570D01*
X118597251Y-82521695D01*
X118597548Y-82526848D01*
X118597548Y-82526851D01*
X118603011Y-82621590D01*
X118610110Y-82744715D01*
X118611247Y-82749761D01*
X118611248Y-82749767D01*
X118632275Y-82843069D01*
X118659222Y-82962639D01*
X118688227Y-83034070D01*
X118734939Y-83149108D01*
X118743266Y-83169616D01*
X118859987Y-83360088D01*
X119006250Y-83528938D01*
X119153610Y-83651279D01*
X119167628Y-83662916D01*
X119178126Y-83671632D01*
X119192015Y-83679748D01*
X119251445Y-83714476D01*
X119300169Y-83766114D01*
X119313240Y-83835897D01*
X119286509Y-83901669D01*
X119246055Y-83935027D01*
X119233607Y-83941507D01*
X119229474Y-83944610D01*
X119229471Y-83944612D01*
X119065260Y-84067905D01*
X119054965Y-84075635D01*
X119051393Y-84079373D01*
X118939637Y-84196319D01*
X118900629Y-84237138D01*
X118897715Y-84241410D01*
X118897714Y-84241411D01*
X118881658Y-84264948D01*
X118774743Y-84421680D01*
X118734387Y-84508621D01*
X118690262Y-84603680D01*
X118680688Y-84624305D01*
X118620989Y-84839570D01*
X118597251Y-85061695D01*
X118597548Y-85066848D01*
X118597548Y-85066851D01*
X118604839Y-85193295D01*
X118610110Y-85284715D01*
X118611247Y-85289761D01*
X118611248Y-85289767D01*
X118634258Y-85391866D01*
X118659222Y-85502639D01*
X118743266Y-85709616D01*
X118774625Y-85760789D01*
X118850008Y-85883803D01*
X118859987Y-85900088D01*
X119006250Y-86068938D01*
X119178126Y-86211632D01*
X119248595Y-86252811D01*
X119251445Y-86254476D01*
X119300169Y-86306114D01*
X119313240Y-86375897D01*
X119286509Y-86441669D01*
X119246055Y-86475027D01*
X119233607Y-86481507D01*
X119229474Y-86484610D01*
X119229471Y-86484612D01*
X119059100Y-86612530D01*
X119054965Y-86615635D01*
X119051393Y-86619373D01*
X118917995Y-86758966D01*
X118900629Y-86777138D01*
X118897715Y-86781410D01*
X118897714Y-86781411D01*
X118860555Y-86835884D01*
X118774743Y-86961680D01*
X118735063Y-87047164D01*
X118689974Y-87144301D01*
X118680688Y-87164305D01*
X118620989Y-87379570D01*
X118597251Y-87601695D01*
X118597548Y-87606848D01*
X118597548Y-87606851D01*
X118609812Y-87819547D01*
X118610110Y-87824715D01*
X118611247Y-87829761D01*
X118611248Y-87829767D01*
X118635304Y-87936508D01*
X118659222Y-88042639D01*
X118743266Y-88249616D01*
X118859987Y-88440088D01*
X119006250Y-88608938D01*
X119081213Y-88671173D01*
X119167628Y-88742916D01*
X119178126Y-88751632D01*
X119242931Y-88789501D01*
X119251445Y-88794476D01*
X119300169Y-88846114D01*
X119313240Y-88915897D01*
X119286509Y-88981669D01*
X119246055Y-89015027D01*
X119233607Y-89021507D01*
X119229474Y-89024610D01*
X119229471Y-89024612D01*
X119065260Y-89147905D01*
X119054965Y-89155635D01*
X118900629Y-89317138D01*
X118774743Y-89501680D01*
X118680688Y-89704305D01*
X118620989Y-89919570D01*
X118620440Y-89924707D01*
X118600672Y-90109679D01*
X118573544Y-90175289D01*
X118515251Y-90215817D01*
X118444302Y-90218396D01*
X118386289Y-90185385D01*
X118342600Y-90141695D01*
X118074136Y-89873231D01*
X118066602Y-89864952D01*
X118062489Y-89858471D01*
X118052758Y-89849333D01*
X118016793Y-89788120D01*
X118013011Y-89757483D01*
X118013011Y-87222268D01*
X118013538Y-87211085D01*
X118015213Y-87203592D01*
X118013831Y-87159610D01*
X118013073Y-87135515D01*
X118013011Y-87131556D01*
X118013011Y-87103645D01*
X118012506Y-87099645D01*
X118011573Y-87087802D01*
X118011391Y-87081989D01*
X118010184Y-87043612D01*
X118004532Y-87024158D01*
X118000524Y-87004801D01*
X117998979Y-86992571D01*
X117998979Y-86992570D01*
X117997985Y-86984704D01*
X117990728Y-86966375D01*
X117981707Y-86943589D01*
X117977862Y-86932359D01*
X117967740Y-86897518D01*
X117967740Y-86897517D01*
X117965529Y-86889908D01*
X117961496Y-86883089D01*
X117961494Y-86883084D01*
X117955218Y-86872473D01*
X117946523Y-86854725D01*
X117939063Y-86835884D01*
X117913075Y-86800114D01*
X117906559Y-86790194D01*
X117888091Y-86758966D01*
X117888089Y-86758963D01*
X117884053Y-86752139D01*
X117869732Y-86737818D01*
X117856891Y-86722784D01*
X117849642Y-86712807D01*
X117844983Y-86706394D01*
X117838878Y-86701343D01*
X117838873Y-86701338D01*
X117810907Y-86678202D01*
X117802129Y-86670214D01*
X117260857Y-86128942D01*
X117226831Y-86066630D01*
X117231896Y-85995815D01*
X117247629Y-85966321D01*
X117370009Y-85796011D01*
X117375313Y-85787183D01*
X117469670Y-85596267D01*
X117473469Y-85586672D01*
X117535377Y-85382910D01*
X117537555Y-85372837D01*
X117538986Y-85361962D01*
X117536775Y-85347778D01*
X117523617Y-85344000D01*
X116477115Y-85344000D01*
X116461876Y-85348475D01*
X116460671Y-85349865D01*
X116459000Y-85357548D01*
X116459000Y-85580500D01*
X116438998Y-85648621D01*
X116385342Y-85695114D01*
X116333000Y-85706500D01*
X116077000Y-85706500D01*
X116008879Y-85686498D01*
X115962386Y-85632842D01*
X115951000Y-85580500D01*
X115951000Y-84817885D01*
X116459000Y-84817885D01*
X116463475Y-84833124D01*
X116464865Y-84834329D01*
X116472548Y-84836000D01*
X117523344Y-84836000D01*
X117536875Y-84832027D01*
X117538180Y-84822947D01*
X117496214Y-84655875D01*
X117492894Y-84646124D01*
X117407972Y-84450814D01*
X117403105Y-84441739D01*
X117287426Y-84262926D01*
X117281136Y-84254757D01*
X117137806Y-84097240D01*
X117130273Y-84090215D01*
X116963139Y-83958222D01*
X116954552Y-83952517D01*
X116917116Y-83931851D01*
X116867146Y-83881419D01*
X116852374Y-83811976D01*
X116877490Y-83745571D01*
X116904842Y-83718964D01*
X117080327Y-83593792D01*
X117088200Y-83587139D01*
X117239052Y-83436812D01*
X117245730Y-83428965D01*
X117370003Y-83256020D01*
X117375313Y-83247183D01*
X117469670Y-83056267D01*
X117473469Y-83046672D01*
X117535377Y-82842910D01*
X117537555Y-82832837D01*
X117538986Y-82821962D01*
X117536775Y-82807778D01*
X117523617Y-82804000D01*
X116477115Y-82804000D01*
X116461876Y-82808475D01*
X116460671Y-82809865D01*
X116459000Y-82817548D01*
X116459000Y-84817885D01*
X115951000Y-84817885D01*
X115951000Y-82277885D01*
X116459000Y-82277885D01*
X116463475Y-82293124D01*
X116464865Y-82294329D01*
X116472548Y-82296000D01*
X117523344Y-82296000D01*
X117536875Y-82292027D01*
X117538180Y-82282947D01*
X117496214Y-82115875D01*
X117492894Y-82106124D01*
X117407972Y-81910814D01*
X117403105Y-81901739D01*
X117287426Y-81722926D01*
X117281136Y-81714757D01*
X117137806Y-81557240D01*
X117130273Y-81550215D01*
X116963139Y-81418222D01*
X116954552Y-81412517D01*
X116917116Y-81391851D01*
X116867146Y-81341419D01*
X116852374Y-81271976D01*
X116877490Y-81205571D01*
X116904842Y-81178964D01*
X117080327Y-81053792D01*
X117088200Y-81047139D01*
X117239052Y-80896812D01*
X117245730Y-80888965D01*
X117370003Y-80716020D01*
X117375313Y-80707183D01*
X117469670Y-80516267D01*
X117473469Y-80506672D01*
X117535377Y-80302910D01*
X117537555Y-80292837D01*
X117538986Y-80281962D01*
X117536775Y-80267778D01*
X117523617Y-80264000D01*
X116477115Y-80264000D01*
X116461876Y-80268475D01*
X116460671Y-80269865D01*
X116459000Y-80277548D01*
X116459000Y-82277885D01*
X115951000Y-82277885D01*
X115951000Y-77342000D01*
X115971002Y-77273879D01*
X116024658Y-77227386D01*
X116077000Y-77216000D01*
X116333000Y-77216000D01*
X116401121Y-77236002D01*
G37*
%TD.AperFunction*%
M02*
