%TF.GenerationSoftware,KiCad,Pcbnew,(6.0.0-0)*%
%TF.CreationDate,2023-01-27T15:23:15+00:00*%
%TF.ProjectId,Userport RTC,55736572-706f-4727-9420-5254432e6b69,rev?*%
%TF.SameCoordinates,Original*%
%TF.FileFunction,Paste,Top*%
%TF.FilePolarity,Positive*%
%FSLAX46Y46*%
G04 Gerber Fmt 4.6, Leading zero omitted, Abs format (unit mm)*
G04 Created by KiCad (PCBNEW (6.0.0-0)) date 2023-01-27 15:23:15*
%MOMM*%
%LPD*%
G01*
G04 APERTURE LIST*
G04 Aperture macros list*
%AMRoundRect*
0 Rectangle with rounded corners*
0 $1 Rounding radius*
0 $2 $3 $4 $5 $6 $7 $8 $9 X,Y pos of 4 corners*
0 Add a 4 corners polygon primitive as box body*
4,1,4,$2,$3,$4,$5,$6,$7,$8,$9,$2,$3,0*
0 Add four circle primitives for the rounded corners*
1,1,$1+$1,$2,$3*
1,1,$1+$1,$4,$5*
1,1,$1+$1,$6,$7*
1,1,$1+$1,$8,$9*
0 Add four rect primitives between the rounded corners*
20,1,$1+$1,$2,$3,$4,$5,0*
20,1,$1+$1,$4,$5,$6,$7,0*
20,1,$1+$1,$6,$7,$8,$9,0*
20,1,$1+$1,$8,$9,$2,$3,0*%
G04 Aperture macros list end*
%ADD10RoundRect,0.150000X-0.825000X-0.150000X0.825000X-0.150000X0.825000X0.150000X-0.825000X0.150000X0*%
%ADD11RoundRect,0.250000X0.625000X-0.400000X0.625000X0.400000X-0.625000X0.400000X-0.625000X-0.400000X0*%
%ADD12RoundRect,0.150000X0.512500X0.150000X-0.512500X0.150000X-0.512500X-0.150000X0.512500X-0.150000X0*%
%ADD13RoundRect,0.250000X0.412500X0.650000X-0.412500X0.650000X-0.412500X-0.650000X0.412500X-0.650000X0*%
%ADD14RoundRect,0.100000X-0.637500X-0.100000X0.637500X-0.100000X0.637500X0.100000X-0.637500X0.100000X0*%
%ADD15RoundRect,0.250000X-0.400000X-0.625000X0.400000X-0.625000X0.400000X0.625000X-0.400000X0.625000X0*%
G04 APERTURE END LIST*
D10*
X134685000Y-94615000D03*
X134685000Y-95885000D03*
X134685000Y-97155000D03*
X134685000Y-98425000D03*
X139635000Y-98425000D03*
X139635000Y-97155000D03*
X139635000Y-95885000D03*
X139635000Y-94615000D03*
D11*
X125730000Y-98070000D03*
X125730000Y-94970000D03*
D12*
X145917500Y-89215000D03*
X145917500Y-88265000D03*
X145917500Y-87315000D03*
X143642500Y-87315000D03*
X143642500Y-89215000D03*
D13*
X146342500Y-77470000D03*
X143217500Y-77470000D03*
D14*
X141917500Y-80600000D03*
X141917500Y-81250000D03*
X141917500Y-81900000D03*
X141917500Y-82550000D03*
X141917500Y-83200000D03*
X141917500Y-83850000D03*
X141917500Y-84500000D03*
X147642500Y-84500000D03*
X147642500Y-83850000D03*
X147642500Y-83200000D03*
X147642500Y-82550000D03*
X147642500Y-81900000D03*
X147642500Y-81250000D03*
X147642500Y-80600000D03*
D10*
X143575000Y-92075000D03*
X143575000Y-93345000D03*
X143575000Y-94615000D03*
X143575000Y-95885000D03*
X143575000Y-97155000D03*
X143575000Y-98425000D03*
X143575000Y-99695000D03*
X148525000Y-99695000D03*
X148525000Y-98425000D03*
X148525000Y-97155000D03*
X148525000Y-95885000D03*
X148525000Y-94615000D03*
X148525000Y-93345000D03*
X148525000Y-92075000D03*
D15*
X125450000Y-80010000D03*
X128550000Y-80010000D03*
X125450000Y-77470000D03*
X128550000Y-77470000D03*
D13*
X138722500Y-91440000D03*
X135597500Y-91440000D03*
D15*
X125450000Y-82550000D03*
X128550000Y-82550000D03*
X148310000Y-89535000D03*
X151410000Y-89535000D03*
M02*
